<?xml version="1.0" encoding="utf-8"?>
<!-- Generator: Adobe Illustrator 22.1.0, SVG Export Plug-In . SVG Version: 6.00 Build 0)  -->
<svg version="1.1" id="Layer_1" xmlns="http://www.w3.org/2000/svg" xmlns:xlink="http://www.w3.org/1999/xlink" x="0px" y="0px"
	 viewBox="0 0 512 512" style="enable-background:new 0 0 512 512;" xml:space="preserve">
<style type="text/css">
	.st0{display:none;fill:none;stroke:#AAAAAA;stroke-width:3;stroke-miterlimit:10;}
	.st1{fill:#55FF55;}
</style>
<circle id="Inside_Ring" class="st0" cx="256" cy="256" r="207.5"/>
<circle id="Outside_Ring" class="st0" cx="256" cy="256" r="225"/>
<path id="Blip" class="st1" d="M243.5,47.3L242,32.9c4.6-0.2,9.3-0.4,14-0.4c4.7,0,9.4,0.1,14,0.4l-1.5,14.4
	c-4.1-0.2-8.3-0.3-12.5-0.3C251.8,47,247.6,47.1,243.5,47.3z"/>
<path id="Inside_Sweep" class="st0" d="M279,49.8l-0.6,6.4c-7.4-0.4-14.9-0.7-22.4-0.7c-7.5,0-15,0.2-22.4,0.7l-0.6-6.4"/>
<path id="Outside_Sweep" class="st0" d="M231.5,32.3l-0.6-7.4c8.3-0.5,16.7-0.8,25.1-0.8c8.4,0,16.8,0.3,25.1,0.8l-0.6,7.4"/>
</svg>
