<?xml version="1.0" encoding="utf-8"?>
<!-- Generator: Adobe Illustrator 22.1.0, SVG Export Plug-In . SVG Version: 6.00 Build 0)  -->
<svg version="1.1" id="Layer_1" xmlns="http://www.w3.org/2000/svg" xmlns:xlink="http://www.w3.org/1999/xlink" x="0px" y="0px"
	 viewBox="0 0 512 512" style="enable-background:new 0 0 512 512;" xml:space="preserve">
<style type="text/css">
	.st0{fill:none;stroke:#AAAAAA;stroke-width:3;stroke-miterlimit:10;}
	.st1{display:none;fill:#55FF55;stroke:#AAAAAA;stroke-width:3;stroke-miterlimit:10;}
	.st2{display:none;fill:none;stroke:#FFFFFF;stroke-width:3;stroke-miterlimit:10;}
</style>
<circle id="Inside_Ring" class="st0" cx="256" cy="256" r="207.5"/>
<circle id="Outside_Ring" class="st0" cx="256" cy="256" r="225"/>
<path id="Blip" class="st1" d="M243.5,48.9L242,31.4c4.6-0.3,9.3-0.4,14-0.4c4.7,0,9.4,0.1,14,0.4l-1.5,17.4
	c-4.1-0.2-8.3-0.4-12.5-0.4C251.8,48.5,247.6,48.6,243.5,48.9z"/>
<path id="Inside_Sweep" class="st2" d="M272.9,52.2c-5.6-0.3-11.2-0.5-16.9-0.5c-5.7,0-11.3,0.2-16.9,0.5"/>
<path id="Outside_Sweep" class="st2" d="M237.1,28.7c6.3-0.4,12.6-0.6,18.9-0.6c6.4,0,12.7,0.2,18.9,0.6"/>
</svg>
