<?xml version="1.0" encoding="utf-8"?>
<!-- Generator: Adobe Illustrator 12.0.0, SVG Export Plug-In . SVG Version: 6.00 Build 51448)  -->
<!DOCTYPE svg PUBLIC "-//W3C//DTD SVG 1.1//EN" "http://www.w3.org/Graphics/SVG/1.1/DTD/svg11.dtd" [
	<!ENTITY ns_svg "http://www.w3.org/2000/svg">
	<!ENTITY ns_xlink "http://www.w3.org/1999/xlink">
]>
<svg  version="1.1" id="Layer_1" xmlns="&ns_svg;" xmlns:xlink="&ns_xlink;" width="760.48" height="287.756"
	 viewBox="0 0 760.48 287.756" overflow="visible" enable-background="new 0 0 760.48 287.756" xml:space="preserve">
<g>
	<polygon opacity="0" fill-rule="evenodd" clip-rule="evenodd" fill="#FFFFFF" points="0,0 760.48,0 760.48,287.756 0,287.756 0,0 	
		"/>
	<polygon fill-rule="evenodd" clip-rule="evenodd" fill="#0490C7" points="164.217,23.18 328.029,23.18 328.029,26.258 
		212.094,26.258 212.094,28.651 163.875,28.651 164.217,23.18 	"/>
	<polygon fill-rule="evenodd" clip-rule="evenodd" fill="#0490C7" points="163.875,36.173 327.687,36.173 327.687,40.618 
		212.094,40.618 212.094,43.015 163.875,43.015 163.875,36.173 	"/>
	<path fill-rule="evenodd" clip-rule="evenodd" fill="#0490C7" d="M163.875,50.198h160.734l3.078,2.394l0.342-2.055h124.824
		l3.078,3.763h-80.709c0,0-37.277,7.18-41.382,6.495c-3.074-0.338-16.068-0.338-16.068-0.338s1.708-3.763,3.759-6.157H212.094v3.079
		h-48.219V50.198L163.875,50.198z"/>
	<path fill-rule="evenodd" clip-rule="evenodd" fill="#0490C7" d="M163.875,63.873h152.185c0,0,3.759,2.055,9.577,2.394
		c2.735,0,2.393-2.394,2.393-2.394h198.354l5.813,9.235h-22.231l-0.682-3.763H464.48l0.686,2.055c0,0-11.286-4.105-17.442-2.736
		c-0.342,0-67.712,0-67.712,0c-7.865,0-21.205,1.708-37.961,5.814h-30.782l2.055-5.133H212.094v3.078h-48.219V63.873L163.875,63.873
		z"/>
	<path fill-rule="evenodd" clip-rule="evenodd" fill="#0490C7" d="M346.499,31.729c0,0,9.23-6.841,17.78-8.208h49.932l6.156,2.736
		c0,0-25.991-0.685-31.463,0.685c-7.526,2.047-25.306,4.102-25.306,4.102L346.499,31.729L346.499,31.729z"/>
	<path fill-rule="evenodd" clip-rule="evenodd" fill="#0490C7" d="M327.687,47.459c0,0,3.078-4.444,10.943-10.601h100.544
		l4.105,3.759l-67.374,0.685c-10.262,0-16.414,4.105-30.778,5.471C343.759,46.774,327.687,47.459,327.687,47.459L327.687,47.459z"/>
	<path fill-rule="evenodd" clip-rule="evenodd" fill="#0490C7" d="M535.613,78.925l6.156,9.916h-28.042l-1.027-3.763h-43.429
		c0,0,0.681,2.735,0.338,2.735c-7.521-1.708-15.044-2.051-15.044-2.051l1.708-2.735H386.85c0,0-15.387,1.023-28.724,3.763
		c-13.682,2.732-27.019,3.078-27.019,3.078h-23.255l0.685-5.133h-96.443v3.763h-48.219V78.24h146.028c0,0,3.763,2.732,14.021,2.394
		c5.129,0,3.763-1.708,3.763-1.708H535.613L535.613,78.925z"/>
	<path fill-rule="evenodd" clip-rule="evenodd" fill="#0490C7" d="M306.825,104.574h35.564c0,0,10.262-1.031,23.602-3.424
		c14.021-2.732,22.571-2.732,22.571-2.732h58.82l-2.051,3.417c0,0,6.837-0.685,25.306,2.393c0.343,0,0-3.763,0-3.763h45.484
		l1.027,3.424h33.855l-6.156-10.258H328.029c0,0,0.342,1.708-3.42,1.708c-15.391,0.681-17.1-2.74-17.1-2.74H163.875v10.943h48.219
		v-3.759h94.731V104.574L306.825,104.574z"/>
	<path fill-rule="evenodd" clip-rule="evenodd" fill="#0490C7" d="M553.397,107.991l6.156,10.604h-38.984l-1.027-3.078h-49.933
		l-0.338,2.394c0,0-9.92,0.685-14.364-0.343c-9.919-2.397-17.784-1.027-17.784-1.027l1.708-3.078h-37.961
		c0,0-10.943-0.338-22.913,2.055c-14.021,2.732-28.042,3.417-28.042,3.417h-41.04l-0.685-3.763h-96.097v2.74h-48.219v-10.262h142.95
		c0,0,1.366,3.421,18.126,2.397c3.42,0,2.736-2.055,2.736-2.055H553.397L553.397,107.991z"/>
	<polygon fill-rule="evenodd" clip-rule="evenodd" fill="#0490C7" points="522.962,57.721 518.515,50.537 474.742,50.537 
		472.007,54.985 505.863,54.985 506.548,57.721 522.962,57.721 	"/>
	<polygon fill-rule="evenodd" clip-rule="evenodd" fill="#0490C7" points="514.07,43.696 510.649,37.54 482.265,37.54 
		480.214,41.303 502.442,41.303 503.127,43.696 514.07,43.696 	"/>
	<polygon fill-rule="evenodd" clip-rule="evenodd" fill="#0490C7" points="505.521,29.675 496.629,13.945 498.68,23.865 
		490.13,23.865 488.079,26.597 499.021,26.597 500.049,28.99 505.521,29.675 	"/>
	<path fill-rule="evenodd" clip-rule="evenodd" fill="#0490C7" d="M328.029,122.354H562.29l7.184,11.628h-45.484l-0.685-3.078
		h-58.139l-1.023,3.42c-9.577-1.708-19.154-2.055-19.154-2.055h-16.757l1.708-3.078c0,0-10.258-0.681-24.964,1.37
		c-12.655,1.708-50.274,3.079-50.274,3.079h-41.036l-1.37-2.736H212.094v3.078h-48.219v-12.309h145.001
		c0,0,4.105,3.759,16.418,2.732C328.372,125.09,328.029,122.354,328.029,122.354L328.029,122.354z"/>
	<path fill-rule="evenodd" clip-rule="evenodd" fill="#0490C7" d="M322.896,150.054h40.016c0,0,28.042-1.023,32.144-1.366
		c14.706-1.027,24.968-3.078,24.968-3.078l-1.712,3.078c0,0,15.733-1.027,27.019,1.366c0.343,0,9.577,0,9.577,0l1.708-2.393h70.451
		l0.682,2.393h51.298l-7.865-12.309H328.029c0,0,0.342,1.708-1.708,1.708c-10.604,0-11.289-2.393-11.289-2.393H163.875v12.313
		h48.219v-2.051H320.85L322.896,150.054L322.896,150.054z"/>
	<path fill-rule="evenodd" clip-rule="evenodd" fill="#0490C7" d="M580.759,152.794l7.864,12.994h-57.454l-0.342-1.708H441.91
		l-1.366,1.023h-31.462l1.366-2.393c0,0-12.313,2.051-25.649,2.736c-0.342,0-47.535,0-47.535,0l-7.526-7.18l-1.708,5.472H212.094
		v1.708h-48.219v-12.994h159.707l4.448,3.075v-2.732H580.759L580.759,152.794z"/>
	<path fill-rule="evenodd" clip-rule="evenodd" fill="#0490C7" d="M342.05,168.866c0,0,16.076,14.706,47.877,14.706
		c16.757,0,22.913-3.763,22.913-3.763h183.99l-6.157-10.943H342.05L342.05,168.866z"/>
	<polygon fill-rule="evenodd" clip-rule="evenodd" fill="#0490C7" points="163.875,168.866 328.029,168.866 328.029,180.494 
		163.875,180.494 163.875,168.866 	"/>
	<polygon fill-rule="evenodd" clip-rule="evenodd" fill="#0490C7" points="328.029,163.737 328.029,156.553 330.765,159.631 
		329.738,163.737 328.029,163.737 	"/>
	<path fill-rule="evenodd" clip-rule="evenodd" fill="#999B9E" d="M37.338,223.241c0-4.79,0.342-4.79,8.55-4.79
		c13.34,0,7.868,7.868,11.285,7.868c1.708,0,1.37-2.051,1.027-3.078V216.4c0-0.681-0.685-1.366-1.366-1.366
		c-6.157,0-10.947,0.343-16.076,0.343c-10.601,0-15.391-0.343-18.127-0.343c-1.027,0-1.708,0.686-1.708,1.023
		c0,3.082,7.865,0.686,7.865,6.842v32.832c0,8.55-5.129,4.787-5.129,7.865c0,0.685,0.343,1.027,1.023,1.027
		c4.106,0,6.841-0.343,8.896-0.343c3.417,0,7.865,0.343,18.123,0.343c5.813,0,9.919-5.818,9.919-11.289
		c0-1.366-0.342-1.366-0.685-1.366c-2.736,0-1.708,8.892-18.808,8.892c-5.133,0-4.791-2.393-4.791-6.841v-8.892
		c0-4.103-0.342-4.787,2.736-4.787h5.133c7.18,0,5.471,7.18,7.522,7.18c1.708,0,1.366-2.393,1.366-3.417l-0.685-12.313
		c0-2.051-0.681-1.708-1.366-1.708c-1.366,0-1.366,6.495-7.522,6.495h-4.105c-3.078,0-3.078-0.682-3.078-3.76V223.241
		L37.338,223.241z"/>
	<path fill-rule="evenodd" clip-rule="evenodd" fill="#999B9E" d="M83.507,224.607c0-4.786,4.787-2.394,4.787-5.129
		c0-0.681-0.339-0.681-1.708-0.681c-1.024,0-1.708,0.342-7.18,0.342c-2.397,0-6.156-0.342-8.896-0.342
		c-1.366,0-2.047,0.681-2.047,1.023c0,2.393,7.18,0.685,7.18,6.156v30.436c0,7.868-4.787,4.447-4.787,7.525
		c0,0.343,0.338,0.686,1.366,0.686c3.421,0,6.156-0.343,8.208-0.343c3.078,0,6.841,0.343,16.76,0.343
		c5.125,0,8.888-5.476,8.888-10.604c0-1.023-0.342-1.366-0.685-1.366c-2.394,0-1.708,8.55-17.438,8.55
		c-4.448,0-4.448-2.397-4.448-6.156V224.607L83.507,224.607z"/>
	<path fill-rule="evenodd" clip-rule="evenodd" fill="#999B9E" d="M127.625,226.319c0-4.447,0.339-4.447,8.204-4.447
		c12.313,0,7.184,7.525,10.262,7.525c1.366,0,1.027-2.051,1.027-3.078l-0.343-6.156c0-0.685-0.342-1.365-1.027-1.365
		c-5.813,0-10.258,0.342-14.706,0.342c-9.916,0-14.36-0.342-17.1-0.342c-0.685,0-1.366,0.681-1.366,1.023
		c0,2.735,7.184,0.685,7.184,6.498v30.094c0,7.868-4.791,4.447-4.791,7.525c0,0.343,0.343,0.686,1.366,0.686
		c3.424,0,6.156-0.343,8.211-0.343c3.078,0,6.841,0.343,16.757,0.343c5.129,0,8.892-5.476,8.892-10.604
		c0-1.023-0.343-1.366-0.685-1.366c-2.393,0-1.708,8.55-17.441,8.55c-4.444,0-4.444-2.397-4.444-6.156v-8.55
		c0-3.763,0-4.448,2.736-4.448h4.787c6.499,0,4.787,6.842,6.837,6.842c1.712,0,1.37-2.394,1.027-3.078l-0.343-11.628
		c0-1.708-0.685-1.366-1.023-1.366c-1.37,0-1.712,5.814-7.18,5.814h-4.105c-2.736,0-2.736-0.343-2.736-3.078V226.319
		L127.625,226.319z"/>
	<path fill-rule="evenodd" clip-rule="evenodd" fill="#999B9E" d="M198.758,220.506c0-0.343-0.343-0.343-0.685-0.343
		c-1.027,0-1.027,2.051-2.393,2.051c-1.712,0-6.837-4.102-14.364-4.102c-16.076,0-22.913,14.364-22.913,25.307
		c0,5.129,3.078,21.543,21.543,21.543c13.683,0,20.523-9.915,20.523-12.309c0-0.342-0.685-0.685-1.027-0.685
		c-1.37,0-5.813,8.55-15.733,8.55c-12.313,0-17.438-12.998-17.438-21.886c0-8.893,5.125-17.784,14.702-17.784
		c7.522,0,12.994,5.471,16.072,11.628c0.685,1.023,1.027,2.393,2.055,2.393c1.023,0,0.685-1.712,0.685-2.051L198.758,220.506
		L198.758,220.506z"/>
	<path fill-rule="evenodd" clip-rule="evenodd" fill="#999B9E" d="M227.485,256.074c0,7.522-7.184,4.444-7.184,7.18
		c0,1.37,1.027,1.37,2.054,1.37c2.736,0,4.787-0.343,8.889-0.343c4.448,0,6.499,0.343,8.896,0.343c2.047,0,3.417,0,3.417-1.37
		c0-2.051-8.207,0-8.207-7.864v-29.412c0-3.078,0.342-3.421,3.078-3.421h5.471c7.522,0,5.472,7.184,7.869,7.184
		c1.708,0,1.023-2.735,0.681-3.421l-0.681-5.813c0-0.685,0-1.708-1.031-1.708c-5.81,0-10.258,0.342-19.492,0.342
		c-9.231,0-13.679-0.342-19.493-0.342c-1.023,0-1.023,1.023-1.023,1.708l-1.027,8.207c0,1.027-0.342,2.394,0.685,2.394
		c3.075,0,1.027-8.55,8.208-8.55h5.471c2.736,0,3.421,0.343,3.421,3.421V256.074L227.485,256.074z"/>
	<path fill-rule="evenodd" clip-rule="evenodd" fill="#999B9E" d="M274.677,225.292c0-3.763,2.055-3.763,4.448-3.763
		c6.495,0,9.919,4.79,9.919,11.289c0,3.76-0.346,7.18-9.919,7.18c-2.055,0-4.448,0-4.448-1.365V225.292L274.677,225.292z
		 M266.812,255.39c0,8.207-5.129,5.813-5.129,7.864c0,1.37,1.366,1.37,2.051,1.37c3.078,0,6.499-0.343,9.919-0.343
		c2.394,0,4.444,0.343,5.472,0.343c1.37,0,1.708-0.343,1.708-1.027c0-2.394-6.157,0.342-6.157-6.499v-11.285
		c0-2.394-0.338-2.736,3.079-2.736c3.078,0,4.105,0.686,5.813,3.421l5.129,10.258c2.054,3.764,4.105,7.869,9.234,7.869
		c2.393,0,6.841-1.37,6.841-3.421c0-0.685-0.343-1.027-1.024-1.027c-0.685,0-1.37,0.343-2.054,0.343c-0.343,0-1.708,0-2.051-1.027
		c-4.79-8.207-10.262-17.442-10.262-17.78c0-0.686,2.055-1.37,3.763-2.736c2.055-1.712,3.763-4.105,3.763-8.211
		c0-2.735-1.37-11.966-15.391-11.966c-4.102,0-8.549,0.342-12.651,0.342c-4.105,0-4.79-0.342-7.526-0.342
		c-0.685,0-1.37,0.342-1.37,1.023c0,2.393,6.841,0,6.841,7.184V255.39L266.812,255.39z"/>
	<path fill-rule="evenodd" clip-rule="evenodd" fill="#999B9E" d="M312.296,243.076c0,13.337,8.554,21.886,21.543,21.886
		c20.524,0,24.287-15.729,24.287-24.964c0-13.679-9.581-21.886-21.89-21.886C320.85,218.451,312.296,229.056,312.296,243.076
		L312.296,243.076z M320.165,239.313c0-9.23,3.078-18.123,14.021-18.465c8.204,0,16.072,7.522,16.072,21.886
		c0,10.601-3.759,19.149-14.703,19.492C324.266,262.227,320.165,248.891,320.165,239.313L320.165,239.313z"/>
	<path fill-rule="evenodd" clip-rule="evenodd" fill="#999B9E" d="M373.171,255.731c0,6.495-6.157,5.472-6.157,7.865
		c0,1.365,1.37,1.027,2.055,1.027c1.708,0,3.417-0.343,5.472-0.343c2.051,0,4.444,0.343,7.522,0.343c0.681,0,2.393,0,2.393-1.027
		c0-3.078-8.207,1.365-8.207-10.943v-21.89c0-0.681,0-1.023,0.685-1.023c0,0,0.685,0.343,1.024,0.685l30.778,33.514
		c0.346,0.686,0.688,1.023,1.712,1.023c0.685,0,0.685-0.681,0.685-2.051v-36.249c0-6.499,5.471-5.133,5.471-7.184
		c0,0,0-0.681-1.37-0.681c-0.681,0-2.736,0.342-6.837,0.342c-4.448,0-6.156-0.342-7.184-0.342c-1.023,0-1.023,0.681-1.023,1.023
		c0,2.051,7.865,1.027,7.865,6.841v21.544c0,1.712-0.343,2.393-0.685,2.393s-1.023-0.681-2.051-1.708l-25.649-28.385
		c-1.027-1.366-0.342-1.708-2.397-1.708c-3.417,0-5.125,0.342-6.495,0.342s-2.393-0.342-3.763-0.342
		c-0.685,0-1.023,0.681-1.023,1.023c0,3.078,7.18-1.023,7.18,11.285V255.731L373.171,255.731z"/>
	<path fill-rule="evenodd" clip-rule="evenodd" fill="#999B9E" d="M440.202,225.635c0-6.156,4.787-3.763,4.787-5.813
		c0-1.023-0.342-1.023-2.051-1.023c-3.763,0-6.156,0.342-8.207,0.342c-2.397,0-4.791-0.342-7.526-0.342
		c-0.342,0-2.051-0.347-2.051,1.023c0,2.051,7.18,0.342,7.18,6.156v31.12c0,6.156-4.444,4.448-4.444,6.499
		c0,0.342,0,1.027,0.685,1.027c1.708,0,4.444-0.343,7.18-0.343c4.79,0,7.184,0.343,9.577,0.343c1.366,0,2.051-0.343,2.051-1.027
		c0-2.051-7.18,0.685-7.18-7.184V225.635L440.202,225.635z"/>
	<path fill-rule="evenodd" clip-rule="evenodd" fill="#999B9E" d="M495.943,220.506c0-0.343-0.685-0.343-1.023-0.343
		c-0.685,0-0.685,2.051-2.055,2.051c-2.051,0-6.837-4.102-14.706-4.102c-16.071,0-22.57,14.364-22.57,25.307
		c0,5.129,3.078,21.543,21.547,21.543c13.679,0,20.521-9.915,20.521-12.309c0-0.342-0.686-0.685-1.027-0.685
		c-1.709,0-5.814,8.55-15.733,8.55c-12.31,0-17.442-12.998-17.442-21.886c0-8.893,5.133-17.784,14.706-17.784
		c7.184,0,12.998,5.471,16.076,11.628c0.685,1.023,1.023,2.393,2.051,2.393s0.685-1.712,0.685-2.051L495.943,220.506
		L495.943,220.506z"/>
	<path fill-rule="evenodd" clip-rule="evenodd" fill="#999B9E" d="M547.926,243.419c-1.365,0-2.393,0.343-2.393-0.343
		c0-1.027,0.685-2.051,1.027-2.735l5.129-12.313c0.342-0.682,0.685-1.023,0.685-1.023c0.343,0,0.343,0,0.682,0.681l5.813,12.655
		c0.343,0.685,0.685,1.708,0.685,2.735c0,0.686-1.027,0.343-2.393,0.343H547.926L547.926,243.419z M559.554,247.182
		c1.709,0,2.051,0.682,4.448,6.153c0.681,2.055,1.023,3.42,1.023,4.79c0,4.444-4.786,3.421-4.786,5.472
		c0,1.027,1.023,1.027,2.051,1.027c2.055,0,4.79-0.343,7.522-0.343c4.79,0,6.498,0.343,9.234,0.343c1.712,0,2.393,0,2.393-1.027
		c0-2.394-3.759,0.342-6.152-4.791l-18.469-42.748c-1.027-2.051-1.027-2.051-1.709-2.051c-1.027,0-1.369,1.37-1.712,2.394
		l-18.808,42.405c-1.712,3.764-5.129,3.421-5.129,4.791c0,1.027,1.023,1.027,2.051,1.027c2.051,0,3.763-0.343,6.156-0.343
		c2.051,0,4.102,0.343,6.495,0.343c1.37,0,3.421,0.338,3.421-1.027c0-2.051-7.522-0.686-7.522-5.814c0-1.708,1.023-4.105,1.37-5.471
		c1.708-4.791,3.074-5.13,4.443-5.13H559.554L559.554,247.182z"/>
	<path fill-rule="evenodd" clip-rule="evenodd" fill="#999B9E" d="M602.645,225.292c0-3.763,2.051-3.763,4.444-3.763
		c6.156,0,9.919,4.79,9.919,11.289c0,3.76-0.342,7.18-10.258,7.18c-1.712,0-4.105,0-4.105-1.365V225.292L602.645,225.292z
		 M594.779,255.39c0,8.207-5.129,5.813-5.129,7.864c0,1.37,1.366,1.37,2.051,1.37c3.078,0,6.156-0.343,9.577-0.343
		c2.736,0,4.444,0.343,5.811,0.343c1.369,0,1.712-0.343,1.712-1.027c0-2.394-6.156,0.342-6.156-6.499v-11.285
		c0-2.394-0.343-2.736,3.078-2.736c3.078,0,4.105,0.686,5.813,3.421l5.13,10.258c2.055,3.764,4.105,7.869,9.234,7.869
		c2.393,0,6.837-1.37,6.837-3.421c0-0.685-0.339-1.027-1.023-1.027s-1.37,0.343-2.051,0.343c-0.343,0-1.712,0-2.055-1.027
		c-4.786-8.207-10.258-17.442-10.258-17.78c0-0.686,2.051-1.37,3.763-2.736c1.709-1.712,3.76-4.105,3.76-8.211
		c0-2.735-1.366-11.966-15.388-11.966c-4.105,0-8.549,0.342-12.997,0.342c-3.763,0-4.444-0.342-7.18-0.342
		c-1.027,0-1.713,0.342-1.713,1.023c0,2.393,7.184,0,7.184,7.184V255.39L594.779,255.39z"/>
	<path fill-rule="evenodd" clip-rule="evenodd" fill="#999B9E" d="M653.258,256.074c0,7.522-7.181,4.444-7.181,7.18
		c0,1.37,1.023,1.37,2.051,1.37c2.736,0,4.791-0.343,8.893-0.343c4.444,0,6.499,0.343,8.892,0.343c2.051,0,3.421,0,3.421-1.37
		c0-2.051-8.207,0-8.207-7.864v-29.412c0-3.078,0.681-3.421,3.078-3.421h5.472c7.522,0,5.471,7.184,7.864,7.184
		c1.709,0,1.027-2.735,0.685-3.421l-0.685-5.813c0-0.685,0-1.708-1.027-1.708c-5.813,0-9.915,0.342-19.492,0.342
		c-9.234,0-13.679-0.342-19.492-0.342c-1.027,0-1.027,1.023-1.027,1.708l-1.024,8.207c0,1.027-0.342,2.394,1.024,2.394
		c2.735,0,0.685-8.55,7.868-8.55h5.472c2.735,0,3.417,0.343,3.417,3.421V256.074L653.258,256.074z"/>
	<path fill-rule="evenodd" clip-rule="evenodd" fill="#999B9E" d="M690.534,260.176c0.343,1.37,0.343,2.051,2.055,2.394
		c3.759,0.685,6.837,2.393,10.601,2.393c8.549,0,14.363-5.813,14.363-14.363c0-8.207-4.105-10.942-10.943-14.021
		c-8.549-3.76-12.313-4.444-12.313-8.893c0-4.102,3.078-6.837,7.184-6.837c10.943,0,11.967,12.309,13.336,12.309
		c1.709,0,1.709-1.023,1.709-2.394l-0.682-8.55c-0.342-1.708,0-2.393-1.027-2.393c-0.685,0-2.393,1.027-3.078,1.027
		c-2.051,0-4.786-2.736-9.919-2.736c-7.522,0-12.651,5.472-12.651,12.994c0,6.841,3.763,9.234,9.234,11.628
		c10.258,4.786,14.363,5.472,14.363,10.942c0,5.129-3.763,8.207-8.892,8.207c-7.184,0-10.943-5.81-12.997-11.966
		c-0.343-0.685-0.343-1.37-1.366-1.37c-1.713,0-1.027,1.712-1.027,2.736L690.534,260.176L690.534,260.176z"/>
	<path fill-rule="evenodd" clip-rule="evenodd" fill="#999B9E" d="M736.703,224.607l2.393-6.837h2.74v9.234h-1.713v-7.526l0,0
		l-3.078,7.526h-1.027l-2.731-7.526l0,0v7.526h-1.713v-9.234h2.394L736.703,224.607L736.703,224.607z M729.865,219.14h-2.735v7.865
		h-1.713v-7.865h-2.735v-1.369h7.184V219.14L729.865,219.14z"/>
</g>
</svg>
