<?xml version="1.0" encoding="utf-8"?>
<!-- Generator: Adobe Illustrator 22.1.0, SVG Export Plug-In . SVG Version: 6.00 Build 0)  -->
<svg version="1.1" id="Layer_1" xmlns="http://www.w3.org/2000/svg" xmlns:xlink="http://www.w3.org/1999/xlink" x="0px" y="0px"
	 viewBox="0 0 512 512" style="enable-background:new 0 0 512 512;" xml:space="preserve">
<style type="text/css">
	.st0{display:none;fill:#FFFFFF;}
	.st1{fill:none;stroke:#ABABAB;stroke-width:4;stroke-miterlimit:10;}
	.st2{display:none;fill:#FFFFFF;stroke:#ABABAB;stroke-miterlimit:10;}
	.st3{display:none;fill:none;stroke:#ABABAB;stroke-width:4;stroke-miterlimit:10;}
	.st4{display:none;fill:#FFFFFF;stroke:#000000;stroke-miterlimit:10;}
</style>
<circle id="Sun" class="st0" cx="256" cy="256" r="12"/>
<circle id="_x31_" class="st1" cx="256" cy="256" r="50"/>
<circle class="st2" cx="256" cy="206" r="12"/>
<circle id="_x32_" class="st3" cx="256" cy="256" r="75"/>
<circle class="st2" cx="256" cy="181" r="12"/>
<circle id="_x33_" class="st3" cx="256" cy="256" r="100"/>
<path id="Arth_2_" class="st2" d="M268,156c0,6.6-5.4,12-12,12s-12-5.4-12-12s5.4-12,12-12S268,149.4,268,156z M256,148
	c-4.4,0-8,3.6-8,8s3.6,8,8,8s8-3.6,8-8S260.4,148,256,148z"/>
<circle class="st2" cx="256" cy="156" r="12"/>
<circle id="_x34_" class="st3" cx="256" cy="256" r="125"/>
<circle class="st2" cx="256" cy="131" r="12"/>
<circle id="_x35_" class="st3" cx="256" cy="256" r="150"/>
<circle class="st2" cx="256" cy="106" r="12"/>
<circle id="_x36_" class="st3" cx="256" cy="256" r="175"/>
<circle class="st2" cx="256" cy="81" r="12"/>
<circle id="_x37_" class="st3" cx="256" cy="256" r="200"/>
<circle class="st2" cx="256" cy="56" r="12"/>
<circle id="_x38_" class="st3" cx="256" cy="256" r="225"/>
<circle class="st2" cx="256" cy="31" r="12"/>
<circle class="st4" cx="450" cy="450" r="5"/>
</svg>
