  0
SECTION
  2
HEADER
  9
$ACADVER
  1
AC1024
  9
$ACADMAINTVER
 70
     6
  9
$DWGCODEPAGE
  3
ANSI_1252
  9
$INSBASE
 10
0.0
 20
0.0
 30
0.0
  9
$EXTMIN
 10
1.000000000000000E+20
 20
1.000000000000000E+20
 30
1.000000000000000E+20
  9
$EXTMAX
 10
-1.000000000000000E+20
 20
-1.000000000000000E+20
 30
-1.000000000000000E+20
  9
$LIMMIN
 10
0.0
 20
0.0
  9
$LIMMAX
 10
12.0
 20
9.0
  9
$ORTHOMODE
 70
     0
  9
$REGENMODE
 70
     1
  9
$FILLMODE
 70
     1
  9
$QTEXTMODE
 70
     0
  9
$MIRRTEXT
 70
     1
  9
$LTSCALE
 40
1.0
  9
$ATTMODE
 70
     1
  9
$TEXTSIZE
 40
0.2
  9
$TRACEWID
 40
0.05
  9
$TEXTSTYLE
  7
Standard
  9
$CLAYER
  8
0
  9
$CELTYPE
  6
ByLayer
  9
$CECOLOR
 62
   256
  9
$CELTSCALE
 40
1.0
  9
$DISPSILH
 70
     0
  9
$DIMSCALE
 40
1.0
  9
$DIMASZ
 40
0.18
  9
$DIMEXO
 40
0.0625
  9
$DIMDLI
 40
0.38
  9
$DIMRND
 40
0.0
  9
$DIMDLE
 40
0.0
  9
$DIMEXE
 40
0.18
  9
$DIMTP
 40
0.0
  9
$DIMTM
 40
0.0
  9
$DIMTXT
 40
0.18
  9
$DIMCEN
 40
0.09
  9
$DIMTSZ
 40
0.0
  9
$DIMTOL
 70
     0
  9
$DIMLIM
 70
     0
  9
$DIMTIH
 70
     1
  9
$DIMTOH
 70
     1
  9
$DIMSE1
 70
     0
  9
$DIMSE2
 70
     0
  9
$DIMTAD
 70
     0
  9
$DIMZIN
 70
     0
  9
$DIMBLK
  1

  9
$DIMASO
 70
     1
  9
$DIMSHO
 70
     1
  9
$DIMPOST
  1

  9
$DIMAPOST
  1

  9
$DIMALT
 70
     0
  9
$DIMALTD
 70
     2
  9
$DIMALTF
 40
25.4
  9
$DIMLFAC
 40
1.0
  9
$DIMTOFL
 70
     0
  9
$DIMTVP
 40
0.0
  9
$DIMTIX
 70
     0
  9
$DIMSOXD
 70
     0
  9
$DIMSAH
 70
     0
  9
$DIMBLK1
  1

  9
$DIMBLK2
  1

  9
$DIMSTYLE
  2
Standard
  9
$DIMCLRD
 70
     0
  9
$DIMCLRE
 70
     0
  9
$DIMCLRT
 70
     0
  9
$DIMTFAC
 40
1.0
  9
$DIMGAP
 40
0.09
  9
$DIMJUST
 70
     0
  9
$DIMSD1
 70
     0
  9
$DIMSD2
 70
     0
  9
$DIMTOLJ
 70
     1
  9
$DIMTZIN
 70
     0
  9
$DIMALTZ
 70
     0
  9
$DIMALTTZ
 70
     0
  9
$DIMUPT
 70
     0
  9
$DIMDEC
 70
     4
  9
$DIMTDEC
 70
     4
  9
$DIMALTU
 70
     2
  9
$DIMALTTD
 70
     2
  9
$DIMTXSTY
  7
Standard
  9
$DIMAUNIT
 70
     0
  9
$DIMADEC
 70
     0
  9
$DIMALTRND
 40
0.0
  9
$DIMAZIN
 70
     0
  9
$DIMDSEP
 70
    46
  9
$DIMATFIT
 70
     3
  9
$DIMFRAC
 70
     0
  9
$DIMLDRBLK
  1

  9
$DIMLUNIT
 70
     2
  9
$DIMLWD
 70
    -2
  9
$DIMLWE
 70
    -2
  9
$DIMTMOVE
 70
     0
  9
$DIMFXL
 40
1.0
  9
$DIMFXLON
 70
     0
  9
$DIMJOGANG
 40
0.7853981633974483
  9
$DIMTFILL
 70
     0
  9
$DIMTFILLCLR
 70
     0
  9
$DIMARCSYM
 70
     0
  9
$DIMLTYPE
  6

  9
$DIMLTEX1
  6

  9
$DIMLTEX2
  6

  9
$DIMTXTDIRECTION
 70
     0
  9
$LUNITS
 70
     2
  9
$LUPREC
 70
     4
  9
$SKETCHINC
 40
0.1
  9
$FILLETRAD
 40
0.5
  9
$AUNITS
 70
     0
  9
$AUPREC
 70
     0
  9
$MENU
  1
.
  9
$ELEVATION
 40
0.0
  9
$PELEVATION
 40
0.0
  9
$THICKNESS
 40
0.0
  9
$LIMCHECK
 70
     0
  9
$CHAMFERA
 40
0.5
  9
$CHAMFERB
 40
0.5
  9
$CHAMFERC
 40
1.0
  9
$CHAMFERD
 40
0.0
  9
$SKPOLY
 70
     0
  9
$TDCREATE
 40
2458367.77239
  9
$TDUCREATE
 40
2458368.064056667
  9
$TDUPDATE
 40
2458367.772390162
  9
$TDUUPDATE
 40
2458368.064056829
  9
$TDINDWG
 40
0.0000000116
  9
$TDUSRTIMER
 40
0.0000000116
  9
$USRTIMER
 70
     1
  9
$ANGBASE
 50
0.0
  9
$ANGDIR
 70
     0
  9
$PDMODE
 70
     0
  9
$PDSIZE
 40
0.0
  9
$PLINEWID
 40
0.0
  9
$SPLFRAME
 70
     0
  9
$SPLINETYPE
 70
     6
  9
$SPLINESEGS
 70
     8
  9
$HANDSEED
  5
135
  9
$SURFTAB1
 70
     6
  9
$SURFTAB2
 70
     6
  9
$SURFTYPE
 70
     6
  9
$SURFU
 70
     6
  9
$SURFV
 70
     6
  9
$UCSBASE
  2

  9
$UCSNAME
  2

  9
$UCSORG
 10
0.0
 20
0.0
 30
0.0
  9
$UCSXDIR
 10
1.0
 20
0.0
 30
0.0
  9
$UCSYDIR
 10
0.0
 20
1.0
 30
0.0
  9
$UCSORTHOREF
  2

  9
$UCSORTHOVIEW
 70
     0
  9
$UCSORGTOP
 10
0.0
 20
0.0
 30
0.0
  9
$UCSORGBOTTOM
 10
0.0
 20
0.0
 30
0.0
  9
$UCSORGLEFT
 10
0.0
 20
0.0
 30
0.0
  9
$UCSORGRIGHT
 10
0.0
 20
0.0
 30
0.0
  9
$UCSORGFRONT
 10
0.0
 20
0.0
 30
0.0
  9
$UCSORGBACK
 10
0.0
 20
0.0
 30
0.0
  9
$PUCSBASE
  2

  9
$PUCSNAME
  2

  9
$PUCSORG
 10
0.0
 20
0.0
 30
0.0
  9
$PUCSXDIR
 10
1.0
 20
0.0
 30
0.0
  9
$PUCSYDIR
 10
0.0
 20
1.0
 30
0.0
  9
$PUCSORTHOREF
  2

  9
$PUCSORTHOVIEW
 70
     0
  9
$PUCSORGTOP
 10
0.0
 20
0.0
 30
0.0
  9
$PUCSORGBOTTOM
 10
0.0
 20
0.0
 30
0.0
  9
$PUCSORGLEFT
 10
0.0
 20
0.0
 30
0.0
  9
$PUCSORGRIGHT
 10
0.0
 20
0.0
 30
0.0
  9
$PUCSORGFRONT
 10
0.0
 20
0.0
 30
0.0
  9
$PUCSORGBACK
 10
0.0
 20
0.0
 30
0.0
  9
$USERI1
 70
     0
  9
$USERI2
 70
     0
  9
$USERI3
 70
     0
  9
$USERI4
 70
     0
  9
$USERI5
 70
     0
  9
$USERR1
 40
0.0
  9
$USERR2
 40
0.0
  9
$USERR3
 40
0.0
  9
$USERR4
 40
0.0
  9
$USERR5
 40
0.0
  9
$WORLDVIEW
 70
     1
  9
$SHADEDGE
 70
     3
  9
$SHADEDIF
 70
    70
  9
$TILEMODE
 70
     1
  9
$MAXACTVP
 70
    64
  9
$PINSBASE
 10
0.0
 20
0.0
 30
0.0
  9
$PLIMCHECK
 70
     0
  9
$PEXTMIN
 10
1.000000000000000E+20
 20
1.000000000000000E+20
 30
1.000000000000000E+20
  9
$PEXTMAX
 10
-1.000000000000000E+20
 20
-1.000000000000000E+20
 30
-1.000000000000000E+20
  9
$PLIMMIN
 10
0.0
 20
0.0
  9
$PLIMMAX
 10
12.0
 20
9.0
  9
$UNITMODE
 70
     0
  9
$VISRETAIN
 70
     1
  9
$PLINEGEN
 70
     0
  9
$PSLTSCALE
 70
     1
  9
$TREEDEPTH
 70
  3020
  9
$CMLSTYLE
  2
Standard
  9
$CMLJUST
 70
     0
  9
$CMLSCALE
 40
1.0
  9
$PROXYGRAPHICS
 70
     1
  9
$MEASUREMENT
 70
     0
  9
$CELWEIGHT
370
    -1
  9
$ENDCAPS
280
     0
  9
$JOINSTYLE
280
     0
  9
$LWDISPLAY
290
     1
  9
$INSUNITS
 70
     1
  9
$HYPERLINKBASE
  1

  9
$STYLESHEET
  1

  9
$XEDIT
290
     1
  9
$CEPSNTYPE
380
     0
  9
$PSTYLEMODE
290
     1
  9
$FINGERPRINTGUID
  2
{99B4AFAE-0833-466E-A81B-2CBC3AD125A0}
  9
$VERSIONGUID
  2
{FAEB1C32-E019-11D5-929B-00C0DF256EC4}
  9
$EXTNAMES
290
     1
  9
$PSVPSCALE
 40
0.0
  9
$OLESTARTUP
290
     0
  9
$SORTENTS
280
   127
  9
$INDEXCTL
280
     0
  9
$HIDETEXT
280
     1
  9
$XCLIPFRAME
280
     2
  9
$HALOGAP
280
     0
  9
$OBSCOLOR
 70
   257
  9
$OBSLTYPE
280
     0
  9
$INTERSECTIONDISPLAY
280
     0
  9
$INTERSECTIONCOLOR
 70
   257
  9
$DIMASSOC
280
     2
  9
$PROJECTNAME
  1

  9
$CAMERADISPLAY
290
     0
  9
$LENSLENGTH
 40
50.0
  9
$CAMERAHEIGHT
 40
0.0
  9
$STEPSPERSEC
 40
2.0
  9
$STEPSIZE
 40
6.0
  9
$3DDWFPREC
 40
2.0
  9
$PSOLWIDTH
 40
0.25
  9
$PSOLHEIGHT
 40
4.0
  9
$LOFTANG1
 40
1.570796326794897
  9
$LOFTANG2
 40
1.570796326794897
  9
$LOFTMAG1
 40
0.0
  9
$LOFTMAG2
 40
0.0
  9
$LOFTPARAM
 70
     7
  9
$LOFTNORMALS
280
     1
  9
$LATITUDE
 40
37.795
  9
$LONGITUDE
 40
-122.394
  9
$NORTHDIRECTION
 40
0.0
  9
$TIMEZONE
 70
 -8000
  9
$LIGHTGLYPHDISPLAY
280
     1
  9
$TILEMODELIGHTSYNCH
280
     1
  9
$CMATERIAL
347
3C
  9
$SOLIDHIST
280
     1
  9
$SHOWHIST
280
     1
  9
$DWFFRAME
280
     2
  9
$DGNFRAME
280
     2
  9
$REALWORLDSCALE
290
     1
  9
$INTERFERECOLOR
 62
   256
  9
$CSHADOW
280
     0
  9
$SHADOWPLANELOCATION
 40
0.0
  0
ENDSEC
  0
SECTION
  2
CLASSES
  0
CLASS
  1
ACDBDICTIONARYWDFLT
  2
AcDbDictionaryWithDefault
  3
ObjectDBX Classes
 90
        0
 91
        4
280
     0
281
     0
  0
CLASS
  1
VISUALSTYLE
  2
AcDbVisualStyle
  3
ObjectDBX Classes
 90
     4095
 91
        4
280
     0
281
     0
  0
CLASS
  1
MATERIAL
  2
AcDbMaterial
  3
ObjectDBX Classes
 90
     1153
 91
        4
280
     0
281
     0
  0
CLASS
  1
SUN
  2
AcDbSun
  3
SCENEOE
 90
     1024
 91
        4
280
     0
281
     0
  0
ENDSEC
  0
SECTION
  2
TABLES
  0
TABLE
  2
VPORT
  5
8
330
0
100
AcDbSymbolTable
 70
     1
  0
VPORT
  5
29
330
8
100
AcDbSymbolTableRecord
100
AcDbViewportTableRecord
  2
*Active
 70
     0
 10
0.0
 20
0.0
 11
1.0
 21
1.0
 12
0.0
 22
0.0
 13
0.0
 23
0.0
 14
0.5
 24
0.5
 15
0.5
 25
0.5
 16
0.0
 26
0.0
 36
1.0
 17
125.0
 27
110.0
 37
0.0
 40
220.0
 41
1.136363636363636
 42
50.0
 43
0.0
 44
0.0
 50
0.0
 51
0.0
 71
     0
 72
   100
 73
     1
 74
     3
 75
     0
 76
     0
 77
     0
 78
     0
281
     0
 65
     1
110
0.0
120
0.0
130
0.0
111
1.0
121
0.0
131
0.0
112
0.0
122
1.0
132
0.0
 79
     0
146
0.0
 60
     3
 61
     5
292
     1
282
     1
141
0.0
142
0.0
 63
   250
361
3F
  0
ENDTAB
  0
TABLE
  2
LTYPE
  5
5
330
0
100
AcDbSymbolTable
 70
     1
  0
LTYPE
  5
14
330
5
100
AcDbSymbolTableRecord
100
AcDbLinetypeTableRecord
  2
ByBlock
 70
     0
  3

 72
    65
 73
     0
 40
0.0
  0
LTYPE
  5
15
330
5
100
AcDbSymbolTableRecord
100
AcDbLinetypeTableRecord
  2
ByLayer
 70
     0
  3

 72
    65
 73
     0
 40
0.0
  0
LTYPE
  5
16
330
5
100
AcDbSymbolTableRecord
100
AcDbLinetypeTableRecord
  2
Continuous
 70
     0
  3
Solid line
 72
    65
 73
     0
 40
0.0
  0
ENDTAB
  0
TABLE
  2
LAYER
  5
2
330
0
100
AcDbSymbolTable
 70
    24
  0
LAYER
  5
10
330
2
100
AcDbSymbolTableRecord
100
AcDbLayerTableRecord
  2
0
 70
     0
 62
     7
  6
Continuous
370
    -3
390
F
347
3E
  0
LAYER
  5
40
330
2
100
AcDbSymbolTableRecord
100
AcDbLayerTableRecord
  2
Background
 70
     5
 62
     7
  6
Continuous
370
    -3
390
F
347
3E
  0
LAYER
  5
41
330
2
100
AcDbSymbolTableRecord
100
AcDbLayerTableRecord
  2
Grid
 70
     5
 62
     7
  6
Continuous
370
    -3
390
F
347
3E
  0
LAYER
  5
42
330
2
100
AcDbSymbolTableRecord
100
AcDbLayerTableRecord
  2
POIs
 70
     5
 62
     7
  6
Continuous
370
    -3
390
F
347
3E
  0
LAYER
  5
43
330
2
100
AcDbSymbolTableRecord
100
AcDbLayerTableRecord
  2
Mechans
 70
     5
 62
     7
  6
Continuous
370
    -3
390
F
347
3E
  0
LAYER
  5
44
330
2
100
AcDbSymbolTableRecord
100
AcDbLayerTableRecord
  2
Thrynn
 70
     5
 62
     7
  6
Continuous
370
    -3
390
F
347
3E
  0
LAYER
  5
45
330
2
100
AcDbSymbolTableRecord
100
AcDbLayerTableRecord
  2
Elowan
 70
     5
 62
     7
  6
Continuous
370
    -3
390
F
347
3E
  0
LAYER
  5
46
330
2
100
AcDbSymbolTableRecord
100
AcDbLayerTableRecord
  2
Veloxi
 70
     5
 62
     7
  6
Continuous
370
    -3
390
F
347
3E
  0
LAYER
  5
47
330
2
100
AcDbSymbolTableRecord
100
AcDbLayerTableRecord
  2
Spemin
 70
     5
 62
     7
  6
Continuous
370
    -3
390
F
347
3E
  0
LAYER
  5
48
330
2
100
AcDbSymbolTableRecord
100
AcDbLayerTableRecord
  2
Gazurtoid
 70
     5
 62
     7
  6
Continuous
370
    -3
390
F
347
3E
  0
LAYER
  5
49
330
2
100
AcDbSymbolTableRecord
100
AcDbLayerTableRecord
  2
Uhlek
 70
     5
 62
     7
  6
Continuous
370
    -3
390
F
347
3E
  0
LAYER
  5
4A
330
2
100
AcDbSymbolTableRecord
100
AcDbLayerTableRecord
  2
Territories
 70
     1
 62
     7
  6
Continuous
370
    -3
390
F
347
3E
  0
LAYER
  5
4B
330
2
100
AcDbSymbolTableRecord
100
AcDbLayerTableRecord
  2
Class O Systems
 70
     5
 62
     7
  6
Continuous
370
    -3
390
F
347
3E
  0
LAYER
  5
4C
330
2
100
AcDbSymbolTableRecord
100
AcDbLayerTableRecord
  2
Class B Systems
 70
     5
 62
     7
  6
Continuous
370
    -3
390
F
347
3E
  0
LAYER
  5
4D
330
2
100
AcDbSymbolTableRecord
100
AcDbLayerTableRecord
  2
Class A Systems
 70
     5
 62
     7
  6
Continuous
370
    -3
390
F
347
3E
  0
LAYER
  5
4E
330
2
100
AcDbSymbolTableRecord
100
AcDbLayerTableRecord
  2
Class F Systems
 70
     5
 62
     7
  6
Continuous
370
    -3
390
F
347
3E
  0
LAYER
  5
4F
330
2
100
AcDbSymbolTableRecord
100
AcDbLayerTableRecord
  2
Class G Systems
 70
     5
 62
     7
  6
Continuous
370
    -3
390
F
347
3E
  0
LAYER
  5
50
330
2
100
AcDbSymbolTableRecord
100
AcDbLayerTableRecord
  2
Class K Systems
 70
     5
 62
     7
  6
Continuous
370
    -3
390
F
347
3E
  0
LAYER
  5
51
330
2
100
AcDbSymbolTableRecord
100
AcDbLayerTableRecord
  2
Class M Systems
 70
     5
 62
     7
  6
Continuous
370
    -3
390
F
347
3E
  0
LAYER
  5
52
330
2
100
AcDbSymbolTableRecord
100
AcDbLayerTableRecord
  2
Nebulae
 70
     0
 62
     7
  6
Continuous
370
    -3
390
F
347
3E
  0
LAYER
  5
12F
330
2
100
AcDbSymbolTableRecord
100
AcDbLayerTableRecord
  2
Fluxes
 70
     5
 62
     7
  6
Continuous
370
    -3
390
F
347
3E
  0
LAYER
  5
130
330
2
100
AcDbSymbolTableRecord
100
AcDbLayerTableRecord
  2
Original
 70
     5
 62
     7
  6
Continuous
370
    -3
390
F
347
3E
  0
LAYER
  5
131
330
2
100
AcDbSymbolTableRecord
100
AcDbLayerTableRecord
  2
Frame
 70
     5
 62
     7
  6
Continuous
370
    -3
390
F
347
3E
  0
LAYER
  5
132
330
2
100
AcDbSymbolTableRecord
100
AcDbLayerTableRecord
  2
Text
 70
     5
 62
     7
  6
Continuous
370
    -3
390
F
347
3E
  0
ENDTAB
  0
TABLE
  2
STYLE
  5
3
330
0
100
AcDbSymbolTable
 70
     1
  0
STYLE
  5
11
330
3
100
AcDbSymbolTableRecord
100
AcDbTextStyleTableRecord
  2
Standard
 70
     0
 40
0.0
 41
1.0
 50
0.0
 71
     0
 42
0.2
  3
txt
  4

  0
ENDTAB
  0
TABLE
  2
VIEW
  5
6
330
0
100
AcDbSymbolTable
 70
     0
  0
ENDTAB
  0
TABLE
  2
UCS
  5
7
330
0
100
AcDbSymbolTable
 70
     0
  0
ENDTAB
  0
TABLE
  2
APPID
  5
9
330
0
100
AcDbSymbolTable
 70
     1
  0
APPID
  5
12
330
9
100
AcDbSymbolTableRecord
100
AcDbRegAppTableRecord
  2
ACAD
 70
     0
  0
ENDTAB
  0
TABLE
  2
DIMSTYLE
  5
A
330
0
100
AcDbSymbolTable
 70
     1
100
AcDbDimStyleTable
  0
DIMSTYLE
105
27
330
A
100
AcDbSymbolTableRecord
100
AcDbDimStyleTableRecord
  2
Standard
 70
     0
178
     0
340
11
  0
ENDTAB
  0
TABLE
  2
BLOCK_RECORD
  5
1
330
0
100
AcDbSymbolTable
 70
    21
  0
BLOCK_RECORD
  5
1F
330
1
100
AcDbSymbolTableRecord
100
AcDbBlockTableRecord
  2
*Model_Space
340
22
 70
     0
280
     1
281
     0
  0
BLOCK_RECORD
  5
1B
330
1
100
AcDbSymbolTableRecord
100
AcDbBlockTableRecord
  2
*Paper_Space
340
1E
 70
     0
280
     1
281
     0
  0
BLOCK_RECORD
  5
23
330
1
100
AcDbSymbolTableRecord
100
AcDbBlockTableRecord
  2
*Paper_Space0
340
26
 70
     0
280
     1
281
     0
  0
BLOCK_RECORD
  5
53
330
1
100
AcDbSymbolTableRecord
100
AcDbBlockTableRecord
  2
block 2
340
0
102
{BLKREFS
331
54
102
}
 70
     0
280
     1
281
     0
  0
BLOCK_RECORD
  5
57
330
1
100
AcDbSymbolTableRecord
100
AcDbBlockTableRecord
  2
block 3
340
0
102
{BLKREFS
331
58
102
}
 70
     0
280
     1
281
     0
  0
BLOCK_RECORD
  5
5B
330
1
100
AcDbSymbolTableRecord
100
AcDbBlockTableRecord
  2
block 4
340
0
102
{BLKREFS
331
5C
102
}
 70
     0
280
     1
281
     0
  0
BLOCK_RECORD
  5
6D
330
1
100
AcDbSymbolTableRecord
100
AcDbBlockTableRecord
  2
block 5
340
0
102
{BLKREFS
331
6E
102
}
 70
     0
280
     1
281
     0
  0
BLOCK_RECORD
  5
7B
330
1
100
AcDbSymbolTableRecord
100
AcDbBlockTableRecord
  2
block 6
340
0
102
{BLKREFS
331
7C
102
}
 70
     0
280
     1
281
     0
  0
BLOCK_RECORD
  5
85
330
1
100
AcDbSymbolTableRecord
100
AcDbBlockTableRecord
  2
block 7
340
0
102
{BLKREFS
331
86
102
}
 70
     0
280
     1
281
     0
  0
BLOCK_RECORD
  5
97
330
1
100
AcDbSymbolTableRecord
100
AcDbBlockTableRecord
  2
block 8
340
0
102
{BLKREFS
331
98
102
}
 70
     0
280
     1
281
     0
  0
BLOCK_RECORD
  5
9F
330
1
100
AcDbSymbolTableRecord
100
AcDbBlockTableRecord
  2
block 9
340
0
102
{BLKREFS
331
A0
102
}
 70
     0
280
     1
281
     0
  0
BLOCK_RECORD
  5
A7
330
1
100
AcDbSymbolTableRecord
100
AcDbBlockTableRecord
  2
block 10
340
0
102
{BLKREFS
331
A8
102
}
 70
     0
280
     1
281
     0
  0
BLOCK_RECORD
  5
B1
330
1
100
AcDbSymbolTableRecord
100
AcDbBlockTableRecord
  2
block 11
340
0
102
{BLKREFS
331
B2
102
}
 70
     0
280
     1
281
     0
  0
BLOCK_RECORD
  5
C1
330
1
100
AcDbSymbolTableRecord
100
AcDbBlockTableRecord
  2
block 12
340
0
102
{BLKREFS
331
C2
102
}
 70
     0
280
     1
281
     0
  0
BLOCK_RECORD
  5
D3
330
1
100
AcDbSymbolTableRecord
100
AcDbBlockTableRecord
  2
block 13
340
0
102
{BLKREFS
331
D4
102
}
 70
     0
280
     1
281
     0
  0
BLOCK_RECORD
  5
DD
330
1
100
AcDbSymbolTableRecord
100
AcDbBlockTableRecord
  2
block 14
340
0
102
{BLKREFS
331
DE
102
}
 70
     0
280
     1
281
     0
  0
BLOCK_RECORD
  5
E5
330
1
100
AcDbSymbolTableRecord
100
AcDbBlockTableRecord
  2
block 15
340
0
102
{BLKREFS
331
E6
102
}
 70
     0
280
     1
281
     0
  0
BLOCK_RECORD
  5
EF
330
1
100
AcDbSymbolTableRecord
100
AcDbBlockTableRecord
  2
block 16
340
0
102
{BLKREFS
331
F0
102
}
 70
     0
280
     1
281
     0
  0
BLOCK_RECORD
  5
FB
330
1
100
AcDbSymbolTableRecord
100
AcDbBlockTableRecord
  2
block 17
340
0
102
{BLKREFS
331
FC
102
}
 70
     0
280
     1
281
     0
  0
BLOCK_RECORD
  5
103
330
1
100
AcDbSymbolTableRecord
100
AcDbBlockTableRecord
  2
block 18
340
0
102
{BLKREFS
331
104
102
}
 70
     0
280
     1
281
     0
  0
BLOCK_RECORD
  5
111
330
1
100
AcDbSymbolTableRecord
100
AcDbBlockTableRecord
  2
block 19
340
0
102
{BLKREFS
331
112
102
}
 70
     0
280
     1
281
     0
  0
BLOCK_RECORD
  5
11B
330
1
100
AcDbSymbolTableRecord
100
AcDbBlockTableRecord
  2
block 20
340
0
102
{BLKREFS
331
11C
102
}
 70
     0
280
     1
281
     0
  0
BLOCK_RECORD
  5
127
330
1
100
AcDbSymbolTableRecord
100
AcDbBlockTableRecord
  2
block 21
340
0
102
{BLKREFS
331
128
102
}
 70
     0
280
     1
281
     0
  0
ENDTAB
  0
ENDSEC
  0
SECTION
  2
BLOCKS
  0
BLOCK
  5
20
330
1F
100
AcDbEntity
  8
0
100
AcDbBlockBegin
  2
*Model_Space
 70
     0
 10
0.0
 20
0.0
 30
0.0
  3
*Model_Space
  1

  0
ENDBLK
  5
21
330
1F
100
AcDbEntity
  8
0
100
AcDbBlockEnd
  0
BLOCK
  5
1C
330
1B
100
AcDbEntity
 67
     1
  8
0
100
AcDbBlockBegin
  2
*Paper_Space
 70
     0
 10
0.0
 20
0.0
 30
0.0
  3
*Paper_Space
  1

  0
ENDBLK
  5
1D
330
1B
100
AcDbEntity
 67
     1
  8
0
100
AcDbBlockEnd
  0
BLOCK
  5
24
330
23
100
AcDbEntity
  8
0
100
AcDbBlockBegin
  2
*Paper_Space0
 70
     0
 10
0.0
 20
0.0
 30
0.0
  3
*Paper_Space0
  1

  0
ENDBLK
  5
25
330
23
100
AcDbEntity
  8
0
100
AcDbBlockEnd
  0
BLOCK
  5
55
330
53
100
AcDbEntity
  8
0
100
AcDbBlockBegin
  2
block 2
 70
     0
 10
0.0
 20
0.0
 30
0.0
  3
block 2
  1

  0
INSERT
  5
58
330
53
100
AcDbEntity
  8
Nebulae
100
AcDbBlockReference
  2
block 3
 10
0.0
 20
0.0
 30
0.0
  0
ENDBLK
  5
56
330
53
100
AcDbEntity
  8
0
100
AcDbBlockEnd
  0
BLOCK
  5
59
330
57
100
AcDbEntity
  8
0
100
AcDbBlockBegin
  2
block 3
 70
     0
 10
0.0
 20
0.0
 30
0.0
  3
block 3
  1

  0
INSERT
  5
5C
330
57
100
AcDbEntity
  8
Nebulae
100
AcDbBlockReference
  2
block 4
 10
0.0
 20
0.0
 30
0.0
  0
SPLINE
  5
63
330
57
100
AcDbEntity
  8
Nebulae
 62
   253
420
  9874336
370
     9
100
AcDbSpline
210
0.0
220
0.0
230
1.0
 70
    11
 71
     3
 72
    17
 73
    13
 74
     0
 42
0.0000000001
 43
0.0000000001
 12
1.0
 22
0.0
 32
0.0
 13
1.0
 23
0.0
 33
0.0
 40
0.0
 40
0.0
 40
0.0
 40
0.0
 40
1.0
 40
1.0
 40
1.0
 40
2.0
 40
2.0
 40
2.0
 40
3.0
 40
3.0
 40
3.0
 40
4.0
 40
4.0
 40
4.0
 40
4.0
 10
143.0
 20
197.0
 30
0.0
 10
143.0
 20
195.8954305003999
 30
0.0
 10
142.1045694996001
 20
195.0
 30
0.0
 10
141.0
 20
195.0
 30
0.0
 10
139.8954305003999
 20
195.0
 30
0.0
 10
139.0
 20
195.8954305003999
 30
0.0
 10
139.0
 20
197.0
 30
0.0
 10
139.0
 20
198.1045694996001
 30
0.0
 10
139.8954305003999
 20
199.0
 30
0.0
 10
141.0
 20
199.0
 30
0.0
 10
142.1045694996001
 20
199.0
 30
0.0
 10
143.0
 20
198.1045694996001
 30
0.0
 10
143.0
 20
197.0
 30
0.0
  0
HATCH
  5
64
330
57
100
AcDbEntity
  8
Nebulae
 62
   123
420
  8374194
100
AcDbHatch
 10
0.0
 20
0.0
 30
0.0
210
0.0
220
0.0
230
1.0
  2
SOLID
 70
     1
 71
     0
 91
        1
 92
        1
 93
        1
 72
     4
 94
        3
 73
     0
 74
     1
 95
       17
 96
       13
 40
0.0
 40
0.0
 40
0.0
 40
0.0
 40
1.0
 40
1.0
 40
1.0
 40
2.0
 40
2.0
 40
2.0
 40
3.0
 40
3.0
 40
3.0
 40
4.0
 40
4.0
 40
4.0
 40
4.0
 10
143.0
 20
197.0
 10
143.0
 20
195.8954305003999
 10
142.1045694996001
 20
195.0
 10
141.0
 20
195.0
 10
139.8954305003999
 20
195.0
 10
139.0
 20
195.8954305003999
 10
139.0
 20
197.0
 10
139.0
 20
198.1045694996001
 10
139.8954305003999
 20
199.0
 10
141.0
 20
199.0
 10
142.1045694996001
 20
199.0
 10
143.0
 20
198.1045694996001
 10
143.0
 20
197.0
 97
        0
 97
        0
 75
     2
 76
     1
 98
        0
  0
SPLINE
  5
65
330
57
100
AcDbEntity
  8
Nebulae
 62
   253
420
  9874336
370
     9
100
AcDbSpline
210
0.0
220
0.0
230
1.0
 70
    11
 71
     3
 72
    17
 73
    13
 74
     0
 42
0.0000000001
 43
0.0000000001
 12
1.0
 22
0.0
 32
0.0
 13
1.0
 23
0.0
 33
0.0
 40
0.0
 40
0.0
 40
0.0
 40
0.0
 40
1.0
 40
1.0
 40
1.0
 40
2.0
 40
2.0
 40
2.0
 40
3.0
 40
3.0
 40
3.0
 40
4.0
 40
4.0
 40
4.0
 40
4.0
 10
134.0
 20
196.0
 30
0.0
 10
134.0
 20
194.8954305003999
 30
0.0
 10
133.1045694996001
 20
194.0
 30
0.0
 10
132.0
 20
194.0
 30
0.0
 10
130.8954305003999
 20
194.0
 30
0.0
 10
130.0
 20
194.8954305003999
 30
0.0
 10
130.0
 20
196.0
 30
0.0
 10
130.0
 20
197.1045694996001
 30
0.0
 10
130.8954305003999
 20
198.0
 30
0.0
 10
132.0
 20
198.0
 30
0.0
 10
133.1045694996001
 20
198.0
 30
0.0
 10
134.0
 20
197.1045694996001
 30
0.0
 10
134.0
 20
196.0
 30
0.0
  0
HATCH
  5
66
330
57
100
AcDbEntity
  8
Nebulae
 62
   123
420
  8374194
100
AcDbHatch
 10
0.0
 20
0.0
 30
0.0
210
0.0
220
0.0
230
1.0
  2
SOLID
 70
     1
 71
     0
 91
        1
 92
        1
 93
        1
 72
     4
 94
        3
 73
     0
 74
     1
 95
       17
 96
       13
 40
0.0
 40
0.0
 40
0.0
 40
0.0
 40
1.0
 40
1.0
 40
1.0
 40
2.0
 40
2.0
 40
2.0
 40
3.0
 40
3.0
 40
3.0
 40
4.0
 40
4.0
 40
4.0
 40
4.0
 10
134.0
 20
196.0
 10
134.0
 20
194.8954305003999
 10
133.1045694996001
 20
194.0
 10
132.0
 20
194.0
 10
130.8954305003999
 20
194.0
 10
130.0
 20
194.8954305003999
 10
130.0
 20
196.0
 10
130.0
 20
197.1045694996001
 10
130.8954305003999
 20
198.0
 10
132.0
 20
198.0
 10
133.1045694996001
 20
198.0
 10
134.0
 20
197.1045694996001
 10
134.0
 20
196.0
 97
        0
 97
        0
 75
     2
 76
     1
 98
        0
  0
SPLINE
  5
67
330
57
100
AcDbEntity
  8
Nebulae
 62
   253
420
  9874336
370
     9
100
AcDbSpline
210
0.0
220
0.0
230
1.0
 70
    11
 71
     3
 72
    17
 73
    13
 74
     0
 42
0.0000000001
 43
0.0000000001
 12
1.0
 22
0.0
 32
0.0
 13
1.0
 23
0.0
 33
0.0
 40
0.0
 40
0.0
 40
0.0
 40
0.0
 40
1.0
 40
1.0
 40
1.0
 40
2.0
 40
2.0
 40
2.0
 40
3.0
 40
3.0
 40
3.0
 40
4.0
 40
4.0
 40
4.0
 40
4.0
 10
130.0
 20
195.0
 30
0.0
 10
130.0
 20
193.3431457505994
 30
0.0
 10
128.6568542494006
 20
192.0
 30
0.0
 10
127.0
 20
192.0
 30
0.0
 10
125.3431457505994
 20
192.0
 30
0.0
 10
124.0
 20
193.3431457505994
 30
0.0
 10
124.0
 20
195.0
 30
0.0
 10
124.0
 20
196.6568542494006
 30
0.0
 10
125.3431457505994
 20
198.0
 30
0.0
 10
127.0
 20
198.0
 30
0.0
 10
128.6568542494006
 20
198.0
 30
0.0
 10
130.0
 20
196.6568542494006
 30
0.0
 10
130.0
 20
195.0
 30
0.0
  0
HATCH
  5
68
330
57
100
AcDbEntity
  8
Nebulae
 62
   123
420
  8374194
100
AcDbHatch
 10
0.0
 20
0.0
 30
0.0
210
0.0
220
0.0
230
1.0
  2
SOLID
 70
     1
 71
     0
 91
        1
 92
        1
 93
        1
 72
     4
 94
        3
 73
     0
 74
     1
 95
       17
 96
       13
 40
0.0
 40
0.0
 40
0.0
 40
0.0
 40
1.0
 40
1.0
 40
1.0
 40
2.0
 40
2.0
 40
2.0
 40
3.0
 40
3.0
 40
3.0
 40
4.0
 40
4.0
 40
4.0
 40
4.0
 10
130.0
 20
195.0
 10
130.0
 20
193.3431457505994
 10
128.6568542494006
 20
192.0
 10
127.0
 20
192.0
 10
125.3431457505994
 20
192.0
 10
124.0
 20
193.3431457505994
 10
124.0
 20
195.0
 10
124.0
 20
196.6568542494006
 10
125.3431457505994
 20
198.0
 10
127.0
 20
198.0
 10
128.6568542494006
 20
198.0
 10
130.0
 20
196.6568542494006
 10
130.0
 20
195.0
 97
        0
 97
        0
 75
     2
 76
     1
 98
        0
  0
SPLINE
  5
69
330
57
100
AcDbEntity
  8
Nebulae
 62
   253
420
  9874336
370
     9
100
AcDbSpline
210
0.0
220
0.0
230
1.0
 70
    11
 71
     3
 72
    17
 73
    13
 74
     0
 42
0.0000000001
 43
0.0000000001
 12
1.0
 22
0.0
 32
0.0
 13
1.0
 23
0.0
 33
0.0
 40
0.0
 40
0.0
 40
0.0
 40
0.0
 40
1.0
 40
1.0
 40
1.0
 40
2.0
 40
2.0
 40
2.0
 40
3.0
 40
3.0
 40
3.0
 40
4.0
 40
4.0
 40
4.0
 40
4.0
 10
115.0
 20
193.0
 30
0.0
 10
115.0
 20
191.8954305003999
 30
0.0
 10
114.1045694996001
 20
191.0
 30
0.0
 10
113.0
 20
191.0
 30
0.0
 10
111.8954305003999
 20
191.0
 30
0.0
 10
111.0
 20
191.8954305003999
 30
0.0
 10
111.0
 20
193.0
 30
0.0
 10
111.0
 20
194.1045694996001
 30
0.0
 10
111.8954305003999
 20
195.0
 30
0.0
 10
113.0
 20
195.0
 30
0.0
 10
114.1045694996001
 20
195.0
 30
0.0
 10
115.0
 20
194.1045694996001
 30
0.0
 10
115.0
 20
193.0
 30
0.0
  0
HATCH
  5
6A
330
57
100
AcDbEntity
  8
Nebulae
 62
   123
420
  8374194
100
AcDbHatch
 10
0.0
 20
0.0
 30
0.0
210
0.0
220
0.0
230
1.0
  2
SOLID
 70
     1
 71
     0
 91
        1
 92
        1
 93
        1
 72
     4
 94
        3
 73
     0
 74
     1
 95
       17
 96
       13
 40
0.0
 40
0.0
 40
0.0
 40
0.0
 40
1.0
 40
1.0
 40
1.0
 40
2.0
 40
2.0
 40
2.0
 40
3.0
 40
3.0
 40
3.0
 40
4.0
 40
4.0
 40
4.0
 40
4.0
 10
115.0
 20
193.0
 10
115.0
 20
191.8954305003999
 10
114.1045694996001
 20
191.0
 10
113.0
 20
191.0
 10
111.8954305003999
 20
191.0
 10
111.0
 20
191.8954305003999
 10
111.0
 20
193.0
 10
111.0
 20
194.1045694996001
 10
111.8954305003999
 20
195.0
 10
113.0
 20
195.0
 10
114.1045694996001
 20
195.0
 10
115.0
 20
194.1045694996001
 10
115.0
 20
193.0
 97
        0
 97
        0
 75
     2
 76
     1
 98
        0
  0
SPLINE
  5
6B
330
57
100
AcDbEntity
  8
Nebulae
 62
   253
420
  9874336
370
     9
100
AcDbSpline
210
0.0
220
0.0
230
1.0
 70
    11
 71
     3
 72
    17
 73
    13
 74
     0
 42
0.0000000001
 43
0.0000000001
 12
1.0
 22
0.0
 32
0.0
 13
1.0
 23
0.0
 33
0.0
 40
0.0
 40
0.0
 40
0.0
 40
0.0
 40
1.0
 40
1.0
 40
1.0
 40
2.0
 40
2.0
 40
2.0
 40
3.0
 40
3.0
 40
3.0
 40
4.0
 40
4.0
 40
4.0
 40
4.0
 10
111.0
 20
192.0
 30
0.0
 10
111.0
 20
191.4477152502004
 30
0.0
 10
110.5522847497996
 20
191.0
 30
0.0
 10
110.0
 20
191.0
 30
0.0
 10
109.4477152502004
 20
191.0
 30
0.0
 10
109.0
 20
191.4477152502004
 30
0.0
 10
109.0
 20
192.0
 30
0.0
 10
109.0
 20
192.5522847497996
 30
0.0
 10
109.4477152502004
 20
193.0
 30
0.0
 10
110.0
 20
193.0
 30
0.0
 10
110.5522847497996
 20
193.0
 30
0.0
 10
111.0
 20
192.5522847497996
 30
0.0
 10
111.0
 20
192.0
 30
0.0
  0
HATCH
  5
6C
330
57
100
AcDbEntity
  8
Nebulae
 62
   123
420
  8374194
100
AcDbHatch
 10
0.0
 20
0.0
 30
0.0
210
0.0
220
0.0
230
1.0
  2
SOLID
 70
     1
 71
     0
 91
        1
 92
        1
 93
        1
 72
     4
 94
        3
 73
     0
 74
     1
 95
       17
 96
       13
 40
0.0
 40
0.0
 40
0.0
 40
0.0
 40
1.0
 40
1.0
 40
1.0
 40
2.0
 40
2.0
 40
2.0
 40
3.0
 40
3.0
 40
3.0
 40
4.0
 40
4.0
 40
4.0
 40
4.0
 10
111.0
 20
192.0
 10
111.0
 20
191.4477152502004
 10
110.5522847497996
 20
191.0
 10
110.0
 20
191.0
 10
109.4477152502004
 20
191.0
 10
109.0
 20
191.4477152502004
 10
109.0
 20
192.0
 10
109.0
 20
192.5522847497996
 10
109.4477152502004
 20
193.0
 10
110.0
 20
193.0
 10
110.5522847497996
 20
193.0
 10
111.0
 20
192.5522847497996
 10
111.0
 20
192.0
 97
        0
 97
        0
 75
     2
 76
     1
 98
        0
  0
INSERT
  5
6E
330
57
100
AcDbEntity
  8
Nebulae
100
AcDbBlockReference
  2
block 5
 10
0.0
 20
0.0
 30
0.0
  0
SPLINE
  5
77
330
57
100
AcDbEntity
  8
Nebulae
 62
   253
420
  9874336
370
     9
100
AcDbSpline
210
0.0
220
0.0
230
1.0
 70
    11
 71
     3
 72
    17
 73
    13
 74
     0
 42
0.0000000001
 43
0.0000000001
 12
1.0
 22
0.0
 32
0.0
 13
1.0
 23
0.0
 33
0.0
 40
0.0
 40
0.0
 40
0.0
 40
0.0
 40
1.0
 40
1.0
 40
1.0
 40
2.0
 40
2.0
 40
2.0
 40
3.0
 40
3.0
 40
3.0
 40
4.0
 40
4.0
 40
4.0
 40
4.0
 10
132.0
 20
189.0
 30
0.0
 10
132.0
 20
188.4477152502004
 30
0.0
 10
131.5522847497996
 20
188.0
 30
0.0
 10
131.0
 20
188.0
 30
0.0
 10
130.4477152502004
 20
188.0
 30
0.0
 10
130.0
 20
188.4477152502004
 30
0.0
 10
130.0
 20
189.0
 30
0.0
 10
130.0
 20
189.5522847497996
 30
0.0
 10
130.4477152502004
 20
190.0
 30
0.0
 10
131.0
 20
190.0
 30
0.0
 10
131.5522847497996
 20
190.0
 30
0.0
 10
132.0
 20
189.5522847497996
 30
0.0
 10
132.0
 20
189.0
 30
0.0
  0
HATCH
  5
78
330
57
100
AcDbEntity
  8
Nebulae
 62
   123
420
  8374194
100
AcDbHatch
 10
0.0
 20
0.0
 30
0.0
210
0.0
220
0.0
230
1.0
  2
SOLID
 70
     1
 71
     0
 91
        1
 92
        1
 93
        1
 72
     4
 94
        3
 73
     0
 74
     1
 95
       17
 96
       13
 40
0.0
 40
0.0
 40
0.0
 40
0.0
 40
1.0
 40
1.0
 40
1.0
 40
2.0
 40
2.0
 40
2.0
 40
3.0
 40
3.0
 40
3.0
 40
4.0
 40
4.0
 40
4.0
 40
4.0
 10
132.0
 20
189.0
 10
132.0
 20
188.4477152502004
 10
131.5522847497996
 20
188.0
 10
131.0
 20
188.0
 10
130.4477152502004
 20
188.0
 10
130.0
 20
188.4477152502004
 10
130.0
 20
189.0
 10
130.0
 20
189.5522847497996
 10
130.4477152502004
 20
190.0
 10
131.0
 20
190.0
 10
131.5522847497996
 20
190.0
 10
132.0
 20
189.5522847497996
 10
132.0
 20
189.0
 97
        0
 97
        0
 75
     2
 76
     1
 98
        0
  0
SPLINE
  5
79
330
57
100
AcDbEntity
  8
Nebulae
 62
   253
420
  9874336
370
     9
100
AcDbSpline
210
0.0
220
0.0
230
1.0
 70
    11
 71
     3
 72
    17
 73
    13
 74
     0
 42
0.0000000001
 43
0.0000000001
 12
1.0
 22
0.0
 32
0.0
 13
1.0
 23
0.0
 33
0.0
 40
0.0
 40
0.0
 40
0.0
 40
0.0
 40
1.0
 40
1.0
 40
1.0
 40
2.0
 40
2.0
 40
2.0
 40
3.0
 40
3.0
 40
3.0
 40
4.0
 40
4.0
 40
4.0
 40
4.0
 10
14.0
 20
180.0
 30
0.0
 10
14.0
 20
178.8954305003999
 30
0.0
 10
13.10456949960007
 20
178.0
 30
0.0
 10
12.0
 20
178.0
 30
0.0
 10
10.89543050039993
 20
178.0
 30
0.0
 10
10.0
 20
178.8954305003999
 30
0.0
 10
10.0
 20
180.0
 30
0.0
 10
10.0
 20
181.1045694996001
 30
0.0
 10
10.89543050039993
 20
182.0
 30
0.0
 10
12.0
 20
182.0
 30
0.0
 10
13.10456949960007
 20
182.0
 30
0.0
 10
14.0
 20
181.1045694996001
 30
0.0
 10
14.0
 20
180.0
 30
0.0
  0
HATCH
  5
7A
330
57
100
AcDbEntity
  8
Nebulae
 62
   123
420
  8374194
100
AcDbHatch
 10
0.0
 20
0.0
 30
0.0
210
0.0
220
0.0
230
1.0
  2
SOLID
 70
     1
 71
     0
 91
        1
 92
        1
 93
        1
 72
     4
 94
        3
 73
     0
 74
     1
 95
       17
 96
       13
 40
0.0
 40
0.0
 40
0.0
 40
0.0
 40
1.0
 40
1.0
 40
1.0
 40
2.0
 40
2.0
 40
2.0
 40
3.0
 40
3.0
 40
3.0
 40
4.0
 40
4.0
 40
4.0
 40
4.0
 10
14.0
 20
180.0
 10
14.0
 20
178.8954305003999
 10
13.10456949960007
 20
178.0
 10
12.0
 20
178.0
 10
10.89543050039993
 20
178.0
 10
10.0
 20
178.8954305003999
 10
10.0
 20
180.0
 10
10.0
 20
181.1045694996001
 10
10.89543050039993
 20
182.0
 10
12.0
 20
182.0
 10
13.10456949960007
 20
182.0
 10
14.0
 20
181.1045694996001
 10
14.0
 20
180.0
 97
        0
 97
        0
 75
     2
 76
     1
 98
        0
  0
INSERT
  5
7C
330
57
100
AcDbEntity
  8
Nebulae
100
AcDbBlockReference
  2
block 6
 10
0.0
 20
0.0
 30
0.0
  0
INSERT
  5
86
330
57
100
AcDbEntity
  8
Nebulae
100
AcDbBlockReference
  2
block 7
 10
0.0
 20
0.0
 30
0.0
  0
SPLINE
  5
91
330
57
100
AcDbEntity
  8
Nebulae
 62
   253
420
  9874336
370
     9
100
AcDbSpline
210
0.0
220
0.0
230
1.0
 70
    11
 71
     3
 72
    17
 73
    13
 74
     0
 42
0.0000000001
 43
0.0000000001
 12
1.0
 22
0.0
 32
0.0
 13
1.0
 23
0.0
 33
0.0
 40
0.0
 40
0.0
 40
0.0
 40
0.0
 40
1.0
 40
1.0
 40
1.0
 40
2.0
 40
2.0
 40
2.0
 40
3.0
 40
3.0
 40
3.0
 40
4.0
 40
4.0
 40
4.0
 40
4.0
 10
217.0
 20
161.0
 30
0.0
 10
217.0
 20
159.8954305003999
 30
0.0
 10
216.1045694996001
 20
159.0
 30
0.0
 10
215.0
 20
159.0
 30
0.0
 10
213.8954305003999
 20
159.0
 30
0.0
 10
213.0
 20
159.8954305003999
 30
0.0
 10
213.0
 20
161.0
 30
0.0
 10
213.0
 20
162.1045694996001
 30
0.0
 10
213.8954305003999
 20
163.0
 30
0.0
 10
215.0
 20
163.0
 30
0.0
 10
216.1045694996001
 20
163.0
 30
0.0
 10
217.0
 20
162.1045694996001
 30
0.0
 10
217.0
 20
161.0
 30
0.0
  0
HATCH
  5
92
330
57
100
AcDbEntity
  8
Nebulae
 62
   123
420
  8374194
100
AcDbHatch
 10
0.0
 20
0.0
 30
0.0
210
0.0
220
0.0
230
1.0
  2
SOLID
 70
     1
 71
     0
 91
        1
 92
        1
 93
        1
 72
     4
 94
        3
 73
     0
 74
     1
 95
       17
 96
       13
 40
0.0
 40
0.0
 40
0.0
 40
0.0
 40
1.0
 40
1.0
 40
1.0
 40
2.0
 40
2.0
 40
2.0
 40
3.0
 40
3.0
 40
3.0
 40
4.0
 40
4.0
 40
4.0
 40
4.0
 10
217.0
 20
161.0
 10
217.0
 20
159.8954305003999
 10
216.1045694996001
 20
159.0
 10
215.0
 20
159.0
 10
213.8954305003999
 20
159.0
 10
213.0
 20
159.8954305003999
 10
213.0
 20
161.0
 10
213.0
 20
162.1045694996001
 10
213.8954305003999
 20
163.0
 10
215.0
 20
163.0
 10
216.1045694996001
 20
163.0
 10
217.0
 20
162.1045694996001
 10
217.0
 20
161.0
 97
        0
 97
        0
 75
     2
 76
     1
 98
        0
  0
SPLINE
  5
93
330
57
100
AcDbEntity
  8
Nebulae
 62
   253
420
  9874336
370
     9
100
AcDbSpline
210
0.0
220
0.0
230
1.0
 70
    11
 71
     3
 72
    17
 73
    13
 74
     0
 42
0.0000000001
 43
0.0000000001
 12
1.0
 22
0.0
 32
0.0
 13
1.0
 23
0.0
 33
0.0
 40
0.0
 40
0.0
 40
0.0
 40
0.0
 40
1.0
 40
1.0
 40
1.0
 40
2.0
 40
2.0
 40
2.0
 40
3.0
 40
3.0
 40
3.0
 40
4.0
 40
4.0
 40
4.0
 40
4.0
 10
143.0
 20
156.0
 30
0.0
 10
143.0
 20
154.8954305003999
 30
0.0
 10
142.1045694996001
 20
154.0
 30
0.0
 10
141.0
 20
154.0
 30
0.0
 10
139.8954305003999
 20
154.0
 30
0.0
 10
139.0
 20
154.8954305003999
 30
0.0
 10
139.0
 20
156.0
 30
0.0
 10
139.0
 20
157.1045694996001
 30
0.0
 10
139.8954305003999
 20
158.0
 30
0.0
 10
141.0
 20
158.0
 30
0.0
 10
142.1045694996001
 20
158.0
 30
0.0
 10
143.0
 20
157.1045694996001
 30
0.0
 10
143.0
 20
156.0
 30
0.0
  0
HATCH
  5
94
330
57
100
AcDbEntity
  8
Nebulae
 62
   123
420
  8374194
100
AcDbHatch
 10
0.0
 20
0.0
 30
0.0
210
0.0
220
0.0
230
1.0
  2
SOLID
 70
     1
 71
     0
 91
        1
 92
        1
 93
        1
 72
     4
 94
        3
 73
     0
 74
     1
 95
       17
 96
       13
 40
0.0
 40
0.0
 40
0.0
 40
0.0
 40
1.0
 40
1.0
 40
1.0
 40
2.0
 40
2.0
 40
2.0
 40
3.0
 40
3.0
 40
3.0
 40
4.0
 40
4.0
 40
4.0
 40
4.0
 10
143.0
 20
156.0
 10
143.0
 20
154.8954305003999
 10
142.1045694996001
 20
154.0
 10
141.0
 20
154.0
 10
139.8954305003999
 20
154.0
 10
139.0
 20
154.8954305003999
 10
139.0
 20
156.0
 10
139.0
 20
157.1045694996001
 10
139.8954305003999
 20
158.0
 10
141.0
 20
158.0
 10
142.1045694996001
 20
158.0
 10
143.0
 20
157.1045694996001
 10
143.0
 20
156.0
 97
        0
 97
        0
 75
     2
 76
     1
 98
        0
  0
SPLINE
  5
95
330
57
100
AcDbEntity
  8
Nebulae
 62
   253
420
  9874336
370
     9
100
AcDbSpline
210
0.0
220
0.0
230
1.0
 70
    11
 71
     3
 72
    17
 73
    13
 74
     0
 42
0.0000000001
 43
0.0000000001
 12
1.0
 22
0.0
 32
0.0
 13
1.0
 23
0.0
 33
0.0
 40
0.0
 40
0.0
 40
0.0
 40
0.0
 40
1.0
 40
1.0
 40
1.0
 40
2.0
 40
2.0
 40
2.0
 40
3.0
 40
3.0
 40
3.0
 40
4.0
 40
4.0
 40
4.0
 40
4.0
 10
68.0
 20
155.0
 30
0.0
 10
68.0
 20
153.3431457505994
 30
0.0
 10
66.65685424940057
 20
152.0
 30
0.0
 10
65.0
 20
152.0
 30
0.0
 10
63.34314575059943
 20
152.0
 30
0.0
 10
62.0
 20
153.3431457505994
 30
0.0
 10
62.0
 20
155.0
 30
0.0
 10
62.0
 20
156.6568542494006
 30
0.0
 10
63.34314575059943
 20
158.0
 30
0.0
 10
65.0
 20
158.0
 30
0.0
 10
66.65685424940057
 20
158.0
 30
0.0
 10
68.0
 20
156.6568542494006
 30
0.0
 10
68.0
 20
155.0
 30
0.0
  0
HATCH
  5
96
330
57
100
AcDbEntity
  8
Nebulae
 62
   123
420
  8374194
100
AcDbHatch
 10
0.0
 20
0.0
 30
0.0
210
0.0
220
0.0
230
1.0
  2
SOLID
 70
     1
 71
     0
 91
        1
 92
        1
 93
        1
 72
     4
 94
        3
 73
     0
 74
     1
 95
       17
 96
       13
 40
0.0
 40
0.0
 40
0.0
 40
0.0
 40
1.0
 40
1.0
 40
1.0
 40
2.0
 40
2.0
 40
2.0
 40
3.0
 40
3.0
 40
3.0
 40
4.0
 40
4.0
 40
4.0
 40
4.0
 10
68.0
 20
155.0
 10
68.0
 20
153.3431457505994
 10
66.65685424940057
 20
152.0
 10
65.0
 20
152.0
 10
63.34314575059943
 20
152.0
 10
62.0
 20
153.3431457505994
 10
62.0
 20
155.0
 10
62.0
 20
156.6568542494006
 10
63.34314575059943
 20
158.0
 10
65.0
 20
158.0
 10
66.65685424940057
 20
158.0
 10
68.0
 20
156.6568542494006
 10
68.0
 20
155.0
 97
        0
 97
        0
 75
     2
 76
     1
 98
        0
  0
INSERT
  5
98
330
57
100
AcDbEntity
  8
Nebulae
100
AcDbBlockReference
  2
block 8
 10
0.0
 20
0.0
 30
0.0
  0
INSERT
  5
A0
330
57
100
AcDbEntity
  8
Nebulae
100
AcDbBlockReference
  2
block 9
 10
0.0
 20
0.0
 30
0.0
  0
INSERT
  5
A8
330
57
100
AcDbEntity
  8
Nebulae
100
AcDbBlockReference
  2
block 10
 10
0.0
 20
0.0
 30
0.0
  0
INSERT
  5
B2
330
57
100
AcDbEntity
  8
Nebulae
100
AcDbBlockReference
  2
block 11
 10
0.0
 20
0.0
 30
0.0
  0
SPLINE
  5
BB
330
57
100
AcDbEntity
  8
Nebulae
 62
   253
420
  9874336
370
     9
100
AcDbSpline
210
0.0
220
0.0
230
1.0
 70
    11
 71
     3
 72
    17
 73
    13
 74
     0
 42
0.0000000001
 43
0.0000000001
 12
1.0
 22
0.0
 32
0.0
 13
1.0
 23
0.0
 33
0.0
 40
0.0
 40
0.0
 40
0.0
 40
0.0
 40
1.0
 40
1.0
 40
1.0
 40
2.0
 40
2.0
 40
2.0
 40
3.0
 40
3.0
 40
3.0
 40
4.0
 40
4.0
 40
4.0
 40
4.0
 10
38.0
 20
126.0
 30
0.0
 10
38.0
 20
124.8954305003999
 30
0.0
 10
37.10456949960007
 20
124.0
 30
0.0
 10
36.0
 20
124.0
 30
0.0
 10
34.89543050039993
 20
124.0
 30
0.0
 10
34.0
 20
124.8954305003999
 30
0.0
 10
34.0
 20
126.0
 30
0.0
 10
34.0
 20
127.1045694996001
 30
0.0
 10
34.89543050039993
 20
128.0
 30
0.0
 10
36.0
 20
128.0
 30
0.0
 10
37.10456949960007
 20
128.0
 30
0.0
 10
38.0
 20
127.1045694996001
 30
0.0
 10
38.0
 20
126.0
 30
0.0
  0
HATCH
  5
BC
330
57
100
AcDbEntity
  8
Nebulae
 62
   123
420
  8374194
100
AcDbHatch
 10
0.0
 20
0.0
 30
0.0
210
0.0
220
0.0
230
1.0
  2
SOLID
 70
     1
 71
     0
 91
        1
 92
        1
 93
        1
 72
     4
 94
        3
 73
     0
 74
     1
 95
       17
 96
       13
 40
0.0
 40
0.0
 40
0.0
 40
0.0
 40
1.0
 40
1.0
 40
1.0
 40
2.0
 40
2.0
 40
2.0
 40
3.0
 40
3.0
 40
3.0
 40
4.0
 40
4.0
 40
4.0
 40
4.0
 10
38.0
 20
126.0
 10
38.0
 20
124.8954305003999
 10
37.10456949960007
 20
124.0
 10
36.0
 20
124.0
 10
34.89543050039993
 20
124.0
 10
34.0
 20
124.8954305003999
 10
34.0
 20
126.0
 10
34.0
 20
127.1045694996001
 10
34.89543050039993
 20
128.0
 10
36.0
 20
128.0
 10
37.10456949960007
 20
128.0
 10
38.0
 20
127.1045694996001
 10
38.0
 20
126.0
 97
        0
 97
        0
 75
     2
 76
     1
 98
        0
  0
SPLINE
  5
BD
330
57
100
AcDbEntity
  8
Nebulae
 62
   253
420
  9874336
370
     9
100
AcDbSpline
210
0.0
220
0.0
230
1.0
 70
    11
 71
     3
 72
    17
 73
    13
 74
     0
 42
0.0000000001
 43
0.0000000001
 12
1.0
 22
0.0
 32
0.0
 13
1.0
 23
0.0
 33
0.0
 40
0.0
 40
0.0
 40
0.0
 40
0.0
 40
1.0
 40
1.0
 40
1.0
 40
2.0
 40
2.0
 40
2.0
 40
3.0
 40
3.0
 40
3.0
 40
4.0
 40
4.0
 40
4.0
 40
4.0
 10
80.0
 20
124.0
 30
0.0
 10
80.0
 20
122.8954305003999
 30
0.0
 10
79.10456949960007
 20
122.0
 30
0.0
 10
78.0
 20
122.0
 30
0.0
 10
76.89543050039993
 20
122.0
 30
0.0
 10
76.0
 20
122.8954305003999
 30
0.0
 10
76.0
 20
124.0
 30
0.0
 10
76.0
 20
125.1045694996001
 30
0.0
 10
76.89543050039993
 20
126.0
 30
0.0
 10
78.0
 20
126.0
 30
0.0
 10
79.10456949960007
 20
126.0
 30
0.0
 10
80.0
 20
125.1045694996001
 30
0.0
 10
80.0
 20
124.0
 30
0.0
  0
HATCH
  5
BE
330
57
100
AcDbEntity
  8
Nebulae
 62
   123
420
  8374194
100
AcDbHatch
 10
0.0
 20
0.0
 30
0.0
210
0.0
220
0.0
230
1.0
  2
SOLID
 70
     1
 71
     0
 91
        1
 92
        1
 93
        1
 72
     4
 94
        3
 73
     0
 74
     1
 95
       17
 96
       13
 40
0.0
 40
0.0
 40
0.0
 40
0.0
 40
1.0
 40
1.0
 40
1.0
 40
2.0
 40
2.0
 40
2.0
 40
3.0
 40
3.0
 40
3.0
 40
4.0
 40
4.0
 40
4.0
 40
4.0
 10
80.0
 20
124.0
 10
80.0
 20
122.8954305003999
 10
79.10456949960007
 20
122.0
 10
78.0
 20
122.0
 10
76.89543050039993
 20
122.0
 10
76.0
 20
122.8954305003999
 10
76.0
 20
124.0
 10
76.0
 20
125.1045694996001
 10
76.89543050039993
 20
126.0
 10
78.0
 20
126.0
 10
79.10456949960007
 20
126.0
 10
80.0
 20
125.1045694996001
 10
80.0
 20
124.0
 97
        0
 97
        0
 75
     2
 76
     1
 98
        0
  0
SPLINE
  5
BF
330
57
100
AcDbEntity
  8
Nebulae
 62
   253
420
  9874336
370
     9
100
AcDbSpline
210
0.0
220
0.0
230
1.0
 70
    11
 71
     3
 72
    17
 73
    13
 74
     0
 42
0.0000000001
 43
0.0000000001
 12
1.0
 22
0.0
 32
0.0
 13
1.0
 23
0.0
 33
0.0
 40
0.0
 40
0.0
 40
0.0
 40
0.0
 40
1.0
 40
1.0
 40
1.0
 40
2.0
 40
2.0
 40
2.0
 40
3.0
 40
3.0
 40
3.0
 40
4.0
 40
4.0
 40
4.0
 40
4.0
 10
47.0
 20
111.0
 30
0.0
 10
47.0
 20
108.7908610007999
 30
0.0
 10
45.20913899920015
 20
107.0
 30
0.0
 10
43.0
 20
107.0
 30
0.0
 10
40.79086100079985
 20
107.0
 30
0.0
 10
39.0
 20
108.7908610007999
 30
0.0
 10
39.0
 20
111.0
 30
0.0
 10
39.0
 20
113.2091389992001
 30
0.0
 10
40.79086100079985
 20
115.0
 30
0.0
 10
43.0
 20
115.0
 30
0.0
 10
45.20913899920015
 20
115.0
 30
0.0
 10
47.0
 20
113.2091389992001
 30
0.0
 10
47.0
 20
111.0
 30
0.0
  0
HATCH
  5
C0
330
57
100
AcDbEntity
  8
Nebulae
 62
   123
420
  8374194
100
AcDbHatch
 10
0.0
 20
0.0
 30
0.0
210
0.0
220
0.0
230
1.0
  2
SOLID
 70
     1
 71
     0
 91
        1
 92
        1
 93
        1
 72
     4
 94
        3
 73
     0
 74
     1
 95
       17
 96
       13
 40
0.0
 40
0.0
 40
0.0
 40
0.0
 40
1.0
 40
1.0
 40
1.0
 40
2.0
 40
2.0
 40
2.0
 40
3.0
 40
3.0
 40
3.0
 40
4.0
 40
4.0
 40
4.0
 40
4.0
 10
47.0
 20
111.0
 10
47.0
 20
108.7908610007999
 10
45.20913899920015
 20
107.0
 10
43.0
 20
107.0
 10
40.79086100079985
 20
107.0
 10
39.0
 20
108.7908610007999
 10
39.0
 20
111.0
 10
39.0
 20
113.2091389992001
 10
40.79086100079985
 20
115.0
 10
43.0
 20
115.0
 10
45.20913899920015
 20
115.0
 10
47.0
 20
113.2091389992001
 10
47.0
 20
111.0
 97
        0
 97
        0
 75
     2
 76
     1
 98
        0
  0
INSERT
  5
C2
330
57
100
AcDbEntity
  8
Nebulae
100
AcDbBlockReference
  2
block 12
 10
0.0
 20
0.0
 30
0.0
  0
SPLINE
  5
CB
330
57
100
AcDbEntity
  8
Nebulae
 62
   253
420
  9874336
370
     9
100
AcDbSpline
210
0.0
220
0.0
230
1.0
 70
    11
 71
     3
 72
    17
 73
    13
 74
     0
 42
0.0000000001
 43
0.0000000001
 12
1.0
 22
0.0
 32
0.0
 13
1.0
 23
0.0
 33
0.0
 40
0.0
 40
0.0
 40
0.0
 40
0.0
 40
1.0
 40
1.0
 40
1.0
 40
2.0
 40
2.0
 40
2.0
 40
3.0
 40
3.0
 40
3.0
 40
4.0
 40
4.0
 40
4.0
 40
4.0
 10
56.0
 20
99.0
 30
0.0
 10
56.0
 20
98.44771525020042
 30
0.0
 10
55.55228474979958
 20
98.0
 30
0.0
 10
55.0
 20
98.0
 30
0.0
 10
54.44771525020042
 20
98.0
 30
0.0
 10
54.0
 20
98.44771525020042
 30
0.0
 10
54.0
 20
99.0
 30
0.0
 10
54.0
 20
99.55228474979958
 30
0.0
 10
54.44771525020042
 20
100.0
 30
0.0
 10
55.0
 20
100.0
 30
0.0
 10
55.55228474979958
 20
100.0
 30
0.0
 10
56.0
 20
99.55228474979958
 30
0.0
 10
56.0
 20
99.0
 30
0.0
  0
HATCH
  5
CC
330
57
100
AcDbEntity
  8
Nebulae
 62
   123
420
  8374194
100
AcDbHatch
 10
0.0
 20
0.0
 30
0.0
210
0.0
220
0.0
230
1.0
  2
SOLID
 70
     1
 71
     0
 91
        1
 92
        1
 93
        1
 72
     4
 94
        3
 73
     0
 74
     1
 95
       17
 96
       13
 40
0.0
 40
0.0
 40
0.0
 40
0.0
 40
1.0
 40
1.0
 40
1.0
 40
2.0
 40
2.0
 40
2.0
 40
3.0
 40
3.0
 40
3.0
 40
4.0
 40
4.0
 40
4.0
 40
4.0
 10
56.0
 20
99.0
 10
56.0
 20
98.44771525020042
 10
55.55228474979958
 20
98.0
 10
55.0
 20
98.0
 10
54.44771525020042
 20
98.0
 10
54.0
 20
98.44771525020042
 10
54.0
 20
99.0
 10
54.0
 20
99.55228474979958
 10
54.44771525020042
 20
100.0
 10
55.0
 20
100.0
 10
55.55228474979958
 20
100.0
 10
56.0
 20
99.55228474979958
 10
56.0
 20
99.0
 97
        0
 97
        0
 75
     2
 76
     1
 98
        0
  0
SPLINE
  5
CD
330
57
100
AcDbEntity
  8
Nebulae
 62
   253
420
  9874336
370
     9
100
AcDbSpline
210
0.0
220
0.0
230
1.0
 70
    11
 71
     3
 72
    17
 73
    13
 74
     0
 42
0.0000000001
 43
0.0000000001
 12
1.0
 22
0.0
 32
0.0
 13
1.0
 23
0.0
 33
0.0
 40
0.0
 40
0.0
 40
0.0
 40
0.0
 40
1.0
 40
1.0
 40
1.0
 40
2.0
 40
2.0
 40
2.0
 40
3.0
 40
3.0
 40
3.0
 40
4.0
 40
4.0
 40
4.0
 40
4.0
 10
54.0
 20
98.0
 30
0.0
 10
54.0
 20
97.44771525020042
 30
0.0
 10
53.55228474979958
 20
97.0
 30
0.0
 10
53.0
 20
97.0
 30
0.0
 10
52.44771525020042
 20
97.0
 30
0.0
 10
52.0
 20
97.44771525020042
 30
0.0
 10
52.0
 20
98.0
 30
0.0
 10
52.0
 20
98.55228474979958
 30
0.0
 10
52.44771525020042
 20
99.0
 30
0.0
 10
53.0
 20
99.0
 30
0.0
 10
53.55228474979958
 20
99.0
 30
0.0
 10
54.0
 20
98.55228474979958
 30
0.0
 10
54.0
 20
98.0
 30
0.0
  0
HATCH
  5
CE
330
57
100
AcDbEntity
  8
Nebulae
 62
   123
420
  8374194
100
AcDbHatch
 10
0.0
 20
0.0
 30
0.0
210
0.0
220
0.0
230
1.0
  2
SOLID
 70
     1
 71
     0
 91
        1
 92
        1
 93
        1
 72
     4
 94
        3
 73
     0
 74
     1
 95
       17
 96
       13
 40
0.0
 40
0.0
 40
0.0
 40
0.0
 40
1.0
 40
1.0
 40
1.0
 40
2.0
 40
2.0
 40
2.0
 40
3.0
 40
3.0
 40
3.0
 40
4.0
 40
4.0
 40
4.0
 40
4.0
 10
54.0
 20
98.0
 10
54.0
 20
97.44771525020042
 10
53.55228474979958
 20
97.0
 10
53.0
 20
97.0
 10
52.44771525020042
 20
97.0
 10
52.0
 20
97.44771525020042
 10
52.0
 20
98.0
 10
52.0
 20
98.55228474979958
 10
52.44771525020042
 20
99.0
 10
53.0
 20
99.0
 10
53.55228474979958
 20
99.0
 10
54.0
 20
98.55228474979958
 10
54.0
 20
98.0
 97
        0
 97
        0
 75
     2
 76
     1
 98
        0
  0
SPLINE
  5
CF
330
57
100
AcDbEntity
  8
Nebulae
 62
   253
420
  9874336
370
     9
100
AcDbSpline
210
0.0
220
0.0
230
1.0
 70
    11
 71
     3
 72
    17
 73
    13
 74
     0
 42
0.0000000001
 43
0.0000000001
 12
1.0
 22
0.0
 32
0.0
 13
1.0
 23
0.0
 33
0.0
 40
0.0
 40
0.0
 40
0.0
 40
0.0
 40
1.0
 40
1.0
 40
1.0
 40
2.0
 40
2.0
 40
2.0
 40
3.0
 40
3.0
 40
3.0
 40
4.0
 40
4.0
 40
4.0
 40
4.0
 10
15.0
 20
88.0
 30
0.0
 10
15.0
 20
86.34314575059943
 30
0.0
 10
13.65685424940057
 20
85.0
 30
0.0
 10
12.0
 20
85.0
 30
0.0
 10
10.34314575059943
 20
85.0
 30
0.0
 10
9.0
 20
86.34314575059943
 30
0.0
 10
9.0
 20
88.0
 30
0.0
 10
9.0
 20
89.65685424940057
 30
0.0
 10
10.34314575059943
 20
91.0
 30
0.0
 10
12.0
 20
91.0
 30
0.0
 10
13.65685424940057
 20
91.0
 30
0.0
 10
15.0
 20
89.65685424940057
 30
0.0
 10
15.0
 20
88.0
 30
0.0
  0
HATCH
  5
D0
330
57
100
AcDbEntity
  8
Nebulae
 62
   123
420
  8374194
100
AcDbHatch
 10
0.0
 20
0.0
 30
0.0
210
0.0
220
0.0
230
1.0
  2
SOLID
 70
     1
 71
     0
 91
        1
 92
        1
 93
        1
 72
     4
 94
        3
 73
     0
 74
     1
 95
       17
 96
       13
 40
0.0
 40
0.0
 40
0.0
 40
0.0
 40
1.0
 40
1.0
 40
1.0
 40
2.0
 40
2.0
 40
2.0
 40
3.0
 40
3.0
 40
3.0
 40
4.0
 40
4.0
 40
4.0
 40
4.0
 10
15.0
 20
88.0
 10
15.0
 20
86.34314575059943
 10
13.65685424940057
 20
85.0
 10
12.0
 20
85.0
 10
10.34314575059943
 20
85.0
 10
9.0
 20
86.34314575059943
 10
9.0
 20
88.0
 10
9.0
 20
89.65685424940057
 10
10.34314575059943
 20
91.0
 10
12.0
 20
91.0
 10
13.65685424940057
 20
91.0
 10
15.0
 20
89.65685424940057
 10
15.0
 20
88.0
 97
        0
 97
        0
 75
     2
 76
     1
 98
        0
  0
SPLINE
  5
D1
330
57
100
AcDbEntity
  8
Nebulae
 62
   253
420
  9874336
370
     9
100
AcDbSpline
210
0.0
220
0.0
230
1.0
 70
    11
 71
     3
 72
    17
 73
    13
 74
     0
 42
0.0000000001
 43
0.0000000001
 12
1.0
 22
0.0
 32
0.0
 13
1.0
 23
0.0
 33
0.0
 40
0.0
 40
0.0
 40
0.0
 40
0.0
 40
1.0
 40
1.0
 40
1.0
 40
2.0
 40
2.0
 40
2.0
 40
3.0
 40
3.0
 40
3.0
 40
4.0
 40
4.0
 40
4.0
 40
4.0
 10
239.0
 20
82.0
 30
0.0
 10
239.0
 20
80.34314575059943
 30
0.0
 10
237.6568542494006
 20
79.0
 30
0.0
 10
236.0
 20
79.0
 30
0.0
 10
234.3431457505994
 20
79.0
 30
0.0
 10
233.0
 20
80.34314575059943
 30
0.0
 10
233.0
 20
82.0
 30
0.0
 10
233.0
 20
83.65685424940057
 30
0.0
 10
234.3431457505994
 20
85.0
 30
0.0
 10
236.0
 20
85.0
 30
0.0
 10
237.6568542494006
 20
85.0
 30
0.0
 10
239.0
 20
83.65685424940057
 30
0.0
 10
239.0
 20
82.0
 30
0.0
  0
HATCH
  5
D2
330
57
100
AcDbEntity
  8
Nebulae
 62
   123
420
  8374194
100
AcDbHatch
 10
0.0
 20
0.0
 30
0.0
210
0.0
220
0.0
230
1.0
  2
SOLID
 70
     1
 71
     0
 91
        1
 92
        1
 93
        1
 72
     4
 94
        3
 73
     0
 74
     1
 95
       17
 96
       13
 40
0.0
 40
0.0
 40
0.0
 40
0.0
 40
1.0
 40
1.0
 40
1.0
 40
2.0
 40
2.0
 40
2.0
 40
3.0
 40
3.0
 40
3.0
 40
4.0
 40
4.0
 40
4.0
 40
4.0
 10
239.0
 20
82.0
 10
239.0
 20
80.34314575059943
 10
237.6568542494006
 20
79.0
 10
236.0
 20
79.0
 10
234.3431457505994
 20
79.0
 10
233.0
 20
80.34314575059943
 10
233.0
 20
82.0
 10
233.0
 20
83.65685424940057
 10
234.3431457505994
 20
85.0
 10
236.0
 20
85.0
 10
237.6568542494006
 20
85.0
 10
239.0
 20
83.65685424940057
 10
239.0
 20
82.0
 97
        0
 97
        0
 75
     2
 76
     1
 98
        0
  0
INSERT
  5
D4
330
57
100
AcDbEntity
  8
Nebulae
100
AcDbBlockReference
  2
block 13
 10
0.0
 20
0.0
 30
0.0
  0
INSERT
  5
DE
330
57
100
AcDbEntity
  8
Nebulae
100
AcDbBlockReference
  2
block 14
 10
0.0
 20
0.0
 30
0.0
  0
INSERT
  5
E6
330
57
100
AcDbEntity
  8
Nebulae
100
AcDbBlockReference
  2
block 15
 10
0.0
 20
0.0
 30
0.0
  0
INSERT
  5
F0
330
57
100
AcDbEntity
  8
Nebulae
100
AcDbBlockReference
  2
block 16
 10
0.0
 20
0.0
 30
0.0
  0
SPLINE
  5
F7
330
57
100
AcDbEntity
  8
Nebulae
 62
   253
420
  9874336
370
     9
100
AcDbSpline
210
0.0
220
0.0
230
1.0
 70
    11
 71
     3
 72
    17
 73
    13
 74
     0
 42
0.0000000001
 43
0.0000000001
 12
1.0
 22
0.0
 32
0.0
 13
1.0
 23
0.0
 33
0.0
 40
0.0
 40
0.0
 40
0.0
 40
0.0
 40
1.0
 40
1.0
 40
1.0
 40
2.0
 40
2.0
 40
2.0
 40
3.0
 40
3.0
 40
3.0
 40
4.0
 40
4.0
 40
4.0
 40
4.0
 10
219.0
 20
68.0
 30
0.0
 10
219.0
 20
66.89543050039993
 30
0.0
 10
218.1045694996001
 20
66.0
 30
0.0
 10
217.0
 20
66.0
 30
0.0
 10
215.8954305003999
 20
66.0
 30
0.0
 10
215.0
 20
66.89543050039993
 30
0.0
 10
215.0
 20
68.0
 30
0.0
 10
215.0
 20
69.10456949960007
 30
0.0
 10
215.8954305003999
 20
70.0
 30
0.0
 10
217.0
 20
70.0
 30
0.0
 10
218.1045694996001
 20
70.0
 30
0.0
 10
219.0
 20
69.10456949960007
 30
0.0
 10
219.0
 20
68.0
 30
0.0
  0
HATCH
  5
F8
330
57
100
AcDbEntity
  8
Nebulae
 62
   123
420
  8374194
100
AcDbHatch
 10
0.0
 20
0.0
 30
0.0
210
0.0
220
0.0
230
1.0
  2
SOLID
 70
     1
 71
     0
 91
        1
 92
        1
 93
        1
 72
     4
 94
        3
 73
     0
 74
     1
 95
       17
 96
       13
 40
0.0
 40
0.0
 40
0.0
 40
0.0
 40
1.0
 40
1.0
 40
1.0
 40
2.0
 40
2.0
 40
2.0
 40
3.0
 40
3.0
 40
3.0
 40
4.0
 40
4.0
 40
4.0
 40
4.0
 10
219.0
 20
68.0
 10
219.0
 20
66.89543050039993
 10
218.1045694996001
 20
66.0
 10
217.0
 20
66.0
 10
215.8954305003999
 20
66.0
 10
215.0
 20
66.89543050039993
 10
215.0
 20
68.0
 10
215.0
 20
69.10456949960007
 10
215.8954305003999
 20
70.0
 10
217.0
 20
70.0
 10
218.1045694996001
 20
70.0
 10
219.0
 20
69.10456949960007
 10
219.0
 20
68.0
 97
        0
 97
        0
 75
     2
 76
     1
 98
        0
  0
SPLINE
  5
F9
330
57
100
AcDbEntity
  8
Nebulae
 62
   253
420
  9874336
370
     9
100
AcDbSpline
210
0.0
220
0.0
230
1.0
 70
    11
 71
     3
 72
    17
 73
    13
 74
     0
 42
0.0000000001
 43
0.0000000001
 12
1.0
 22
0.0
 32
0.0
 13
1.0
 23
0.0
 33
0.0
 40
0.0
 40
0.0
 40
0.0
 40
0.0
 40
1.0
 40
1.0
 40
1.0
 40
2.0
 40
2.0
 40
2.0
 40
3.0
 40
3.0
 40
3.0
 40
4.0
 40
4.0
 40
4.0
 40
4.0
 10
22.0
 20
61.0
 30
0.0
 10
22.0
 20
58.23857625100027
 30
0.0
 10
19.76142374899973
 20
56.0
 30
0.0
 10
17.0
 20
56.0
 30
0.0
 10
14.23857625100027
 20
56.0
 30
0.0
 10
12.0
 20
58.23857625100027
 30
0.0
 10
12.0
 20
61.0
 30
0.0
 10
12.0
 20
63.76142374899973
 30
0.0
 10
14.23857625100027
 20
66.0
 30
0.0
 10
17.0
 20
66.0
 30
0.0
 10
19.76142374899973
 20
66.0
 30
0.0
 10
22.0
 20
63.76142374899973
 30
0.0
 10
22.0
 20
61.0
 30
0.0
  0
HATCH
  5
FA
330
57
100
AcDbEntity
  8
Nebulae
 62
   123
420
  8374194
100
AcDbHatch
 10
0.0
 20
0.0
 30
0.0
210
0.0
220
0.0
230
1.0
  2
SOLID
 70
     1
 71
     0
 91
        1
 92
        1
 93
        1
 72
     4
 94
        3
 73
     0
 74
     1
 95
       17
 96
       13
 40
0.0
 40
0.0
 40
0.0
 40
0.0
 40
1.0
 40
1.0
 40
1.0
 40
2.0
 40
2.0
 40
2.0
 40
3.0
 40
3.0
 40
3.0
 40
4.0
 40
4.0
 40
4.0
 40
4.0
 10
22.0
 20
61.0
 10
22.0
 20
58.23857625100027
 10
19.76142374899973
 20
56.0
 10
17.0
 20
56.0
 10
14.23857625100027
 20
56.0
 10
12.0
 20
58.23857625100027
 10
12.0
 20
61.0
 10
12.0
 20
63.76142374899973
 10
14.23857625100027
 20
66.0
 10
17.0
 20
66.0
 10
19.76142374899973
 20
66.0
 10
22.0
 20
63.76142374899973
 10
22.0
 20
61.0
 97
        0
 97
        0
 75
     2
 76
     1
 98
        0
  0
INSERT
  5
FC
330
57
100
AcDbEntity
  8
Nebulae
100
AcDbBlockReference
  2
block 17
 10
0.0
 20
0.0
 30
0.0
  0
INSERT
  5
104
330
57
100
AcDbEntity
  8
Nebulae
100
AcDbBlockReference
  2
block 18
 10
0.0
 20
0.0
 30
0.0
  0
SPLINE
  5
10B
330
57
100
AcDbEntity
  8
Nebulae
 62
   253
420
  9874336
370
     9
100
AcDbSpline
210
0.0
220
0.0
230
1.0
 70
    11
 71
     3
 72
    17
 73
    13
 74
     0
 42
0.0000000001
 43
0.0000000001
 12
1.0
 22
0.0
 32
0.0
 13
1.0
 23
0.0
 33
0.0
 40
0.0
 40
0.0
 40
0.0
 40
0.0
 40
1.0
 40
1.0
 40
1.0
 40
2.0
 40
2.0
 40
2.0
 40
3.0
 40
3.0
 40
3.0
 40
4.0
 40
4.0
 40
4.0
 40
4.0
 10
35.0
 20
39.0
 30
0.0
 10
35.0
 20
37.34314575059943
 30
0.0
 10
33.65685424940057
 20
36.0
 30
0.0
 10
32.0
 20
36.0
 30
0.0
 10
30.34314575059943
 20
36.0
 30
0.0
 10
29.0
 20
37.34314575059943
 30
0.0
 10
29.0
 20
39.0
 30
0.0
 10
29.0
 20
40.65685424940057
 30
0.0
 10
30.34314575059943
 20
42.0
 30
0.0
 10
32.0
 20
42.0
 30
0.0
 10
33.65685424940057
 20
42.0
 30
0.0
 10
35.0
 20
40.65685424940057
 30
0.0
 10
35.0
 20
39.0
 30
0.0
  0
HATCH
  5
10C
330
57
100
AcDbEntity
  8
Nebulae
 62
   123
420
  8374194
100
AcDbHatch
 10
0.0
 20
0.0
 30
0.0
210
0.0
220
0.0
230
1.0
  2
SOLID
 70
     1
 71
     0
 91
        1
 92
        1
 93
        1
 72
     4
 94
        3
 73
     0
 74
     1
 95
       17
 96
       13
 40
0.0
 40
0.0
 40
0.0
 40
0.0
 40
1.0
 40
1.0
 40
1.0
 40
2.0
 40
2.0
 40
2.0
 40
3.0
 40
3.0
 40
3.0
 40
4.0
 40
4.0
 40
4.0
 40
4.0
 10
35.0
 20
39.0
 10
35.0
 20
37.34314575059943
 10
33.65685424940057
 20
36.0
 10
32.0
 20
36.0
 10
30.34314575059943
 20
36.0
 10
29.0
 20
37.34314575059943
 10
29.0
 20
39.0
 10
29.0
 20
40.65685424940057
 10
30.34314575059943
 20
42.0
 10
32.0
 20
42.0
 10
33.65685424940057
 20
42.0
 10
35.0
 20
40.65685424940057
 10
35.0
 20
39.0
 97
        0
 97
        0
 75
     2
 76
     1
 98
        0
  0
SPLINE
  5
10D
330
57
100
AcDbEntity
  8
Nebulae
 62
   253
420
  9874336
370
     9
100
AcDbSpline
210
0.0
220
0.0
230
1.0
 70
    11
 71
     3
 72
    17
 73
    13
 74
     0
 42
0.0000000001
 43
0.0000000001
 12
1.0
 22
0.0
 32
0.0
 13
1.0
 23
0.0
 33
0.0
 40
0.0
 40
0.0
 40
0.0
 40
0.0
 40
1.0
 40
1.0
 40
1.0
 40
2.0
 40
2.0
 40
2.0
 40
3.0
 40
3.0
 40
3.0
 40
4.0
 40
4.0
 40
4.0
 40
4.0
 10
9.0
 20
37.0
 30
0.0
 10
9.0
 20
36.44771525020042
 30
0.0
 10
8.552284749799583
 20
36.0
 30
0.0
 10
8.0
 20
36.0
 30
0.0
 10
7.447715250200417
 20
36.0
 30
0.0
 10
7.0
 20
36.44771525020042
 30
0.0
 10
7.0
 20
37.0
 30
0.0
 10
7.0
 20
37.55228474979958
 30
0.0
 10
7.447715250200417
 20
38.0
 30
0.0
 10
8.0
 20
38.0
 30
0.0
 10
8.552284749799583
 20
38.0
 30
0.0
 10
9.0
 20
37.55228474979958
 30
0.0
 10
9.0
 20
37.0
 30
0.0
  0
HATCH
  5
10E
330
57
100
AcDbEntity
  8
Nebulae
 62
   123
420
  8374194
100
AcDbHatch
 10
0.0
 20
0.0
 30
0.0
210
0.0
220
0.0
230
1.0
  2
SOLID
 70
     1
 71
     0
 91
        1
 92
        1
 93
        1
 72
     4
 94
        3
 73
     0
 74
     1
 95
       17
 96
       13
 40
0.0
 40
0.0
 40
0.0
 40
0.0
 40
1.0
 40
1.0
 40
1.0
 40
2.0
 40
2.0
 40
2.0
 40
3.0
 40
3.0
 40
3.0
 40
4.0
 40
4.0
 40
4.0
 40
4.0
 10
9.0
 20
37.0
 10
9.0
 20
36.44771525020042
 10
8.552284749799583
 20
36.0
 10
8.0
 20
36.0
 10
7.447715250200417
 20
36.0
 10
7.0
 20
36.44771525020042
 10
7.0
 20
37.0
 10
7.0
 20
37.55228474979958
 10
7.447715250200417
 20
38.0
 10
8.0
 20
38.0
 10
8.552284749799583
 20
38.0
 10
9.0
 20
37.55228474979958
 10
9.0
 20
37.0
 97
        0
 97
        0
 75
     2
 76
     1
 98
        0
  0
SPLINE
  5
10F
330
57
100
AcDbEntity
  8
Nebulae
 62
   253
420
  9874336
370
     9
100
AcDbSpline
210
0.0
220
0.0
230
1.0
 70
    11
 71
     3
 72
    17
 73
    13
 74
     0
 42
0.0000000001
 43
0.0000000001
 12
1.0
 22
0.0
 32
0.0
 13
1.0
 23
0.0
 33
0.0
 40
0.0
 40
0.0
 40
0.0
 40
0.0
 40
1.0
 40
1.0
 40
1.0
 40
2.0
 40
2.0
 40
2.0
 40
3.0
 40
3.0
 40
3.0
 40
4.0
 40
4.0
 40
4.0
 40
4.0
 10
11.0
 20
37.0
 30
0.0
 10
11.0
 20
36.44771525020042
 30
0.0
 10
10.55228474979958
 20
36.0
 30
0.0
 10
10.0
 20
36.0
 30
0.0
 10
9.447715250200417
 20
36.0
 30
0.0
 10
9.0
 20
36.44771525020042
 30
0.0
 10
9.0
 20
37.0
 30
0.0
 10
9.0
 20
37.55228474979958
 30
0.0
 10
9.447715250200417
 20
38.0
 30
0.0
 10
10.0
 20
38.0
 30
0.0
 10
10.55228474979958
 20
38.0
 30
0.0
 10
11.0
 20
37.55228474979958
 30
0.0
 10
11.0
 20
37.0
 30
0.0
  0
HATCH
  5
110
330
57
100
AcDbEntity
  8
Nebulae
 62
   123
420
  8374194
100
AcDbHatch
 10
0.0
 20
0.0
 30
0.0
210
0.0
220
0.0
230
1.0
  2
SOLID
 70
     1
 71
     0
 91
        1
 92
        1
 93
        1
 72
     4
 94
        3
 73
     0
 74
     1
 95
       17
 96
       13
 40
0.0
 40
0.0
 40
0.0
 40
0.0
 40
1.0
 40
1.0
 40
1.0
 40
2.0
 40
2.0
 40
2.0
 40
3.0
 40
3.0
 40
3.0
 40
4.0
 40
4.0
 40
4.0
 40
4.0
 10
11.0
 20
37.0
 10
11.0
 20
36.44771525020042
 10
10.55228474979958
 20
36.0
 10
10.0
 20
36.0
 10
9.447715250200417
 20
36.0
 10
9.0
 20
36.44771525020042
 10
9.0
 20
37.0
 10
9.0
 20
37.55228474979958
 10
9.447715250200417
 20
38.0
 10
10.0
 20
38.0
 10
10.55228474979958
 20
38.0
 10
11.0
 20
37.55228474979958
 10
11.0
 20
37.0
 97
        0
 97
        0
 75
     2
 76
     1
 98
        0
  0
INSERT
  5
112
330
57
100
AcDbEntity
  8
Nebulae
100
AcDbBlockReference
  2
block 19
 10
0.0
 20
0.0
 30
0.0
  0
SPLINE
  5
119
330
57
100
AcDbEntity
  8
Nebulae
 62
   253
420
  9874336
370
     9
100
AcDbSpline
210
0.0
220
0.0
230
1.0
 70
    11
 71
     3
 72
    17
 73
    13
 74
     0
 42
0.0000000001
 43
0.0000000001
 12
1.0
 22
0.0
 32
0.0
 13
1.0
 23
0.0
 33
0.0
 40
0.0
 40
0.0
 40
0.0
 40
0.0
 40
1.0
 40
1.0
 40
1.0
 40
2.0
 40
2.0
 40
2.0
 40
3.0
 40
3.0
 40
3.0
 40
4.0
 40
4.0
 40
4.0
 40
4.0
 10
173.0
 20
21.0
 30
0.0
 10
173.0
 20
19.34314575059943
 30
0.0
 10
171.6568542494006
 20
18.0
 30
0.0
 10
170.0
 20
18.0
 30
0.0
 10
168.3431457505994
 20
18.0
 30
0.0
 10
167.0
 20
19.34314575059943
 30
0.0
 10
167.0
 20
21.0
 30
0.0
 10
167.0
 20
22.65685424940057
 30
0.0
 10
168.3431457505994
 20
24.0
 30
0.0
 10
170.0
 20
24.0
 30
0.0
 10
171.6568542494006
 20
24.0
 30
0.0
 10
173.0
 20
22.65685424940057
 30
0.0
 10
173.0
 20
21.0
 30
0.0
  0
HATCH
  5
11A
330
57
100
AcDbEntity
  8
Nebulae
 62
   123
420
  8374194
100
AcDbHatch
 10
0.0
 20
0.0
 30
0.0
210
0.0
220
0.0
230
1.0
  2
SOLID
 70
     1
 71
     0
 91
        1
 92
        1
 93
        1
 72
     4
 94
        3
 73
     0
 74
     1
 95
       17
 96
       13
 40
0.0
 40
0.0
 40
0.0
 40
0.0
 40
1.0
 40
1.0
 40
1.0
 40
2.0
 40
2.0
 40
2.0
 40
3.0
 40
3.0
 40
3.0
 40
4.0
 40
4.0
 40
4.0
 40
4.0
 10
173.0
 20
21.0
 10
173.0
 20
19.34314575059943
 10
171.6568542494006
 20
18.0
 10
170.0
 20
18.0
 10
168.3431457505994
 20
18.0
 10
167.0
 20
19.34314575059943
 10
167.0
 20
21.0
 10
167.0
 20
22.65685424940057
 10
168.3431457505994
 20
24.0
 10
170.0
 20
24.0
 10
171.6568542494006
 20
24.0
 10
173.0
 20
22.65685424940057
 10
173.0
 20
21.0
 97
        0
 97
        0
 75
     2
 76
     1
 98
        0
  0
INSERT
  5
11C
330
57
100
AcDbEntity
  8
Nebulae
100
AcDbBlockReference
  2
block 20
 10
0.0
 20
0.0
 30
0.0
  0
INSERT
  5
128
330
57
100
AcDbEntity
  8
Nebulae
100
AcDbBlockReference
  2
block 21
 10
0.0
 20
0.0
 30
0.0
  0
ENDBLK
  5
5A
330
57
100
AcDbEntity
  8
0
100
AcDbBlockEnd
  0
BLOCK
  5
5D
330
5B
100
AcDbEntity
  8
0
100
AcDbBlockBegin
  2
block 4
 70
     0
 10
0.0
 20
0.0
 30
0.0
  3
block 4
  1

  0
SPLINE
  5
5F
330
5B
100
AcDbEntity
  8
Nebulae
 62
   253
420
  9874336
370
     9
100
AcDbSpline
210
0.0
220
0.0
230
1.0
 70
    11
 71
     3
 72
    17
 73
    13
 74
     0
 42
0.0000000001
 43
0.0000000001
 12
1.0
 22
0.0
 32
0.0
 13
1.0
 23
0.0
 33
0.0
 40
0.0
 40
0.0
 40
0.0
 40
0.0
 40
1.0
 40
1.0
 40
1.0
 40
2.0
 40
2.0
 40
2.0
 40
3.0
 40
3.0
 40
3.0
 40
4.0
 40
4.0
 40
4.0
 40
4.0
 10
153.0
 20
212.0
 30
0.0
 10
153.0
 20
210.8954305003999
 30
0.0
 10
152.1045694996001
 20
210.0
 30
0.0
 10
151.0
 20
210.0
 30
0.0
 10
149.8954305003999
 20
210.0
 30
0.0
 10
149.0
 20
210.8954305003999
 30
0.0
 10
149.0
 20
212.0
 30
0.0
 10
149.0
 20
213.1045694996001
 30
0.0
 10
149.8954305003999
 20
214.0
 30
0.0
 10
151.0
 20
214.0
 30
0.0
 10
152.1045694996001
 20
214.0
 30
0.0
 10
153.0
 20
213.1045694996001
 30
0.0
 10
153.0
 20
212.0
 30
0.0
  0
HATCH
  5
60
330
5B
100
AcDbEntity
  8
Nebulae
 62
   123
420
  8374194
100
AcDbHatch
 10
0.0
 20
0.0
 30
0.0
210
0.0
220
0.0
230
1.0
  2
SOLID
 70
     1
 71
     0
 91
        1
 92
        1
 93
        1
 72
     4
 94
        3
 73
     0
 74
     1
 95
       17
 96
       13
 40
0.0
 40
0.0
 40
0.0
 40
0.0
 40
1.0
 40
1.0
 40
1.0
 40
2.0
 40
2.0
 40
2.0
 40
3.0
 40
3.0
 40
3.0
 40
4.0
 40
4.0
 40
4.0
 40
4.0
 10
153.0
 20
212.0
 10
153.0
 20
210.8954305003999
 10
152.1045694996001
 20
210.0
 10
151.0
 20
210.0
 10
149.8954305003999
 20
210.0
 10
149.0
 20
210.8954305003999
 10
149.0
 20
212.0
 10
149.0
 20
213.1045694996001
 10
149.8954305003999
 20
214.0
 10
151.0
 20
214.0
 10
152.1045694996001
 20
214.0
 10
153.0
 20
213.1045694996001
 10
153.0
 20
212.0
 97
        0
 97
        0
 75
     2
 76
     1
 98
        0
  0
SPLINE
  5
61
330
5B
100
AcDbEntity
  8
Nebulae
 62
   253
420
  9874336
370
     9
100
AcDbSpline
210
0.0
220
0.0
230
1.0
 70
    11
 71
     3
 72
    17
 73
    13
 74
     0
 42
0.0000000001
 43
0.0000000001
 12
1.0
 22
0.0
 32
0.0
 13
1.0
 23
0.0
 33
0.0
 40
0.0
 40
0.0
 40
0.0
 40
0.0
 40
1.0
 40
1.0
 40
1.0
 40
2.0
 40
2.0
 40
2.0
 40
3.0
 40
3.0
 40
3.0
 40
4.0
 40
4.0
 40
4.0
 40
4.0
 10
151.0
 20
211.0
 30
0.0
 10
151.0
 20
209.8954305003999
 30
0.0
 10
150.1045694996001
 20
209.0
 30
0.0
 10
149.0
 20
209.0
 30
0.0
 10
147.8954305003999
 20
209.0
 30
0.0
 10
147.0
 20
209.8954305003999
 30
0.0
 10
147.0
 20
211.0
 30
0.0
 10
147.0
 20
212.1045694996001
 30
0.0
 10
147.8954305003999
 20
213.0
 30
0.0
 10
149.0
 20
213.0
 30
0.0
 10
150.1045694996001
 20
213.0
 30
0.0
 10
151.0
 20
212.1045694996001
 30
0.0
 10
151.0
 20
211.0
 30
0.0
  0
HATCH
  5
62
330
5B
100
AcDbEntity
  8
Nebulae
 62
   123
420
  8374194
100
AcDbHatch
 10
0.0
 20
0.0
 30
0.0
210
0.0
220
0.0
230
1.0
  2
SOLID
 70
     1
 71
     0
 91
        1
 92
        1
 93
        1
 72
     4
 94
        3
 73
     0
 74
     1
 95
       17
 96
       13
 40
0.0
 40
0.0
 40
0.0
 40
0.0
 40
1.0
 40
1.0
 40
1.0
 40
2.0
 40
2.0
 40
2.0
 40
3.0
 40
3.0
 40
3.0
 40
4.0
 40
4.0
 40
4.0
 40
4.0
 10
151.0
 20
211.0
 10
151.0
 20
209.8954305003999
 10
150.1045694996001
 20
209.0
 10
149.0
 20
209.0
 10
147.8954305003999
 20
209.0
 10
147.0
 20
209.8954305003999
 10
147.0
 20
211.0
 10
147.0
 20
212.1045694996001
 10
147.8954305003999
 20
213.0
 10
149.0
 20
213.0
 10
150.1045694996001
 20
213.0
 10
151.0
 20
212.1045694996001
 10
151.0
 20
211.0
 97
        0
 97
        0
 75
     2
 76
     1
 98
        0
  0
ENDBLK
  5
5E
330
5B
100
AcDbEntity
  8
0
100
AcDbBlockEnd
  0
BLOCK
  5
6F
330
6D
100
AcDbEntity
  8
0
100
AcDbBlockBegin
  2
block 5
 70
     0
 10
0.0
 20
0.0
 30
0.0
  3
block 5
  1

  0
SPLINE
  5
71
330
6D
100
AcDbEntity
  8
Nebulae
 62
   253
420
  9874336
370
     9
100
AcDbSpline
210
0.0
220
0.0
230
1.0
 70
    11
 71
     3
 72
    17
 73
    13
 74
     0
 42
0.0000000001
 43
0.0000000001
 12
1.0
 22
0.0
 32
0.0
 13
1.0
 23
0.0
 33
0.0
 40
0.0
 40
0.0
 40
0.0
 40
0.0
 40
1.0
 40
1.0
 40
1.0
 40
2.0
 40
2.0
 40
2.0
 40
3.0
 40
3.0
 40
3.0
 40
4.0
 40
4.0
 40
4.0
 40
4.0
 10
22.0
 20
198.0
 30
0.0
 10
22.0
 20
195.2385762510003
 30
0.0
 10
19.76142374899973
 20
193.0
 30
0.0
 10
17.0
 20
193.0
 30
0.0
 10
14.23857625100027
 20
193.0
 30
0.0
 10
12.0
 20
195.2385762510003
 30
0.0
 10
12.0
 20
198.0
 30
0.0
 10
12.0
 20
200.7614237489997
 30
0.0
 10
14.23857625100027
 20
203.0
 30
0.0
 10
17.0
 20
203.0
 30
0.0
 10
19.76142374899973
 20
203.0
 30
0.0
 10
22.0
 20
200.7614237489997
 30
0.0
 10
22.0
 20
198.0
 30
0.0
  0
HATCH
  5
72
330
6D
100
AcDbEntity
  8
Nebulae
 62
   123
420
  8374194
100
AcDbHatch
 10
0.0
 20
0.0
 30
0.0
210
0.0
220
0.0
230
1.0
  2
SOLID
 70
     1
 71
     0
 91
        1
 92
        1
 93
        1
 72
     4
 94
        3
 73
     0
 74
     1
 95
       17
 96
       13
 40
0.0
 40
0.0
 40
0.0
 40
0.0
 40
1.0
 40
1.0
 40
1.0
 40
2.0
 40
2.0
 40
2.0
 40
3.0
 40
3.0
 40
3.0
 40
4.0
 40
4.0
 40
4.0
 40
4.0
 10
22.0
 20
198.0
 10
22.0
 20
195.2385762510003
 10
19.76142374899973
 20
193.0
 10
17.0
 20
193.0
 10
14.23857625100027
 20
193.0
 10
12.0
 20
195.2385762510003
 10
12.0
 20
198.0
 10
12.0
 20
200.7614237489997
 10
14.23857625100027
 20
203.0
 10
17.0
 20
203.0
 10
19.76142374899973
 20
203.0
 10
22.0
 20
200.7614237489997
 10
22.0
 20
198.0
 97
        0
 97
        0
 75
     2
 76
     1
 98
        0
  0
SPLINE
  5
73
330
6D
100
AcDbEntity
  8
Nebulae
 62
   253
420
  9874336
370
     9
100
AcDbSpline
210
0.0
220
0.0
230
1.0
 70
    11
 71
     3
 72
    17
 73
    13
 74
     0
 42
0.0000000001
 43
0.0000000001
 12
1.0
 22
0.0
 32
0.0
 13
1.0
 23
0.0
 33
0.0
 40
0.0
 40
0.0
 40
0.0
 40
0.0
 40
1.0
 40
1.0
 40
1.0
 40
2.0
 40
2.0
 40
2.0
 40
3.0
 40
3.0
 40
3.0
 40
4.0
 40
4.0
 40
4.0
 40
4.0
 10
18.0
 20
195.0
 30
0.0
 10
18.0
 20
192.7908610007999
 30
0.0
 10
16.20913899920015
 20
191.0
 30
0.0
 10
14.0
 20
191.0
 30
0.0
 10
11.79086100079985
 20
191.0
 30
0.0
 10
10.0
 20
192.7908610007999
 30
0.0
 10
10.0
 20
195.0
 30
0.0
 10
10.0
 20
197.2091389992001
 30
0.0
 10
11.79086100079985
 20
199.0
 30
0.0
 10
14.0
 20
199.0
 30
0.0
 10
16.20913899920015
 20
199.0
 30
0.0
 10
18.0
 20
197.2091389992001
 30
0.0
 10
18.0
 20
195.0
 30
0.0
  0
HATCH
  5
74
330
6D
100
AcDbEntity
  8
Nebulae
 62
   123
420
  8374194
100
AcDbHatch
 10
0.0
 20
0.0
 30
0.0
210
0.0
220
0.0
230
1.0
  2
SOLID
 70
     1
 71
     0
 91
        1
 92
        1
 93
        1
 72
     4
 94
        3
 73
     0
 74
     1
 95
       17
 96
       13
 40
0.0
 40
0.0
 40
0.0
 40
0.0
 40
1.0
 40
1.0
 40
1.0
 40
2.0
 40
2.0
 40
2.0
 40
3.0
 40
3.0
 40
3.0
 40
4.0
 40
4.0
 40
4.0
 40
4.0
 10
18.0
 20
195.0
 10
18.0
 20
192.7908610007999
 10
16.20913899920015
 20
191.0
 10
14.0
 20
191.0
 10
11.79086100079985
 20
191.0
 10
10.0
 20
192.7908610007999
 10
10.0
 20
195.0
 10
10.0
 20
197.2091389992001
 10
11.79086100079985
 20
199.0
 10
14.0
 20
199.0
 10
16.20913899920015
 20
199.0
 10
18.0
 20
197.2091389992001
 10
18.0
 20
195.0
 97
        0
 97
        0
 75
     2
 76
     1
 98
        0
  0
SPLINE
  5
75
330
6D
100
AcDbEntity
  8
Nebulae
 62
   253
420
  9874336
370
     9
100
AcDbSpline
210
0.0
220
0.0
230
1.0
 70
    11
 71
     3
 72
    17
 73
    13
 74
     0
 42
0.0000000001
 43
0.0000000001
 12
1.0
 22
0.0
 32
0.0
 13
1.0
 23
0.0
 33
0.0
 40
0.0
 40
0.0
 40
0.0
 40
0.0
 40
1.0
 40
1.0
 40
1.0
 40
2.0
 40
2.0
 40
2.0
 40
3.0
 40
3.0
 40
3.0
 40
4.0
 40
4.0
 40
4.0
 40
4.0
 10
18.0
 20
191.0
 30
0.0
 10
18.0
 20
188.7908610007999
 30
0.0
 10
16.20913899920015
 20
187.0
 30
0.0
 10
14.0
 20
187.0
 30
0.0
 10
11.79086100079985
 20
187.0
 30
0.0
 10
10.0
 20
188.7908610007999
 30
0.0
 10
10.0
 20
191.0
 30
0.0
 10
10.0
 20
193.2091389992001
 30
0.0
 10
11.79086100079985
 20
195.0
 30
0.0
 10
14.0
 20
195.0
 30
0.0
 10
16.20913899920015
 20
195.0
 30
0.0
 10
18.0
 20
193.2091389992001
 30
0.0
 10
18.0
 20
191.0
 30
0.0
  0
HATCH
  5
76
330
6D
100
AcDbEntity
  8
Nebulae
 62
   123
420
  8374194
100
AcDbHatch
 10
0.0
 20
0.0
 30
0.0
210
0.0
220
0.0
230
1.0
  2
SOLID
 70
     1
 71
     0
 91
        1
 92
        1
 93
        1
 72
     4
 94
        3
 73
     0
 74
     1
 95
       17
 96
       13
 40
0.0
 40
0.0
 40
0.0
 40
0.0
 40
1.0
 40
1.0
 40
1.0
 40
2.0
 40
2.0
 40
2.0
 40
3.0
 40
3.0
 40
3.0
 40
4.0
 40
4.0
 40
4.0
 40
4.0
 10
18.0
 20
191.0
 10
18.0
 20
188.7908610007999
 10
16.20913899920015
 20
187.0
 10
14.0
 20
187.0
 10
11.79086100079985
 20
187.0
 10
10.0
 20
188.7908610007999
 10
10.0
 20
191.0
 10
10.0
 20
193.2091389992001
 10
11.79086100079985
 20
195.0
 10
14.0
 20
195.0
 10
16.20913899920015
 20
195.0
 10
18.0
 20
193.2091389992001
 10
18.0
 20
191.0
 97
        0
 97
        0
 75
     2
 76
     1
 98
        0
  0
ENDBLK
  5
70
330
6D
100
AcDbEntity
  8
0
100
AcDbBlockEnd
  0
BLOCK
  5
7D
330
7B
100
AcDbEntity
  8
0
100
AcDbBlockBegin
  2
block 6
 70
     0
 10
0.0
 20
0.0
 30
0.0
  3
block 6
  1

  0
SPLINE
  5
7F
330
7B
100
AcDbEntity
  8
Nebulae
 62
   253
420
  9874336
370
     9
100
AcDbSpline
210
0.0
220
0.0
230
1.0
 70
    11
 71
     3
 72
    17
 73
    13
 74
     0
 42
0.0000000001
 43
0.0000000001
 12
1.0
 22
0.0
 32
0.0
 13
1.0
 23
0.0
 33
0.0
 40
0.0
 40
0.0
 40
0.0
 40
0.0
 40
1.0
 40
1.0
 40
1.0
 40
2.0
 40
2.0
 40
2.0
 40
3.0
 40
3.0
 40
3.0
 40
4.0
 40
4.0
 40
4.0
 40
4.0
 10
105.0
 20
184.0
 30
0.0
 10
105.0
 20
182.3431457505994
 30
0.0
 10
103.6568542494006
 20
181.0
 30
0.0
 10
102.0
 20
181.0
 30
0.0
 10
100.3431457505994
 20
181.0
 30
0.0
 10
99.0
 20
182.3431457505994
 30
0.0
 10
99.0
 20
184.0
 30
0.0
 10
99.0
 20
185.6568542494006
 30
0.0
 10
100.3431457505994
 20
187.0
 30
0.0
 10
102.0
 20
187.0
 30
0.0
 10
103.6568542494006
 20
187.0
 30
0.0
 10
105.0
 20
185.6568542494006
 30
0.0
 10
105.0
 20
184.0
 30
0.0
  0
HATCH
  5
80
330
7B
100
AcDbEntity
  8
Nebulae
 62
   123
420
  8374194
100
AcDbHatch
 10
0.0
 20
0.0
 30
0.0
210
0.0
220
0.0
230
1.0
  2
SOLID
 70
     1
 71
     0
 91
        1
 92
        1
 93
        1
 72
     4
 94
        3
 73
     0
 74
     1
 95
       17
 96
       13
 40
0.0
 40
0.0
 40
0.0
 40
0.0
 40
1.0
 40
1.0
 40
1.0
 40
2.0
 40
2.0
 40
2.0
 40
3.0
 40
3.0
 40
3.0
 40
4.0
 40
4.0
 40
4.0
 40
4.0
 10
105.0
 20
184.0
 10
105.0
 20
182.3431457505994
 10
103.6568542494006
 20
181.0
 10
102.0
 20
181.0
 10
100.3431457505994
 20
181.0
 10
99.0
 20
182.3431457505994
 10
99.0
 20
184.0
 10
99.0
 20
185.6568542494006
 10
100.3431457505994
 20
187.0
 10
102.0
 20
187.0
 10
103.6568542494006
 20
187.0
 10
105.0
 20
185.6568542494006
 10
105.0
 20
184.0
 97
        0
 97
        0
 75
     2
 76
     1
 98
        0
  0
SPLINE
  5
81
330
7B
100
AcDbEntity
  8
Nebulae
 62
   253
420
  9874336
370
     9
100
AcDbSpline
210
0.0
220
0.0
230
1.0
 70
    11
 71
     3
 72
    17
 73
    13
 74
     0
 42
0.0000000001
 43
0.0000000001
 12
1.0
 22
0.0
 32
0.0
 13
1.0
 23
0.0
 33
0.0
 40
0.0
 40
0.0
 40
0.0
 40
0.0
 40
1.0
 40
1.0
 40
1.0
 40
2.0
 40
2.0
 40
2.0
 40
3.0
 40
3.0
 40
3.0
 40
4.0
 40
4.0
 40
4.0
 40
4.0
 10
112.0
 20
180.0
 30
0.0
 10
112.0
 20
177.2385762510003
 30
0.0
 10
109.7614237489997
 20
175.0
 30
0.0
 10
107.0
 20
175.0
 30
0.0
 10
104.2385762510003
 20
175.0
 30
0.0
 10
102.0
 20
177.2385762510003
 30
0.0
 10
102.0
 20
180.0
 30
0.0
 10
102.0
 20
182.7614237489997
 30
0.0
 10
104.2385762510003
 20
185.0
 30
0.0
 10
107.0
 20
185.0
 30
0.0
 10
109.7614237489997
 20
185.0
 30
0.0
 10
112.0
 20
182.7614237489997
 30
0.0
 10
112.0
 20
180.0
 30
0.0
  0
HATCH
  5
82
330
7B
100
AcDbEntity
  8
Nebulae
 62
   123
420
  8374194
100
AcDbHatch
 10
0.0
 20
0.0
 30
0.0
210
0.0
220
0.0
230
1.0
  2
SOLID
 70
     1
 71
     0
 91
        1
 92
        1
 93
        1
 72
     4
 94
        3
 73
     0
 74
     1
 95
       17
 96
       13
 40
0.0
 40
0.0
 40
0.0
 40
0.0
 40
1.0
 40
1.0
 40
1.0
 40
2.0
 40
2.0
 40
2.0
 40
3.0
 40
3.0
 40
3.0
 40
4.0
 40
4.0
 40
4.0
 40
4.0
 10
112.0
 20
180.0
 10
112.0
 20
177.2385762510003
 10
109.7614237489997
 20
175.0
 10
107.0
 20
175.0
 10
104.2385762510003
 20
175.0
 10
102.0
 20
177.2385762510003
 10
102.0
 20
180.0
 10
102.0
 20
182.7614237489997
 10
104.2385762510003
 20
185.0
 10
107.0
 20
185.0
 10
109.7614237489997
 20
185.0
 10
112.0
 20
182.7614237489997
 10
112.0
 20
180.0
 97
        0
 97
        0
 75
     2
 76
     1
 98
        0
  0
SPLINE
  5
83
330
7B
100
AcDbEntity
  8
Nebulae
 62
   253
420
  9874336
370
     9
100
AcDbSpline
210
0.0
220
0.0
230
1.0
 70
    11
 71
     3
 72
    17
 73
    13
 74
     0
 42
0.0000000001
 43
0.0000000001
 12
1.0
 22
0.0
 32
0.0
 13
1.0
 23
0.0
 33
0.0
 40
0.0
 40
0.0
 40
0.0
 40
0.0
 40
1.0
 40
1.0
 40
1.0
 40
2.0
 40
2.0
 40
2.0
 40
3.0
 40
3.0
 40
3.0
 40
4.0
 40
4.0
 40
4.0
 40
4.0
 10
103.0
 20
179.0
 30
0.0
 10
103.0
 20
177.8954305003999
 30
0.0
 10
102.1045694996001
 20
177.0
 30
0.0
 10
101.0
 20
177.0
 30
0.0
 10
99.89543050039993
 20
177.0
 30
0.0
 10
99.0
 20
177.8954305003999
 30
0.0
 10
99.0
 20
179.0
 30
0.0
 10
99.0
 20
180.1045694996001
 30
0.0
 10
99.89543050039993
 20
181.0
 30
0.0
 10
101.0
 20
181.0
 30
0.0
 10
102.1045694996001
 20
181.0
 30
0.0
 10
103.0
 20
180.1045694996001
 30
0.0
 10
103.0
 20
179.0
 30
0.0
  0
HATCH
  5
84
330
7B
100
AcDbEntity
  8
Nebulae
 62
   123
420
  8374194
100
AcDbHatch
 10
0.0
 20
0.0
 30
0.0
210
0.0
220
0.0
230
1.0
  2
SOLID
 70
     1
 71
     0
 91
        1
 92
        1
 93
        1
 72
     4
 94
        3
 73
     0
 74
     1
 95
       17
 96
       13
 40
0.0
 40
0.0
 40
0.0
 40
0.0
 40
1.0
 40
1.0
 40
1.0
 40
2.0
 40
2.0
 40
2.0
 40
3.0
 40
3.0
 40
3.0
 40
4.0
 40
4.0
 40
4.0
 40
4.0
 10
103.0
 20
179.0
 10
103.0
 20
177.8954305003999
 10
102.1045694996001
 20
177.0
 10
101.0
 20
177.0
 10
99.89543050039993
 20
177.0
 10
99.0
 20
177.8954305003999
 10
99.0
 20
179.0
 10
99.0
 20
180.1045694996001
 10
99.89543050039993
 20
181.0
 10
101.0
 20
181.0
 10
102.1045694996001
 20
181.0
 10
103.0
 20
180.1045694996001
 10
103.0
 20
179.0
 97
        0
 97
        0
 75
     2
 76
     1
 98
        0
  0
ENDBLK
  5
7E
330
7B
100
AcDbEntity
  8
0
100
AcDbBlockEnd
  0
BLOCK
  5
87
330
85
100
AcDbEntity
  8
0
100
AcDbBlockBegin
  2
block 7
 70
     0
 10
0.0
 20
0.0
 30
0.0
  3
block 7
  1

  0
SPLINE
  5
89
330
85
100
AcDbEntity
  8
Nebulae
 62
   253
420
  9874336
370
     9
100
AcDbSpline
210
0.0
220
0.0
230
1.0
 70
    11
 71
     3
 72
    17
 73
    13
 74
     0
 42
0.0000000001
 43
0.0000000001
 12
1.0
 22
0.0
 32
0.0
 13
1.0
 23
0.0
 33
0.0
 40
0.0
 40
0.0
 40
0.0
 40
0.0
 40
1.0
 40
1.0
 40
1.0
 40
2.0
 40
2.0
 40
2.0
 40
3.0
 40
3.0
 40
3.0
 40
4.0
 40
4.0
 40
4.0
 40
4.0
 10
220.0
 20
184.0
 30
0.0
 10
220.0
 20
182.8954305003999
 30
0.0
 10
219.1045694996001
 20
182.0
 30
0.0
 10
218.0
 20
182.0
 30
0.0
 10
216.8954305003999
 20
182.0
 30
0.0
 10
216.0
 20
182.8954305003999
 30
0.0
 10
216.0
 20
184.0
 30
0.0
 10
216.0
 20
185.1045694996001
 30
0.0
 10
216.8954305003999
 20
186.0
 30
0.0
 10
218.0
 20
186.0
 30
0.0
 10
219.1045694996001
 20
186.0
 30
0.0
 10
220.0
 20
185.1045694996001
 30
0.0
 10
220.0
 20
184.0
 30
0.0
  0
HATCH
  5
8A
330
85
100
AcDbEntity
  8
Nebulae
 62
   123
420
  8374194
100
AcDbHatch
 10
0.0
 20
0.0
 30
0.0
210
0.0
220
0.0
230
1.0
  2
SOLID
 70
     1
 71
     0
 91
        1
 92
        1
 93
        1
 72
     4
 94
        3
 73
     0
 74
     1
 95
       17
 96
       13
 40
0.0
 40
0.0
 40
0.0
 40
0.0
 40
1.0
 40
1.0
 40
1.0
 40
2.0
 40
2.0
 40
2.0
 40
3.0
 40
3.0
 40
3.0
 40
4.0
 40
4.0
 40
4.0
 40
4.0
 10
220.0
 20
184.0
 10
220.0
 20
182.8954305003999
 10
219.1045694996001
 20
182.0
 10
218.0
 20
182.0
 10
216.8954305003999
 20
182.0
 10
216.0
 20
182.8954305003999
 10
216.0
 20
184.0
 10
216.0
 20
185.1045694996001
 10
216.8954305003999
 20
186.0
 10
218.0
 20
186.0
 10
219.1045694996001
 20
186.0
 10
220.0
 20
185.1045694996001
 10
220.0
 20
184.0
 97
        0
 97
        0
 75
     2
 76
     1
 98
        0
  0
SPLINE
  5
8B
330
85
100
AcDbEntity
  8
Nebulae
 62
   253
420
  9874336
370
     9
100
AcDbSpline
210
0.0
220
0.0
230
1.0
 70
    11
 71
     3
 72
    17
 73
    13
 74
     0
 42
0.0000000001
 43
0.0000000001
 12
1.0
 22
0.0
 32
0.0
 13
1.0
 23
0.0
 33
0.0
 40
0.0
 40
0.0
 40
0.0
 40
0.0
 40
1.0
 40
1.0
 40
1.0
 40
2.0
 40
2.0
 40
2.0
 40
3.0
 40
3.0
 40
3.0
 40
4.0
 40
4.0
 40
4.0
 40
4.0
 10
235.0
 20
181.0
 30
0.0
 10
235.0
 20
178.7908610007999
 30
0.0
 10
233.2091389992001
 20
177.0
 30
0.0
 10
231.0
 20
177.0
 30
0.0
 10
228.7908610007999
 20
177.0
 30
0.0
 10
227.0
 20
178.7908610007999
 30
0.0
 10
227.0
 20
181.0
 30
0.0
 10
227.0
 20
183.2091389992001
 30
0.0
 10
228.7908610007999
 20
185.0
 30
0.0
 10
231.0
 20
185.0
 30
0.0
 10
233.2091389992001
 20
185.0
 30
0.0
 10
235.0
 20
183.2091389992001
 30
0.0
 10
235.0
 20
181.0
 30
0.0
  0
HATCH
  5
8C
330
85
100
AcDbEntity
  8
Nebulae
 62
   123
420
  8374194
100
AcDbHatch
 10
0.0
 20
0.0
 30
0.0
210
0.0
220
0.0
230
1.0
  2
SOLID
 70
     1
 71
     0
 91
        1
 92
        1
 93
        1
 72
     4
 94
        3
 73
     0
 74
     1
 95
       17
 96
       13
 40
0.0
 40
0.0
 40
0.0
 40
0.0
 40
1.0
 40
1.0
 40
1.0
 40
2.0
 40
2.0
 40
2.0
 40
3.0
 40
3.0
 40
3.0
 40
4.0
 40
4.0
 40
4.0
 40
4.0
 10
235.0
 20
181.0
 10
235.0
 20
178.7908610007999
 10
233.2091389992001
 20
177.0
 10
231.0
 20
177.0
 10
228.7908610007999
 20
177.0
 10
227.0
 20
178.7908610007999
 10
227.0
 20
181.0
 10
227.0
 20
183.2091389992001
 10
228.7908610007999
 20
185.0
 10
231.0
 20
185.0
 10
233.2091389992001
 20
185.0
 10
235.0
 20
183.2091389992001
 10
235.0
 20
181.0
 97
        0
 97
        0
 75
     2
 76
     1
 98
        0
  0
SPLINE
  5
8D
330
85
100
AcDbEntity
  8
Nebulae
 62
   253
420
  9874336
370
     9
100
AcDbSpline
210
0.0
220
0.0
230
1.0
 70
    11
 71
     3
 72
    17
 73
    13
 74
     0
 42
0.0000000001
 43
0.0000000001
 12
1.0
 22
0.0
 32
0.0
 13
1.0
 23
0.0
 33
0.0
 40
0.0
 40
0.0
 40
0.0
 40
0.0
 40
1.0
 40
1.0
 40
1.0
 40
2.0
 40
2.0
 40
2.0
 40
3.0
 40
3.0
 40
3.0
 40
4.0
 40
4.0
 40
4.0
 40
4.0
 10
223.0
 20
178.0
 30
0.0
 10
223.0
 20
174.6862915012007
 30
0.0
 10
220.3137084987993
 20
172.0
 30
0.0
 10
217.0
 20
172.0
 30
0.0
 10
213.6862915012007
 20
172.0
 30
0.0
 10
211.0
 20
174.6862915012007
 30
0.0
 10
211.0
 20
178.0
 30
0.0
 10
211.0
 20
181.3137084987993
 30
0.0
 10
213.6862915012007
 20
184.0
 30
0.0
 10
217.0
 20
184.0
 30
0.0
 10
220.3137084987993
 20
184.0
 30
0.0
 10
223.0
 20
181.3137084987993
 30
0.0
 10
223.0
 20
178.0
 30
0.0
  0
HATCH
  5
8E
330
85
100
AcDbEntity
  8
Nebulae
 62
   123
420
  8374194
100
AcDbHatch
 10
0.0
 20
0.0
 30
0.0
210
0.0
220
0.0
230
1.0
  2
SOLID
 70
     1
 71
     0
 91
        1
 92
        1
 93
        1
 72
     4
 94
        3
 73
     0
 74
     1
 95
       17
 96
       13
 40
0.0
 40
0.0
 40
0.0
 40
0.0
 40
1.0
 40
1.0
 40
1.0
 40
2.0
 40
2.0
 40
2.0
 40
3.0
 40
3.0
 40
3.0
 40
4.0
 40
4.0
 40
4.0
 40
4.0
 10
223.0
 20
178.0
 10
223.0
 20
174.6862915012007
 10
220.3137084987993
 20
172.0
 10
217.0
 20
172.0
 10
213.6862915012007
 20
172.0
 10
211.0
 20
174.6862915012007
 10
211.0
 20
178.0
 10
211.0
 20
181.3137084987993
 10
213.6862915012007
 20
184.0
 10
217.0
 20
184.0
 10
220.3137084987993
 20
184.0
 10
223.0
 20
181.3137084987993
 10
223.0
 20
178.0
 97
        0
 97
        0
 75
     2
 76
     1
 98
        0
  0
SPLINE
  5
8F
330
85
100
AcDbEntity
  8
Nebulae
 62
   253
420
  9874336
370
     9
100
AcDbSpline
210
0.0
220
0.0
230
1.0
 70
    11
 71
     3
 72
    17
 73
    13
 74
     0
 42
0.0000000001
 43
0.0000000001
 12
1.0
 22
0.0
 32
0.0
 13
1.0
 23
0.0
 33
0.0
 40
0.0
 40
0.0
 40
0.0
 40
0.0
 40
1.0
 40
1.0
 40
1.0
 40
2.0
 40
2.0
 40
2.0
 40
3.0
 40
3.0
 40
3.0
 40
4.0
 40
4.0
 40
4.0
 40
4.0
 10
234.0
 20
174.0
 30
0.0
 10
234.0
 20
169.0294372518001
 30
0.0
 10
229.9705627481999
 20
165.0
 30
0.0
 10
225.0
 20
165.0
 30
0.0
 10
220.0294372518001
 20
165.0
 30
0.0
 10
216.0
 20
169.0294372518001
 30
0.0
 10
216.0
 20
174.0
 30
0.0
 10
216.0
 20
178.9705627481999
 30
0.0
 10
220.0294372518001
 20
183.0
 30
0.0
 10
225.0
 20
183.0
 30
0.0
 10
229.9705627481999
 20
183.0
 30
0.0
 10
234.0
 20
178.9705627481999
 30
0.0
 10
234.0
 20
174.0
 30
0.0
  0
HATCH
  5
90
330
85
100
AcDbEntity
  8
Nebulae
 62
   123
420
  8374194
100
AcDbHatch
 10
0.0
 20
0.0
 30
0.0
210
0.0
220
0.0
230
1.0
  2
SOLID
 70
     1
 71
     0
 91
        1
 92
        1
 93
        1
 72
     4
 94
        3
 73
     0
 74
     1
 95
       17
 96
       13
 40
0.0
 40
0.0
 40
0.0
 40
0.0
 40
1.0
 40
1.0
 40
1.0
 40
2.0
 40
2.0
 40
2.0
 40
3.0
 40
3.0
 40
3.0
 40
4.0
 40
4.0
 40
4.0
 40
4.0
 10
234.0
 20
174.0
 10
234.0
 20
169.0294372518001
 10
229.9705627481999
 20
165.0
 10
225.0
 20
165.0
 10
220.0294372518001
 20
165.0
 10
216.0
 20
169.0294372518001
 10
216.0
 20
174.0
 10
216.0
 20
178.9705627481999
 10
220.0294372518001
 20
183.0
 10
225.0
 20
183.0
 10
229.9705627481999
 20
183.0
 10
234.0
 20
178.9705627481999
 10
234.0
 20
174.0
 97
        0
 97
        0
 75
     2
 76
     1
 98
        0
  0
ENDBLK
  5
88
330
85
100
AcDbEntity
  8
0
100
AcDbBlockEnd
  0
BLOCK
  5
99
330
97
100
AcDbEntity
  8
0
100
AcDbBlockBegin
  2
block 8
 70
     0
 10
0.0
 20
0.0
 30
0.0
  3
block 8
  1

  0
SPLINE
  5
9B
330
97
100
AcDbEntity
  8
Nebulae
 62
   253
420
  9874336
370
     9
100
AcDbSpline
210
0.0
220
0.0
230
1.0
 70
    11
 71
     3
 72
    17
 73
    13
 74
     0
 42
0.0000000001
 43
0.0000000001
 12
1.0
 22
0.0
 32
0.0
 13
1.0
 23
0.0
 33
0.0
 40
0.0
 40
0.0
 40
0.0
 40
0.0
 40
1.0
 40
1.0
 40
1.0
 40
2.0
 40
2.0
 40
2.0
 40
3.0
 40
3.0
 40
3.0
 40
4.0
 40
4.0
 40
4.0
 40
4.0
 10
102.0
 20
156.0
 30
0.0
 10
102.0
 20
154.8954305003999
 30
0.0
 10
101.1045694996001
 20
154.0
 30
0.0
 10
100.0
 20
154.0
 30
0.0
 10
98.89543050039993
 20
154.0
 30
0.0
 10
98.0
 20
154.8954305003999
 30
0.0
 10
98.0
 20
156.0
 30
0.0
 10
98.0
 20
157.1045694996001
 30
0.0
 10
98.89543050039993
 20
158.0
 30
0.0
 10
100.0
 20
158.0
 30
0.0
 10
101.1045694996001
 20
158.0
 30
0.0
 10
102.0
 20
157.1045694996001
 30
0.0
 10
102.0
 20
156.0
 30
0.0
  0
HATCH
  5
9C
330
97
100
AcDbEntity
  8
Nebulae
 62
   123
420
  8374194
100
AcDbHatch
 10
0.0
 20
0.0
 30
0.0
210
0.0
220
0.0
230
1.0
  2
SOLID
 70
     1
 71
     0
 91
        1
 92
        1
 93
        1
 72
     4
 94
        3
 73
     0
 74
     1
 95
       17
 96
       13
 40
0.0
 40
0.0
 40
0.0
 40
0.0
 40
1.0
 40
1.0
 40
1.0
 40
2.0
 40
2.0
 40
2.0
 40
3.0
 40
3.0
 40
3.0
 40
4.0
 40
4.0
 40
4.0
 40
4.0
 10
102.0
 20
156.0
 10
102.0
 20
154.8954305003999
 10
101.1045694996001
 20
154.0
 10
100.0
 20
154.0
 10
98.89543050039993
 20
154.0
 10
98.0
 20
154.8954305003999
 10
98.0
 20
156.0
 10
98.0
 20
157.1045694996001
 10
98.89543050039993
 20
158.0
 10
100.0
 20
158.0
 10
101.1045694996001
 20
158.0
 10
102.0
 20
157.1045694996001
 10
102.0
 20
156.0
 97
        0
 97
        0
 75
     2
 76
     1
 98
        0
  0
SPLINE
  5
9D
330
97
100
AcDbEntity
  8
Nebulae
 62
   253
420
  9874336
370
     9
100
AcDbSpline
210
0.0
220
0.0
230
1.0
 70
    11
 71
     3
 72
    17
 73
    13
 74
     0
 42
0.0000000001
 43
0.0000000001
 12
1.0
 22
0.0
 32
0.0
 13
1.0
 23
0.0
 33
0.0
 40
0.0
 40
0.0
 40
0.0
 40
0.0
 40
1.0
 40
1.0
 40
1.0
 40
2.0
 40
2.0
 40
2.0
 40
3.0
 40
3.0
 40
3.0
 40
4.0
 40
4.0
 40
4.0
 40
4.0
 10
100.0
 20
153.0
 30
0.0
 10
100.0
 20
151.8954305003999
 30
0.0
 10
99.10456949960007
 20
151.0
 30
0.0
 10
98.0
 20
151.0
 30
0.0
 10
96.89543050039993
 20
151.0
 30
0.0
 10
96.0
 20
151.8954305003999
 30
0.0
 10
96.0
 20
153.0
 30
0.0
 10
96.0
 20
154.1045694996001
 30
0.0
 10
96.89543050039993
 20
155.0
 30
0.0
 10
98.0
 20
155.0
 30
0.0
 10
99.10456949960007
 20
155.0
 30
0.0
 10
100.0
 20
154.1045694996001
 30
0.0
 10
100.0
 20
153.0
 30
0.0
  0
HATCH
  5
9E
330
97
100
AcDbEntity
  8
Nebulae
 62
   123
420
  8374194
100
AcDbHatch
 10
0.0
 20
0.0
 30
0.0
210
0.0
220
0.0
230
1.0
  2
SOLID
 70
     1
 71
     0
 91
        1
 92
        1
 93
        1
 72
     4
 94
        3
 73
     0
 74
     1
 95
       17
 96
       13
 40
0.0
 40
0.0
 40
0.0
 40
0.0
 40
1.0
 40
1.0
 40
1.0
 40
2.0
 40
2.0
 40
2.0
 40
3.0
 40
3.0
 40
3.0
 40
4.0
 40
4.0
 40
4.0
 40
4.0
 10
100.0
 20
153.0
 10
100.0
 20
151.8954305003999
 10
99.10456949960007
 20
151.0
 10
98.0
 20
151.0
 10
96.89543050039993
 20
151.0
 10
96.0
 20
151.8954305003999
 10
96.0
 20
153.0
 10
96.0
 20
154.1045694996001
 10
96.89543050039993
 20
155.0
 10
98.0
 20
155.0
 10
99.10456949960007
 20
155.0
 10
100.0
 20
154.1045694996001
 10
100.0
 20
153.0
 97
        0
 97
        0
 75
     2
 76
     1
 98
        0
  0
ENDBLK
  5
9A
330
97
100
AcDbEntity
  8
0
100
AcDbBlockEnd
  0
BLOCK
  5
A1
330
9F
100
AcDbEntity
  8
0
100
AcDbBlockBegin
  2
block 9
 70
     0
 10
0.0
 20
0.0
 30
0.0
  3
block 9
  1

  0
SPLINE
  5
A3
330
9F
100
AcDbEntity
  8
Nebulae
 62
   253
420
  9874336
370
     9
100
AcDbSpline
210
0.0
220
0.0
230
1.0
 70
    11
 71
     3
 72
    17
 73
    13
 74
     0
 42
0.0000000001
 43
0.0000000001
 12
1.0
 22
0.0
 32
0.0
 13
1.0
 23
0.0
 33
0.0
 40
0.0
 40
0.0
 40
0.0
 40
0.0
 40
1.0
 40
1.0
 40
1.0
 40
2.0
 40
2.0
 40
2.0
 40
3.0
 40
3.0
 40
3.0
 40
4.0
 40
4.0
 40
4.0
 40
4.0
 10
61.0
 20
144.0
 30
0.0
 10
61.0
 20
141.2385762510003
 30
0.0
 10
58.76142374899973
 20
139.0
 30
0.0
 10
56.0
 20
139.0
 30
0.0
 10
53.23857625100027
 20
139.0
 30
0.0
 10
51.0
 20
141.2385762510003
 30
0.0
 10
51.0
 20
144.0
 30
0.0
 10
51.0
 20
146.7614237489997
 30
0.0
 10
53.23857625100027
 20
149.0
 30
0.0
 10
56.0
 20
149.0
 30
0.0
 10
58.76142374899973
 20
149.0
 30
0.0
 10
61.0
 20
146.7614237489997
 30
0.0
 10
61.0
 20
144.0
 30
0.0
  0
HATCH
  5
A4
330
9F
100
AcDbEntity
  8
Nebulae
 62
   123
420
  8374194
100
AcDbHatch
 10
0.0
 20
0.0
 30
0.0
210
0.0
220
0.0
230
1.0
  2
SOLID
 70
     1
 71
     0
 91
        1
 92
        1
 93
        1
 72
     4
 94
        3
 73
     0
 74
     1
 95
       17
 96
       13
 40
0.0
 40
0.0
 40
0.0
 40
0.0
 40
1.0
 40
1.0
 40
1.0
 40
2.0
 40
2.0
 40
2.0
 40
3.0
 40
3.0
 40
3.0
 40
4.0
 40
4.0
 40
4.0
 40
4.0
 10
61.0
 20
144.0
 10
61.0
 20
141.2385762510003
 10
58.76142374899973
 20
139.0
 10
56.0
 20
139.0
 10
53.23857625100027
 20
139.0
 10
51.0
 20
141.2385762510003
 10
51.0
 20
144.0
 10
51.0
 20
146.7614237489997
 10
53.23857625100027
 20
149.0
 10
56.0
 20
149.0
 10
58.76142374899973
 20
149.0
 10
61.0
 20
146.7614237489997
 10
61.0
 20
144.0
 97
        0
 97
        0
 75
     2
 76
     1
 98
        0
  0
SPLINE
  5
A5
330
9F
100
AcDbEntity
  8
Nebulae
 62
   253
420
  9874336
370
     9
100
AcDbSpline
210
0.0
220
0.0
230
1.0
 70
    11
 71
     3
 72
    17
 73
    13
 74
     0
 42
0.0000000001
 43
0.0000000001
 12
1.0
 22
0.0
 32
0.0
 13
1.0
 23
0.0
 33
0.0
 40
0.0
 40
0.0
 40
0.0
 40
0.0
 40
1.0
 40
1.0
 40
1.0
 40
2.0
 40
2.0
 40
2.0
 40
3.0
 40
3.0
 40
3.0
 40
4.0
 40
4.0
 40
4.0
 40
4.0
 10
63.0
 20
142.0
 30
0.0
 10
63.0
 20
139.7908610007999
 30
0.0
 10
61.20913899920015
 20
138.0
 30
0.0
 10
59.0
 20
138.0
 30
0.0
 10
56.79086100079985
 20
138.0
 30
0.0
 10
55.0
 20
139.7908610007999
 30
0.0
 10
55.0
 20
142.0
 30
0.0
 10
55.0
 20
144.2091389992001
 30
0.0
 10
56.79086100079985
 20
146.0
 30
0.0
 10
59.0
 20
146.0
 30
0.0
 10
61.20913899920015
 20
146.0
 30
0.0
 10
63.0
 20
144.2091389992001
 30
0.0
 10
63.0
 20
142.0
 30
0.0
  0
HATCH
  5
A6
330
9F
100
AcDbEntity
  8
Nebulae
 62
   123
420
  8374194
100
AcDbHatch
 10
0.0
 20
0.0
 30
0.0
210
0.0
220
0.0
230
1.0
  2
SOLID
 70
     1
 71
     0
 91
        1
 92
        1
 93
        1
 72
     4
 94
        3
 73
     0
 74
     1
 95
       17
 96
       13
 40
0.0
 40
0.0
 40
0.0
 40
0.0
 40
1.0
 40
1.0
 40
1.0
 40
2.0
 40
2.0
 40
2.0
 40
3.0
 40
3.0
 40
3.0
 40
4.0
 40
4.0
 40
4.0
 40
4.0
 10
63.0
 20
142.0
 10
63.0
 20
139.7908610007999
 10
61.20913899920015
 20
138.0
 10
59.0
 20
138.0
 10
56.79086100079985
 20
138.0
 10
55.0
 20
139.7908610007999
 10
55.0
 20
142.0
 10
55.0
 20
144.2091389992001
 10
56.79086100079985
 20
146.0
 10
59.0
 20
146.0
 10
61.20913899920015
 20
146.0
 10
63.0
 20
144.2091389992001
 10
63.0
 20
142.0
 97
        0
 97
        0
 75
     2
 76
     1
 98
        0
  0
ENDBLK
  5
A2
330
9F
100
AcDbEntity
  8
0
100
AcDbBlockEnd
  0
BLOCK
  5
A9
330
A7
100
AcDbEntity
  8
0
100
AcDbBlockBegin
  2
block 10
 70
     0
 10
0.0
 20
0.0
 30
0.0
  3
block 10
  1

  0
SPLINE
  5
AB
330
A7
100
AcDbEntity
  8
Nebulae
 62
   253
420
  9874336
370
     9
100
AcDbSpline
210
0.0
220
0.0
230
1.0
 70
    11
 71
     3
 72
    17
 73
    13
 74
     0
 42
0.0000000001
 43
0.0000000001
 12
1.0
 22
0.0
 32
0.0
 13
1.0
 23
0.0
 33
0.0
 40
0.0
 40
0.0
 40
0.0
 40
0.0
 40
1.0
 40
1.0
 40
1.0
 40
2.0
 40
2.0
 40
2.0
 40
3.0
 40
3.0
 40
3.0
 40
4.0
 40
4.0
 40
4.0
 40
4.0
 10
87.0
 20
148.0
 30
0.0
 10
87.0
 20
144.1340067513993
 30
0.0
 10
83.86599324860072
 20
141.0
 30
0.0
 10
80.0
 20
141.0
 30
0.0
 10
76.13400675139928
 20
141.0
 30
0.0
 10
73.0
 20
144.1340067513993
 30
0.0
 10
73.0
 20
148.0
 30
0.0
 10
73.0
 20
151.8659932486007
 30
0.0
 10
76.13400675139928
 20
155.0
 30
0.0
 10
80.0
 20
155.0
 30
0.0
 10
83.86599324860072
 20
155.0
 30
0.0
 10
87.0
 20
151.8659932486007
 30
0.0
 10
87.0
 20
148.0
 30
0.0
  0
HATCH
  5
AC
330
A7
100
AcDbEntity
  8
Nebulae
 62
   123
420
  8374194
100
AcDbHatch
 10
0.0
 20
0.0
 30
0.0
210
0.0
220
0.0
230
1.0
  2
SOLID
 70
     1
 71
     0
 91
        1
 92
        1
 93
        1
 72
     4
 94
        3
 73
     0
 74
     1
 95
       17
 96
       13
 40
0.0
 40
0.0
 40
0.0
 40
0.0
 40
1.0
 40
1.0
 40
1.0
 40
2.0
 40
2.0
 40
2.0
 40
3.0
 40
3.0
 40
3.0
 40
4.0
 40
4.0
 40
4.0
 40
4.0
 10
87.0
 20
148.0
 10
87.0
 20
144.1340067513993
 10
83.86599324860072
 20
141.0
 10
80.0
 20
141.0
 10
76.13400675139928
 20
141.0
 10
73.0
 20
144.1340067513993
 10
73.0
 20
148.0
 10
73.0
 20
151.8659932486007
 10
76.13400675139928
 20
155.0
 10
80.0
 20
155.0
 10
83.86599324860072
 20
155.0
 10
87.0
 20
151.8659932486007
 10
87.0
 20
148.0
 97
        0
 97
        0
 75
     2
 76
     1
 98
        0
  0
SPLINE
  5
AD
330
A7
100
AcDbEntity
  8
Nebulae
 62
   253
420
  9874336
370
     9
100
AcDbSpline
210
0.0
220
0.0
230
1.0
 70
    11
 71
     3
 72
    17
 73
    13
 74
     0
 42
0.0000000001
 43
0.0000000001
 12
1.0
 22
0.0
 32
0.0
 13
1.0
 23
0.0
 33
0.0
 40
0.0
 40
0.0
 40
0.0
 40
0.0
 40
1.0
 40
1.0
 40
1.0
 40
2.0
 40
2.0
 40
2.0
 40
3.0
 40
3.0
 40
3.0
 40
4.0
 40
4.0
 40
4.0
 40
4.0
 10
91.0
 20
146.0
 30
0.0
 10
91.0
 20
144.3431457505994
 30
0.0
 10
89.65685424940057
 20
143.0
 30
0.0
 10
88.0
 20
143.0
 30
0.0
 10
86.34314575059943
 20
143.0
 30
0.0
 10
85.0
 20
144.3431457505994
 30
0.0
 10
85.0
 20
146.0
 30
0.0
 10
85.0
 20
147.6568542494006
 30
0.0
 10
86.34314575059943
 20
149.0
 30
0.0
 10
88.0
 20
149.0
 30
0.0
 10
89.65685424940057
 20
149.0
 30
0.0
 10
91.0
 20
147.6568542494006
 30
0.0
 10
91.0
 20
146.0
 30
0.0
  0
HATCH
  5
AE
330
A7
100
AcDbEntity
  8
Nebulae
 62
   123
420
  8374194
100
AcDbHatch
 10
0.0
 20
0.0
 30
0.0
210
0.0
220
0.0
230
1.0
  2
SOLID
 70
     1
 71
     0
 91
        1
 92
        1
 93
        1
 72
     4
 94
        3
 73
     0
 74
     1
 95
       17
 96
       13
 40
0.0
 40
0.0
 40
0.0
 40
0.0
 40
1.0
 40
1.0
 40
1.0
 40
2.0
 40
2.0
 40
2.0
 40
3.0
 40
3.0
 40
3.0
 40
4.0
 40
4.0
 40
4.0
 40
4.0
 10
91.0
 20
146.0
 10
91.0
 20
144.3431457505994
 10
89.65685424940057
 20
143.0
 10
88.0
 20
143.0
 10
86.34314575059943
 20
143.0
 10
85.0
 20
144.3431457505994
 10
85.0
 20
146.0
 10
85.0
 20
147.6568542494006
 10
86.34314575059943
 20
149.0
 10
88.0
 20
149.0
 10
89.65685424940057
 20
149.0
 10
91.0
 20
147.6568542494006
 10
91.0
 20
146.0
 97
        0
 97
        0
 75
     2
 76
     1
 98
        0
  0
SPLINE
  5
AF
330
A7
100
AcDbEntity
  8
Nebulae
 62
   253
420
  9874336
370
     9
100
AcDbSpline
210
0.0
220
0.0
230
1.0
 70
    11
 71
     3
 72
    17
 73
    13
 74
     0
 42
0.0000000001
 43
0.0000000001
 12
1.0
 22
0.0
 32
0.0
 13
1.0
 23
0.0
 33
0.0
 40
0.0
 40
0.0
 40
0.0
 40
0.0
 40
1.0
 40
1.0
 40
1.0
 40
2.0
 40
2.0
 40
2.0
 40
3.0
 40
3.0
 40
3.0
 40
4.0
 40
4.0
 40
4.0
 40
4.0
 10
79.0
 20
141.0
 30
0.0
 10
79.0
 20
139.3431457505994
 30
0.0
 10
77.65685424940057
 20
138.0
 30
0.0
 10
76.0
 20
138.0
 30
0.0
 10
74.34314575059943
 20
138.0
 30
0.0
 10
73.0
 20
139.3431457505994
 30
0.0
 10
73.0
 20
141.0
 30
0.0
 10
73.0
 20
142.6568542494006
 30
0.0
 10
74.34314575059943
 20
144.0
 30
0.0
 10
76.0
 20
144.0
 30
0.0
 10
77.65685424940057
 20
144.0
 30
0.0
 10
79.0
 20
142.6568542494006
 30
0.0
 10
79.0
 20
141.0
 30
0.0
  0
HATCH
  5
B0
330
A7
100
AcDbEntity
  8
Nebulae
 62
   123
420
  8374194
100
AcDbHatch
 10
0.0
 20
0.0
 30
0.0
210
0.0
220
0.0
230
1.0
  2
SOLID
 70
     1
 71
     0
 91
        1
 92
        1
 93
        1
 72
     4
 94
        3
 73
     0
 74
     1
 95
       17
 96
       13
 40
0.0
 40
0.0
 40
0.0
 40
0.0
 40
1.0
 40
1.0
 40
1.0
 40
2.0
 40
2.0
 40
2.0
 40
3.0
 40
3.0
 40
3.0
 40
4.0
 40
4.0
 40
4.0
 40
4.0
 10
79.0
 20
141.0
 10
79.0
 20
139.3431457505994
 10
77.65685424940057
 20
138.0
 10
76.0
 20
138.0
 10
74.34314575059943
 20
138.0
 10
73.0
 20
139.3431457505994
 10
73.0
 20
141.0
 10
73.0
 20
142.6568542494006
 10
74.34314575059943
 20
144.0
 10
76.0
 20
144.0
 10
77.65685424940057
 20
144.0
 10
79.0
 20
142.6568542494006
 10
79.0
 20
141.0
 97
        0
 97
        0
 75
     2
 76
     1
 98
        0
  0
ENDBLK
  5
AA
330
A7
100
AcDbEntity
  8
0
100
AcDbBlockEnd
  0
BLOCK
  5
B3
330
B1
100
AcDbEntity
  8
0
100
AcDbBlockBegin
  2
block 11
 70
     0
 10
0.0
 20
0.0
 30
0.0
  3
block 11
  1

  0
SPLINE
  5
B5
330
B1
100
AcDbEntity
  8
Nebulae
 62
   253
420
  9874336
370
     9
100
AcDbSpline
210
0.0
220
0.0
230
1.0
 70
    11
 71
     3
 72
    17
 73
    13
 74
     0
 42
0.0000000001
 43
0.0000000001
 12
1.0
 22
0.0
 32
0.0
 13
1.0
 23
0.0
 33
0.0
 40
0.0
 40
0.0
 40
0.0
 40
0.0
 40
1.0
 40
1.0
 40
1.0
 40
2.0
 40
2.0
 40
2.0
 40
3.0
 40
3.0
 40
3.0
 40
4.0
 40
4.0
 40
4.0
 40
4.0
 10
166.0
 20
143.0
 30
0.0
 10
166.0
 20
142.4477152502004
 30
0.0
 10
165.5522847497996
 20
142.0
 30
0.0
 10
165.0
 20
142.0
 30
0.0
 10
164.4477152502004
 20
142.0
 30
0.0
 10
164.0
 20
142.4477152502004
 30
0.0
 10
164.0
 20
143.0
 30
0.0
 10
164.0
 20
143.5522847497996
 30
0.0
 10
164.4477152502004
 20
144.0
 30
0.0
 10
165.0
 20
144.0
 30
0.0
 10
165.5522847497996
 20
144.0
 30
0.0
 10
166.0
 20
143.5522847497996
 30
0.0
 10
166.0
 20
143.0
 30
0.0
  0
HATCH
  5
B6
330
B1
100
AcDbEntity
  8
Nebulae
 62
   123
420
  8374194
100
AcDbHatch
 10
0.0
 20
0.0
 30
0.0
210
0.0
220
0.0
230
1.0
  2
SOLID
 70
     1
 71
     0
 91
        1
 92
        1
 93
        1
 72
     4
 94
        3
 73
     0
 74
     1
 95
       17
 96
       13
 40
0.0
 40
0.0
 40
0.0
 40
0.0
 40
1.0
 40
1.0
 40
1.0
 40
2.0
 40
2.0
 40
2.0
 40
3.0
 40
3.0
 40
3.0
 40
4.0
 40
4.0
 40
4.0
 40
4.0
 10
166.0
 20
143.0
 10
166.0
 20
142.4477152502004
 10
165.5522847497996
 20
142.0
 10
165.0
 20
142.0
 10
164.4477152502004
 20
142.0
 10
164.0
 20
142.4477152502004
 10
164.0
 20
143.0
 10
164.0
 20
143.5522847497996
 10
164.4477152502004
 20
144.0
 10
165.0
 20
144.0
 10
165.5522847497996
 20
144.0
 10
166.0
 20
143.5522847497996
 10
166.0
 20
143.0
 97
        0
 97
        0
 75
     2
 76
     1
 98
        0
  0
SPLINE
  5
B7
330
B1
100
AcDbEntity
  8
Nebulae
 62
   253
420
  9874336
370
     9
100
AcDbSpline
210
0.0
220
0.0
230
1.0
 70
    11
 71
     3
 72
    17
 73
    13
 74
     0
 42
0.0000000001
 43
0.0000000001
 12
1.0
 22
0.0
 32
0.0
 13
1.0
 23
0.0
 33
0.0
 40
0.0
 40
0.0
 40
0.0
 40
0.0
 40
1.0
 40
1.0
 40
1.0
 40
2.0
 40
2.0
 40
2.0
 40
3.0
 40
3.0
 40
3.0
 40
4.0
 40
4.0
 40
4.0
 40
4.0
 10
171.0
 20
141.0
 30
0.0
 10
171.0
 20
139.3431457505994
 30
0.0
 10
169.6568542494006
 20
138.0
 30
0.0
 10
168.0
 20
138.0
 30
0.0
 10
166.3431457505994
 20
138.0
 30
0.0
 10
165.0
 20
139.3431457505994
 30
0.0
 10
165.0
 20
141.0
 30
0.0
 10
165.0
 20
142.6568542494006
 30
0.0
 10
166.3431457505994
 20
144.0
 30
0.0
 10
168.0
 20
144.0
 30
0.0
 10
169.6568542494006
 20
144.0
 30
0.0
 10
171.0
 20
142.6568542494006
 30
0.0
 10
171.0
 20
141.0
 30
0.0
  0
HATCH
  5
B8
330
B1
100
AcDbEntity
  8
Nebulae
 62
   123
420
  8374194
100
AcDbHatch
 10
0.0
 20
0.0
 30
0.0
210
0.0
220
0.0
230
1.0
  2
SOLID
 70
     1
 71
     0
 91
        1
 92
        1
 93
        1
 72
     4
 94
        3
 73
     0
 74
     1
 95
       17
 96
       13
 40
0.0
 40
0.0
 40
0.0
 40
0.0
 40
1.0
 40
1.0
 40
1.0
 40
2.0
 40
2.0
 40
2.0
 40
3.0
 40
3.0
 40
3.0
 40
4.0
 40
4.0
 40
4.0
 40
4.0
 10
171.0
 20
141.0
 10
171.0
 20
139.3431457505994
 10
169.6568542494006
 20
138.0
 10
168.0
 20
138.0
 10
166.3431457505994
 20
138.0
 10
165.0
 20
139.3431457505994
 10
165.0
 20
141.0
 10
165.0
 20
142.6568542494006
 10
166.3431457505994
 20
144.0
 10
168.0
 20
144.0
 10
169.6568542494006
 20
144.0
 10
171.0
 20
142.6568542494006
 10
171.0
 20
141.0
 97
        0
 97
        0
 75
     2
 76
     1
 98
        0
  0
SPLINE
  5
B9
330
B1
100
AcDbEntity
  8
Nebulae
 62
   253
420
  9874336
370
     9
100
AcDbSpline
210
0.0
220
0.0
230
1.0
 70
    11
 71
     3
 72
    17
 73
    13
 74
     0
 42
0.0000000001
 43
0.0000000001
 12
1.0
 22
0.0
 32
0.0
 13
1.0
 23
0.0
 33
0.0
 40
0.0
 40
0.0
 40
0.0
 40
0.0
 40
1.0
 40
1.0
 40
1.0
 40
2.0
 40
2.0
 40
2.0
 40
3.0
 40
3.0
 40
3.0
 40
4.0
 40
4.0
 40
4.0
 40
4.0
 10
171.0
 20
141.0
 30
0.0
 10
171.0
 20
140.4477152502004
 30
0.0
 10
170.5522847497996
 20
140.0
 30
0.0
 10
170.0
 20
140.0
 30
0.0
 10
169.4477152502004
 20
140.0
 30
0.0
 10
169.0
 20
140.4477152502004
 30
0.0
 10
169.0
 20
141.0
 30
0.0
 10
169.0
 20
141.5522847497996
 30
0.0
 10
169.4477152502004
 20
142.0
 30
0.0
 10
170.0
 20
142.0
 30
0.0
 10
170.5522847497996
 20
142.0
 30
0.0
 10
171.0
 20
141.5522847497996
 30
0.0
 10
171.0
 20
141.0
 30
0.0
  0
HATCH
  5
BA
330
B1
100
AcDbEntity
  8
Nebulae
 62
   123
420
  8374194
100
AcDbHatch
 10
0.0
 20
0.0
 30
0.0
210
0.0
220
0.0
230
1.0
  2
SOLID
 70
     1
 71
     0
 91
        1
 92
        1
 93
        1
 72
     4
 94
        3
 73
     0
 74
     1
 95
       17
 96
       13
 40
0.0
 40
0.0
 40
0.0
 40
0.0
 40
1.0
 40
1.0
 40
1.0
 40
2.0
 40
2.0
 40
2.0
 40
3.0
 40
3.0
 40
3.0
 40
4.0
 40
4.0
 40
4.0
 40
4.0
 10
171.0
 20
141.0
 10
171.0
 20
140.4477152502004
 10
170.5522847497996
 20
140.0
 10
170.0
 20
140.0
 10
169.4477152502004
 20
140.0
 10
169.0
 20
140.4477152502004
 10
169.0
 20
141.0
 10
169.0
 20
141.5522847497996
 10
169.4477152502004
 20
142.0
 10
170.0
 20
142.0
 10
170.5522847497996
 20
142.0
 10
171.0
 20
141.5522847497996
 10
171.0
 20
141.0
 97
        0
 97
        0
 75
     2
 76
     1
 98
        0
  0
ENDBLK
  5
B4
330
B1
100
AcDbEntity
  8
0
100
AcDbBlockEnd
  0
BLOCK
  5
C3
330
C1
100
AcDbEntity
  8
0
100
AcDbBlockBegin
  2
block 12
 70
     0
 10
0.0
 20
0.0
 30
0.0
  3
block 12
  1

  0
SPLINE
  5
C5
330
C1
100
AcDbEntity
  8
Nebulae
 62
   253
420
  9874336
370
     9
100
AcDbSpline
210
0.0
220
0.0
230
1.0
 70
    11
 71
     3
 72
    17
 73
    13
 74
     0
 42
0.0000000001
 43
0.0000000001
 12
1.0
 22
0.0
 32
0.0
 13
1.0
 23
0.0
 33
0.0
 40
0.0
 40
0.0
 40
0.0
 40
0.0
 40
1.0
 40
1.0
 40
1.0
 40
2.0
 40
2.0
 40
2.0
 40
3.0
 40
3.0
 40
3.0
 40
4.0
 40
4.0
 40
4.0
 40
4.0
 10
72.0
 20
128.0
 30
0.0
 10
72.0
 20
124.6862915011998
 30
0.0
 10
69.31370849880022
 20
122.0
 30
0.0
 10
66.0
 20
122.0
 30
0.0
 10
62.68629150119978
 20
122.0
 30
0.0
 10
60.0
 20
124.6862915011998
 30
0.0
 10
60.0
 20
128.0
 30
0.0
 10
60.0
 20
131.3137084988002
 30
0.0
 10
62.68629150119978
 20
134.0
 30
0.0
 10
66.0
 20
134.0
 30
0.0
 10
69.31370849880022
 20
134.0
 30
0.0
 10
72.0
 20
131.3137084988002
 30
0.0
 10
72.0
 20
128.0
 30
0.0
  0
HATCH
  5
C6
330
C1
100
AcDbEntity
  8
Nebulae
 62
   123
420
  8374194
100
AcDbHatch
 10
0.0
 20
0.0
 30
0.0
210
0.0
220
0.0
230
1.0
  2
SOLID
 70
     1
 71
     0
 91
        1
 92
        1
 93
        1
 72
     4
 94
        3
 73
     0
 74
     1
 95
       17
 96
       13
 40
0.0
 40
0.0
 40
0.0
 40
0.0
 40
1.0
 40
1.0
 40
1.0
 40
2.0
 40
2.0
 40
2.0
 40
3.0
 40
3.0
 40
3.0
 40
4.0
 40
4.0
 40
4.0
 40
4.0
 10
72.0
 20
128.0
 10
72.0
 20
124.6862915011998
 10
69.31370849880022
 20
122.0
 10
66.0
 20
122.0
 10
62.68629150119978
 20
122.0
 10
60.0
 20
124.6862915011998
 10
60.0
 20
128.0
 10
60.0
 20
131.3137084988002
 10
62.68629150119978
 20
134.0
 10
66.0
 20
134.0
 10
69.31370849880022
 20
134.0
 10
72.0
 20
131.3137084988002
 10
72.0
 20
128.0
 97
        0
 97
        0
 75
     2
 76
     1
 98
        0
  0
SPLINE
  5
C7
330
C1
100
AcDbEntity
  8
Nebulae
 62
   253
420
  9874336
370
     9
100
AcDbSpline
210
0.0
220
0.0
230
1.0
 70
    11
 71
     3
 72
    17
 73
    13
 74
     0
 42
0.0000000001
 43
0.0000000001
 12
1.0
 22
0.0
 32
0.0
 13
1.0
 23
0.0
 33
0.0
 40
0.0
 40
0.0
 40
0.0
 40
0.0
 40
1.0
 40
1.0
 40
1.0
 40
2.0
 40
2.0
 40
2.0
 40
3.0
 40
3.0
 40
3.0
 40
4.0
 40
4.0
 40
4.0
 40
4.0
 10
70.0
 20
122.0
 30
0.0
 10
70.0
 20
116.4771525019996
 30
0.0
 10
65.52284749800037
 20
112.0
 30
0.0
 10
60.0
 20
112.0
 30
0.0
 10
54.47715250199963
 20
112.0
 30
0.0
 10
50.0
 20
116.4771525019996
 30
0.0
 10
50.0
 20
122.0
 30
0.0
 10
50.0
 20
127.5228474980004
 30
0.0
 10
54.47715250199963
 20
132.0
 30
0.0
 10
60.0
 20
132.0
 30
0.0
 10
65.52284749800037
 20
132.0
 30
0.0
 10
70.0
 20
127.5228474980004
 30
0.0
 10
70.0
 20
122.0
 30
0.0
  0
HATCH
  5
C8
330
C1
100
AcDbEntity
  8
Nebulae
 62
   123
420
  8374194
100
AcDbHatch
 10
0.0
 20
0.0
 30
0.0
210
0.0
220
0.0
230
1.0
  2
SOLID
 70
     1
 71
     0
 91
        1
 92
        1
 93
        1
 72
     4
 94
        3
 73
     0
 74
     1
 95
       17
 96
       13
 40
0.0
 40
0.0
 40
0.0
 40
0.0
 40
1.0
 40
1.0
 40
1.0
 40
2.0
 40
2.0
 40
2.0
 40
3.0
 40
3.0
 40
3.0
 40
4.0
 40
4.0
 40
4.0
 40
4.0
 10
70.0
 20
122.0
 10
70.0
 20
116.4771525019996
 10
65.52284749800037
 20
112.0
 10
60.0
 20
112.0
 10
54.47715250199963
 20
112.0
 10
50.0
 20
116.4771525019996
 10
50.0
 20
122.0
 10
50.0
 20
127.5228474980004
 10
54.47715250199963
 20
132.0
 10
60.0
 20
132.0
 10
65.52284749800037
 20
132.0
 10
70.0
 20
127.5228474980004
 10
70.0
 20
122.0
 97
        0
 97
        0
 75
     2
 76
     1
 98
        0
  0
SPLINE
  5
C9
330
C1
100
AcDbEntity
  8
Nebulae
 62
   253
420
  9874336
370
     9
100
AcDbSpline
210
0.0
220
0.0
230
1.0
 70
    11
 71
     3
 72
    17
 73
    13
 74
     0
 42
0.0000000001
 43
0.0000000001
 12
1.0
 22
0.0
 32
0.0
 13
1.0
 23
0.0
 33
0.0
 40
0.0
 40
0.0
 40
0.0
 40
0.0
 40
1.0
 40
1.0
 40
1.0
 40
2.0
 40
2.0
 40
2.0
 40
3.0
 40
3.0
 40
3.0
 40
4.0
 40
4.0
 40
4.0
 40
4.0
 10
69.0
 20
110.0
 30
0.0
 10
69.0
 20
107.2385762510003
 30
0.0
 10
66.76142374899973
 20
105.0
 30
0.0
 10
64.0
 20
105.0
 30
0.0
 10
61.23857625100027
 20
105.0
 30
0.0
 10
59.0
 20
107.2385762510003
 30
0.0
 10
59.0
 20
110.0
 30
0.0
 10
59.0
 20
112.7614237489997
 30
0.0
 10
61.23857625100027
 20
115.0
 30
0.0
 10
64.0
 20
115.0
 30
0.0
 10
66.76142374899973
 20
115.0
 30
0.0
 10
69.0
 20
112.7614237489997
 30
0.0
 10
69.0
 20
110.0
 30
0.0
  0
HATCH
  5
CA
330
C1
100
AcDbEntity
  8
Nebulae
 62
   123
420
  8374194
100
AcDbHatch
 10
0.0
 20
0.0
 30
0.0
210
0.0
220
0.0
230
1.0
  2
SOLID
 70
     1
 71
     0
 91
        1
 92
        1
 93
        1
 72
     4
 94
        3
 73
     0
 74
     1
 95
       17
 96
       13
 40
0.0
 40
0.0
 40
0.0
 40
0.0
 40
1.0
 40
1.0
 40
1.0
 40
2.0
 40
2.0
 40
2.0
 40
3.0
 40
3.0
 40
3.0
 40
4.0
 40
4.0
 40
4.0
 40
4.0
 10
69.0
 20
110.0
 10
69.0
 20
107.2385762510003
 10
66.76142374899973
 20
105.0
 10
64.0
 20
105.0
 10
61.23857625100027
 20
105.0
 10
59.0
 20
107.2385762510003
 10
59.0
 20
110.0
 10
59.0
 20
112.7614237489997
 10
61.23857625100027
 20
115.0
 10
64.0
 20
115.0
 10
66.76142374899973
 20
115.0
 10
69.0
 20
112.7614237489997
 10
69.0
 20
110.0
 97
        0
 97
        0
 75
     2
 76
     1
 98
        0
  0
ENDBLK
  5
C4
330
C1
100
AcDbEntity
  8
0
100
AcDbBlockEnd
  0
BLOCK
  5
D5
330
D3
100
AcDbEntity
  8
0
100
AcDbBlockBegin
  2
block 13
 70
     0
 10
0.0
 20
0.0
 30
0.0
  3
block 13
  1

  0
SPLINE
  5
D7
330
D3
100
AcDbEntity
  8
Nebulae
 62
   253
420
  9874336
370
     9
100
AcDbSpline
210
0.0
220
0.0
230
1.0
 70
    11
 71
     3
 72
    17
 73
    13
 74
     0
 42
0.0000000001
 43
0.0000000001
 12
1.0
 22
0.0
 32
0.0
 13
1.0
 23
0.0
 33
0.0
 40
0.0
 40
0.0
 40
0.0
 40
0.0
 40
1.0
 40
1.0
 40
1.0
 40
2.0
 40
2.0
 40
2.0
 40
3.0
 40
3.0
 40
3.0
 40
4.0
 40
4.0
 40
4.0
 40
4.0
 10
167.0
 20
89.0
 30
0.0
 10
167.0
 20
87.34314575059943
 30
0.0
 10
165.6568542494006
 20
86.0
 30
0.0
 10
164.0
 20
86.0
 30
0.0
 10
162.3431457505994
 20
86.0
 30
0.0
 10
161.0
 20
87.34314575059943
 30
0.0
 10
161.0
 20
89.0
 30
0.0
 10
161.0
 20
90.65685424940057
 30
0.0
 10
162.3431457505994
 20
92.0
 30
0.0
 10
164.0
 20
92.0
 30
0.0
 10
165.6568542494006
 20
92.0
 30
0.0
 10
167.0
 20
90.65685424940057
 30
0.0
 10
167.0
 20
89.0
 30
0.0
  0
HATCH
  5
D8
330
D3
100
AcDbEntity
  8
Nebulae
 62
   123
420
  8374194
100
AcDbHatch
 10
0.0
 20
0.0
 30
0.0
210
0.0
220
0.0
230
1.0
  2
SOLID
 70
     1
 71
     0
 91
        1
 92
        1
 93
        1
 72
     4
 94
        3
 73
     0
 74
     1
 95
       17
 96
       13
 40
0.0
 40
0.0
 40
0.0
 40
0.0
 40
1.0
 40
1.0
 40
1.0
 40
2.0
 40
2.0
 40
2.0
 40
3.0
 40
3.0
 40
3.0
 40
4.0
 40
4.0
 40
4.0
 40
4.0
 10
167.0
 20
89.0
 10
167.0
 20
87.34314575059943
 10
165.6568542494006
 20
86.0
 10
164.0
 20
86.0
 10
162.3431457505994
 20
86.0
 10
161.0
 20
87.34314575059943
 10
161.0
 20
89.0
 10
161.0
 20
90.65685424940057
 10
162.3431457505994
 20
92.0
 10
164.0
 20
92.0
 10
165.6568542494006
 20
92.0
 10
167.0
 20
90.65685424940057
 10
167.0
 20
89.0
 97
        0
 97
        0
 75
     2
 76
     1
 98
        0
  0
SPLINE
  5
D9
330
D3
100
AcDbEntity
  8
Nebulae
 62
   253
420
  9874336
370
     9
100
AcDbSpline
210
0.0
220
0.0
230
1.0
 70
    11
 71
     3
 72
    17
 73
    13
 74
     0
 42
0.0000000001
 43
0.0000000001
 12
1.0
 22
0.0
 32
0.0
 13
1.0
 23
0.0
 33
0.0
 40
0.0
 40
0.0
 40
0.0
 40
0.0
 40
1.0
 40
1.0
 40
1.0
 40
2.0
 40
2.0
 40
2.0
 40
3.0
 40
3.0
 40
3.0
 40
4.0
 40
4.0
 40
4.0
 40
4.0
 10
170.0
 20
84.0
 30
0.0
 10
170.0
 20
81.23857625100027
 30
0.0
 10
167.7614237489997
 20
79.0
 30
0.0
 10
165.0
 20
79.0
 30
0.0
 10
162.2385762510003
 20
79.0
 30
0.0
 10
160.0
 20
81.23857625100027
 30
0.0
 10
160.0
 20
84.0
 30
0.0
 10
160.0
 20
86.76142374899973
 30
0.0
 10
162.2385762510003
 20
89.0
 30
0.0
 10
165.0
 20
89.0
 30
0.0
 10
167.7614237489997
 20
89.0
 30
0.0
 10
170.0
 20
86.76142374899973
 30
0.0
 10
170.0
 20
84.0
 30
0.0
  0
HATCH
  5
DA
330
D3
100
AcDbEntity
  8
Nebulae
 62
   123
420
  8374194
100
AcDbHatch
 10
0.0
 20
0.0
 30
0.0
210
0.0
220
0.0
230
1.0
  2
SOLID
 70
     1
 71
     0
 91
        1
 92
        1
 93
        1
 72
     4
 94
        3
 73
     0
 74
     1
 95
       17
 96
       13
 40
0.0
 40
0.0
 40
0.0
 40
0.0
 40
1.0
 40
1.0
 40
1.0
 40
2.0
 40
2.0
 40
2.0
 40
3.0
 40
3.0
 40
3.0
 40
4.0
 40
4.0
 40
4.0
 40
4.0
 10
170.0
 20
84.0
 10
170.0
 20
81.23857625100027
 10
167.7614237489997
 20
79.0
 10
165.0
 20
79.0
 10
162.2385762510003
 20
79.0
 10
160.0
 20
81.23857625100027
 10
160.0
 20
84.0
 10
160.0
 20
86.76142374899973
 10
162.2385762510003
 20
89.0
 10
165.0
 20
89.0
 10
167.7614237489997
 20
89.0
 10
170.0
 20
86.76142374899973
 10
170.0
 20
84.0
 97
        0
 97
        0
 75
     2
 76
     1
 98
        0
  0
SPLINE
  5
DB
330
D3
100
AcDbEntity
  8
Nebulae
 62
   253
420
  9874336
370
     9
100
AcDbSpline
210
0.0
220
0.0
230
1.0
 70
    11
 71
     3
 72
    17
 73
    13
 74
     0
 42
0.0000000001
 43
0.0000000001
 12
1.0
 22
0.0
 32
0.0
 13
1.0
 23
0.0
 33
0.0
 40
0.0
 40
0.0
 40
0.0
 40
0.0
 40
1.0
 40
1.0
 40
1.0
 40
2.0
 40
2.0
 40
2.0
 40
3.0
 40
3.0
 40
3.0
 40
4.0
 40
4.0
 40
4.0
 40
4.0
 10
163.0
 20
79.0
 30
0.0
 10
163.0
 20
76.79086100079985
 30
0.0
 10
161.2091389992001
 20
75.0
 30
0.0
 10
159.0
 20
75.0
 30
0.0
 10
156.7908610007999
 20
75.0
 30
0.0
 10
155.0
 20
76.79086100079985
 30
0.0
 10
155.0
 20
79.0
 30
0.0
 10
155.0
 20
81.20913899920015
 30
0.0
 10
156.7908610007999
 20
83.0
 30
0.0
 10
159.0
 20
83.0
 30
0.0
 10
161.2091389992001
 20
83.0
 30
0.0
 10
163.0
 20
81.20913899920015
 30
0.0
 10
163.0
 20
79.0
 30
0.0
  0
HATCH
  5
DC
330
D3
100
AcDbEntity
  8
Nebulae
 62
   123
420
  8374194
100
AcDbHatch
 10
0.0
 20
0.0
 30
0.0
210
0.0
220
0.0
230
1.0
  2
SOLID
 70
     1
 71
     0
 91
        1
 92
        1
 93
        1
 72
     4
 94
        3
 73
     0
 74
     1
 95
       17
 96
       13
 40
0.0
 40
0.0
 40
0.0
 40
0.0
 40
1.0
 40
1.0
 40
1.0
 40
2.0
 40
2.0
 40
2.0
 40
3.0
 40
3.0
 40
3.0
 40
4.0
 40
4.0
 40
4.0
 40
4.0
 10
163.0
 20
79.0
 10
163.0
 20
76.79086100079985
 10
161.2091389992001
 20
75.0
 10
159.0
 20
75.0
 10
156.7908610007999
 20
75.0
 10
155.0
 20
76.79086100079985
 10
155.0
 20
79.0
 10
155.0
 20
81.20913899920015
 10
156.7908610007999
 20
83.0
 10
159.0
 20
83.0
 10
161.2091389992001
 20
83.0
 10
163.0
 20
81.20913899920015
 10
163.0
 20
79.0
 97
        0
 97
        0
 75
     2
 76
     1
 98
        0
  0
ENDBLK
  5
D6
330
D3
100
AcDbEntity
  8
0
100
AcDbBlockEnd
  0
BLOCK
  5
DF
330
DD
100
AcDbEntity
  8
0
100
AcDbBlockBegin
  2
block 14
 70
     0
 10
0.0
 20
0.0
 30
0.0
  3
block 14
  1

  0
SPLINE
  5
E1
330
DD
100
AcDbEntity
  8
Nebulae
 62
   253
420
  9874336
370
     9
100
AcDbSpline
210
0.0
220
0.0
230
1.0
 70
    11
 71
     3
 72
    17
 73
    13
 74
     0
 42
0.0000000001
 43
0.0000000001
 12
1.0
 22
0.0
 32
0.0
 13
1.0
 23
0.0
 33
0.0
 40
0.0
 40
0.0
 40
0.0
 40
0.0
 40
1.0
 40
1.0
 40
1.0
 40
2.0
 40
2.0
 40
2.0
 40
3.0
 40
3.0
 40
3.0
 40
4.0
 40
4.0
 40
4.0
 40
4.0
 10
32.0
 20
76.0
 30
0.0
 10
32.0
 20
70.47715250199963
 30
0.0
 10
27.52284749800037
 20
66.0
 30
0.0
 10
22.0
 20
66.0
 30
0.0
 10
16.47715250199963
 20
66.0
 30
0.0
 10
12.0
 20
70.47715250199963
 30
0.0
 10
12.0
 20
76.0
 30
0.0
 10
12.0
 20
81.52284749800037
 30
0.0
 10
16.47715250199963
 20
86.0
 30
0.0
 10
22.0
 20
86.0
 30
0.0
 10
27.52284749800037
 20
86.0
 30
0.0
 10
32.0
 20
81.52284749800037
 30
0.0
 10
32.0
 20
76.0
 30
0.0
  0
HATCH
  5
E2
330
DD
100
AcDbEntity
  8
Nebulae
 62
   123
420
  8374194
100
AcDbHatch
 10
0.0
 20
0.0
 30
0.0
210
0.0
220
0.0
230
1.0
  2
SOLID
 70
     1
 71
     0
 91
        1
 92
        1
 93
        1
 72
     4
 94
        3
 73
     0
 74
     1
 95
       17
 96
       13
 40
0.0
 40
0.0
 40
0.0
 40
0.0
 40
1.0
 40
1.0
 40
1.0
 40
2.0
 40
2.0
 40
2.0
 40
3.0
 40
3.0
 40
3.0
 40
4.0
 40
4.0
 40
4.0
 40
4.0
 10
32.0
 20
76.0
 10
32.0
 20
70.47715250199963
 10
27.52284749800037
 20
66.0
 10
22.0
 20
66.0
 10
16.47715250199963
 20
66.0
 10
12.0
 20
70.47715250199963
 10
12.0
 20
76.0
 10
12.0
 20
81.52284749800037
 10
16.47715250199963
 20
86.0
 10
22.0
 20
86.0
 10
27.52284749800037
 20
86.0
 10
32.0
 20
81.52284749800037
 10
32.0
 20
76.0
 97
        0
 97
        0
 75
     2
 76
     1
 98
        0
  0
SPLINE
  5
E3
330
DD
100
AcDbEntity
  8
Nebulae
 62
   253
420
  9874336
370
     9
100
AcDbSpline
210
0.0
220
0.0
230
1.0
 70
    11
 71
     3
 72
    17
 73
    13
 74
     0
 42
0.0000000001
 43
0.0000000001
 12
1.0
 22
0.0
 32
0.0
 13
1.0
 23
0.0
 33
0.0
 40
0.0
 40
0.0
 40
0.0
 40
0.0
 40
1.0
 40
1.0
 40
1.0
 40
2.0
 40
2.0
 40
2.0
 40
3.0
 40
3.0
 40
3.0
 40
4.0
 40
4.0
 40
4.0
 40
4.0
 10
39.0
 20
76.0
 30
0.0
 10
39.0
 20
73.23857625100027
 30
0.0
 10
36.76142374899973
 20
71.0
 30
0.0
 10
34.0
 20
71.0
 30
0.0
 10
31.23857625100027
 20
71.0
 30
0.0
 10
29.0
 20
73.23857625100027
 30
0.0
 10
29.0
 20
76.0
 30
0.0
 10
29.0
 20
78.76142374899973
 30
0.0
 10
31.23857625100027
 20
81.0
 30
0.0
 10
34.0
 20
81.0
 30
0.0
 10
36.76142374899973
 20
81.0
 30
0.0
 10
39.0
 20
78.76142374899973
 30
0.0
 10
39.0
 20
76.0
 30
0.0
  0
HATCH
  5
E4
330
DD
100
AcDbEntity
  8
Nebulae
 62
   123
420
  8374194
100
AcDbHatch
 10
0.0
 20
0.0
 30
0.0
210
0.0
220
0.0
230
1.0
  2
SOLID
 70
     1
 71
     0
 91
        1
 92
        1
 93
        1
 72
     4
 94
        3
 73
     0
 74
     1
 95
       17
 96
       13
 40
0.0
 40
0.0
 40
0.0
 40
0.0
 40
1.0
 40
1.0
 40
1.0
 40
2.0
 40
2.0
 40
2.0
 40
3.0
 40
3.0
 40
3.0
 40
4.0
 40
4.0
 40
4.0
 40
4.0
 10
39.0
 20
76.0
 10
39.0
 20
73.23857625100027
 10
36.76142374899973
 20
71.0
 10
34.0
 20
71.0
 10
31.23857625100027
 20
71.0
 10
29.0
 20
73.23857625100027
 10
29.0
 20
76.0
 10
29.0
 20
78.76142374899973
 10
31.23857625100027
 20
81.0
 10
34.0
 20
81.0
 10
36.76142374899973
 20
81.0
 10
39.0
 20
78.76142374899973
 10
39.0
 20
76.0
 97
        0
 97
        0
 75
     2
 76
     1
 98
        0
  0
ENDBLK
  5
E0
330
DD
100
AcDbEntity
  8
0
100
AcDbBlockEnd
  0
BLOCK
  5
E7
330
E5
100
AcDbEntity
  8
0
100
AcDbBlockBegin
  2
block 15
 70
     0
 10
0.0
 20
0.0
 30
0.0
  3
block 15
  1

  0
SPLINE
  5
E9
330
E5
100
AcDbEntity
  8
Nebulae
 62
   253
420
  9874336
370
     9
100
AcDbSpline
210
0.0
220
0.0
230
1.0
 70
    11
 71
     3
 72
    17
 73
    13
 74
     0
 42
0.0000000001
 43
0.0000000001
 12
1.0
 22
0.0
 32
0.0
 13
1.0
 23
0.0
 33
0.0
 40
0.0
 40
0.0
 40
0.0
 40
0.0
 40
1.0
 40
1.0
 40
1.0
 40
2.0
 40
2.0
 40
2.0
 40
3.0
 40
3.0
 40
3.0
 40
4.0
 40
4.0
 40
4.0
 40
4.0
 10
59.0
 20
82.0
 30
0.0
 10
59.0
 20
80.34314575059943
 30
0.0
 10
57.65685424940057
 20
79.0
 30
0.0
 10
56.0
 20
79.0
 30
0.0
 10
54.34314575059943
 20
79.0
 30
0.0
 10
53.0
 20
80.34314575059943
 30
0.0
 10
53.0
 20
82.0
 30
0.0
 10
53.0
 20
83.65685424940057
 30
0.0
 10
54.34314575059943
 20
85.0
 30
0.0
 10
56.0
 20
85.0
 30
0.0
 10
57.65685424940057
 20
85.0
 30
0.0
 10
59.0
 20
83.65685424940057
 30
0.0
 10
59.0
 20
82.0
 30
0.0
  0
HATCH
  5
EA
330
E5
100
AcDbEntity
  8
Nebulae
 62
   123
420
  8374194
100
AcDbHatch
 10
0.0
 20
0.0
 30
0.0
210
0.0
220
0.0
230
1.0
  2
SOLID
 70
     1
 71
     0
 91
        1
 92
        1
 93
        1
 72
     4
 94
        3
 73
     0
 74
     1
 95
       17
 96
       13
 40
0.0
 40
0.0
 40
0.0
 40
0.0
 40
1.0
 40
1.0
 40
1.0
 40
2.0
 40
2.0
 40
2.0
 40
3.0
 40
3.0
 40
3.0
 40
4.0
 40
4.0
 40
4.0
 40
4.0
 10
59.0
 20
82.0
 10
59.0
 20
80.34314575059943
 10
57.65685424940057
 20
79.0
 10
56.0
 20
79.0
 10
54.34314575059943
 20
79.0
 10
53.0
 20
80.34314575059943
 10
53.0
 20
82.0
 10
53.0
 20
83.65685424940057
 10
54.34314575059943
 20
85.0
 10
56.0
 20
85.0
 10
57.65685424940057
 20
85.0
 10
59.0
 20
83.65685424940057
 10
59.0
 20
82.0
 97
        0
 97
        0
 75
     2
 76
     1
 98
        0
  0
SPLINE
  5
EB
330
E5
100
AcDbEntity
  8
Nebulae
 62
   253
420
  9874336
370
     9
100
AcDbSpline
210
0.0
220
0.0
230
1.0
 70
    11
 71
     3
 72
    17
 73
    13
 74
     0
 42
0.0000000001
 43
0.0000000001
 12
1.0
 22
0.0
 32
0.0
 13
1.0
 23
0.0
 33
0.0
 40
0.0
 40
0.0
 40
0.0
 40
0.0
 40
1.0
 40
1.0
 40
1.0
 40
2.0
 40
2.0
 40
2.0
 40
3.0
 40
3.0
 40
3.0
 40
4.0
 40
4.0
 40
4.0
 40
4.0
 10
55.0
 20
79.0
 30
0.0
 10
55.0
 20
77.89543050039993
 30
0.0
 10
54.10456949960007
 20
77.0
 30
0.0
 10
53.0
 20
77.0
 30
0.0
 10
51.89543050039993
 20
77.0
 30
0.0
 10
51.0
 20
77.89543050039993
 30
0.0
 10
51.0
 20
79.0
 30
0.0
 10
51.0
 20
80.10456949960007
 30
0.0
 10
51.89543050039993
 20
81.0
 30
0.0
 10
53.0
 20
81.0
 30
0.0
 10
54.10456949960007
 20
81.0
 30
0.0
 10
55.0
 20
80.10456949960007
 30
0.0
 10
55.0
 20
79.0
 30
0.0
  0
HATCH
  5
EC
330
E5
100
AcDbEntity
  8
Nebulae
 62
   123
420
  8374194
100
AcDbHatch
 10
0.0
 20
0.0
 30
0.0
210
0.0
220
0.0
230
1.0
  2
SOLID
 70
     1
 71
     0
 91
        1
 92
        1
 93
        1
 72
     4
 94
        3
 73
     0
 74
     1
 95
       17
 96
       13
 40
0.0
 40
0.0
 40
0.0
 40
0.0
 40
1.0
 40
1.0
 40
1.0
 40
2.0
 40
2.0
 40
2.0
 40
3.0
 40
3.0
 40
3.0
 40
4.0
 40
4.0
 40
4.0
 40
4.0
 10
55.0
 20
79.0
 10
55.0
 20
77.89543050039993
 10
54.10456949960007
 20
77.0
 10
53.0
 20
77.0
 10
51.89543050039993
 20
77.0
 10
51.0
 20
77.89543050039993
 10
51.0
 20
79.0
 10
51.0
 20
80.10456949960007
 10
51.89543050039993
 20
81.0
 10
53.0
 20
81.0
 10
54.10456949960007
 20
81.0
 10
55.0
 20
80.10456949960007
 10
55.0
 20
79.0
 97
        0
 97
        0
 75
     2
 76
     1
 98
        0
  0
SPLINE
  5
ED
330
E5
100
AcDbEntity
  8
Nebulae
 62
   253
420
  9874336
370
     9
100
AcDbSpline
210
0.0
220
0.0
230
1.0
 70
    11
 71
     3
 72
    17
 73
    13
 74
     0
 42
0.0000000001
 43
0.0000000001
 12
1.0
 22
0.0
 32
0.0
 13
1.0
 23
0.0
 33
0.0
 40
0.0
 40
0.0
 40
0.0
 40
0.0
 40
1.0
 40
1.0
 40
1.0
 40
2.0
 40
2.0
 40
2.0
 40
3.0
 40
3.0
 40
3.0
 40
4.0
 40
4.0
 40
4.0
 40
4.0
 10
57.0
 20
76.0
 30
0.0
 10
57.0
 20
74.34314575059943
 30
0.0
 10
55.65685424940057
 20
73.0
 30
0.0
 10
54.0
 20
73.0
 30
0.0
 10
52.34314575059943
 20
73.0
 30
0.0
 10
51.0
 20
74.34314575059943
 30
0.0
 10
51.0
 20
76.0
 30
0.0
 10
51.0
 20
77.65685424940057
 30
0.0
 10
52.34314575059943
 20
79.0
 30
0.0
 10
54.0
 20
79.0
 30
0.0
 10
55.65685424940057
 20
79.0
 30
0.0
 10
57.0
 20
77.65685424940057
 30
0.0
 10
57.0
 20
76.0
 30
0.0
  0
HATCH
  5
EE
330
E5
100
AcDbEntity
  8
Nebulae
 62
   123
420
  8374194
100
AcDbHatch
 10
0.0
 20
0.0
 30
0.0
210
0.0
220
0.0
230
1.0
  2
SOLID
 70
     1
 71
     0
 91
        1
 92
        1
 93
        1
 72
     4
 94
        3
 73
     0
 74
     1
 95
       17
 96
       13
 40
0.0
 40
0.0
 40
0.0
 40
0.0
 40
1.0
 40
1.0
 40
1.0
 40
2.0
 40
2.0
 40
2.0
 40
3.0
 40
3.0
 40
3.0
 40
4.0
 40
4.0
 40
4.0
 40
4.0
 10
57.0
 20
76.0
 10
57.0
 20
74.34314575059943
 10
55.65685424940057
 20
73.0
 10
54.0
 20
73.0
 10
52.34314575059943
 20
73.0
 10
51.0
 20
74.34314575059943
 10
51.0
 20
76.0
 10
51.0
 20
77.65685424940057
 10
52.34314575059943
 20
79.0
 10
54.0
 20
79.0
 10
55.65685424940057
 20
79.0
 10
57.0
 20
77.65685424940057
 10
57.0
 20
76.0
 97
        0
 97
        0
 75
     2
 76
     1
 98
        0
  0
ENDBLK
  5
E8
330
E5
100
AcDbEntity
  8
0
100
AcDbBlockEnd
  0
BLOCK
  5
F1
330
EF
100
AcDbEntity
  8
0
100
AcDbBlockBegin
  2
block 16
 70
     0
 10
0.0
 20
0.0
 30
0.0
  3
block 16
  1

  0
SPLINE
  5
F3
330
EF
100
AcDbEntity
  8
Nebulae
 62
   253
420
  9874336
370
     9
100
AcDbSpline
210
0.0
220
0.0
230
1.0
 70
    11
 71
     3
 72
    17
 73
    13
 74
     0
 42
0.0000000001
 43
0.0000000001
 12
1.0
 22
0.0
 32
0.0
 13
1.0
 23
0.0
 33
0.0
 40
0.0
 40
0.0
 40
0.0
 40
0.0
 40
1.0
 40
1.0
 40
1.0
 40
2.0
 40
2.0
 40
2.0
 40
3.0
 40
3.0
 40
3.0
 40
4.0
 40
4.0
 40
4.0
 40
4.0
 10
48.0
 20
71.0
 30
0.0
 10
48.0
 20
69.89543050039993
 30
0.0
 10
47.10456949960007
 20
69.0
 30
0.0
 10
46.0
 20
69.0
 30
0.0
 10
44.89543050039993
 20
69.0
 30
0.0
 10
44.0
 20
69.89543050039993
 30
0.0
 10
44.0
 20
71.0
 30
0.0
 10
44.0
 20
72.10456949960007
 30
0.0
 10
44.89543050039993
 20
73.0
 30
0.0
 10
46.0
 20
73.0
 30
0.0
 10
47.10456949960007
 20
73.0
 30
0.0
 10
48.0
 20
72.10456949960007
 30
0.0
 10
48.0
 20
71.0
 30
0.0
  0
HATCH
  5
F4
330
EF
100
AcDbEntity
  8
Nebulae
 62
   123
420
  8374194
100
AcDbHatch
 10
0.0
 20
0.0
 30
0.0
210
0.0
220
0.0
230
1.0
  2
SOLID
 70
     1
 71
     0
 91
        1
 92
        1
 93
        1
 72
     4
 94
        3
 73
     0
 74
     1
 95
       17
 96
       13
 40
0.0
 40
0.0
 40
0.0
 40
0.0
 40
1.0
 40
1.0
 40
1.0
 40
2.0
 40
2.0
 40
2.0
 40
3.0
 40
3.0
 40
3.0
 40
4.0
 40
4.0
 40
4.0
 40
4.0
 10
48.0
 20
71.0
 10
48.0
 20
69.89543050039993
 10
47.10456949960007
 20
69.0
 10
46.0
 20
69.0
 10
44.89543050039993
 20
69.0
 10
44.0
 20
69.89543050039993
 10
44.0
 20
71.0
 10
44.0
 20
72.10456949960007
 10
44.89543050039993
 20
73.0
 10
46.0
 20
73.0
 10
47.10456949960007
 20
73.0
 10
48.0
 20
72.10456949960007
 10
48.0
 20
71.0
 97
        0
 97
        0
 75
     2
 76
     1
 98
        0
  0
SPLINE
  5
F5
330
EF
100
AcDbEntity
  8
Nebulae
 62
   253
420
  9874336
370
     9
100
AcDbSpline
210
0.0
220
0.0
230
1.0
 70
    11
 71
     3
 72
    17
 73
    13
 74
     0
 42
0.0000000001
 43
0.0000000001
 12
1.0
 22
0.0
 32
0.0
 13
1.0
 23
0.0
 33
0.0
 40
0.0
 40
0.0
 40
0.0
 40
0.0
 40
1.0
 40
1.0
 40
1.0
 40
2.0
 40
2.0
 40
2.0
 40
3.0
 40
3.0
 40
3.0
 40
4.0
 40
4.0
 40
4.0
 40
4.0
 10
49.0
 20
69.0
 30
0.0
 10
49.0
 20
67.89543050039993
 30
0.0
 10
48.10456949960007
 20
67.0
 30
0.0
 10
47.0
 20
67.0
 30
0.0
 10
45.89543050039993
 20
67.0
 30
0.0
 10
45.0
 20
67.89543050039993
 30
0.0
 10
45.0
 20
69.0
 30
0.0
 10
45.0
 20
70.10456949960007
 30
0.0
 10
45.89543050039993
 20
71.0
 30
0.0
 10
47.0
 20
71.0
 30
0.0
 10
48.10456949960007
 20
71.0
 30
0.0
 10
49.0
 20
70.10456949960007
 30
0.0
 10
49.0
 20
69.0
 30
0.0
  0
HATCH
  5
F6
330
EF
100
AcDbEntity
  8
Nebulae
 62
   123
420
  8374194
100
AcDbHatch
 10
0.0
 20
0.0
 30
0.0
210
0.0
220
0.0
230
1.0
  2
SOLID
 70
     1
 71
     0
 91
        1
 92
        1
 93
        1
 72
     4
 94
        3
 73
     0
 74
     1
 95
       17
 96
       13
 40
0.0
 40
0.0
 40
0.0
 40
0.0
 40
1.0
 40
1.0
 40
1.0
 40
2.0
 40
2.0
 40
2.0
 40
3.0
 40
3.0
 40
3.0
 40
4.0
 40
4.0
 40
4.0
 40
4.0
 10
49.0
 20
69.0
 10
49.0
 20
67.89543050039993
 10
48.10456949960007
 20
67.0
 10
47.0
 20
67.0
 10
45.89543050039993
 20
67.0
 10
45.0
 20
67.89543050039993
 10
45.0
 20
69.0
 10
45.0
 20
70.10456949960007
 10
45.89543050039993
 20
71.0
 10
47.0
 20
71.0
 10
48.10456949960007
 20
71.0
 10
49.0
 20
70.10456949960007
 10
49.0
 20
69.0
 97
        0
 97
        0
 75
     2
 76
     1
 98
        0
  0
ENDBLK
  5
F2
330
EF
100
AcDbEntity
  8
0
100
AcDbBlockEnd
  0
BLOCK
  5
FD
330
FB
100
AcDbEntity
  8
0
100
AcDbBlockBegin
  2
block 17
 70
     0
 10
0.0
 20
0.0
 30
0.0
  3
block 17
  1

  0
SPLINE
  5
FF
330
FB
100
AcDbEntity
  8
Nebulae
 62
   253
420
  9874336
370
     9
100
AcDbSpline
210
0.0
220
0.0
230
1.0
 70
    11
 71
     3
 72
    17
 73
    13
 74
     0
 42
0.0000000001
 43
0.0000000001
 12
1.0
 22
0.0
 32
0.0
 13
1.0
 23
0.0
 33
0.0
 40
0.0
 40
0.0
 40
0.0
 40
0.0
 40
1.0
 40
1.0
 40
1.0
 40
2.0
 40
2.0
 40
2.0
 40
3.0
 40
3.0
 40
3.0
 40
4.0
 40
4.0
 40
4.0
 40
4.0
 10
78.0
 20
64.0
 30
0.0
 10
78.0
 20
60.68629150119978
 30
0.0
 10
75.31370849880022
 20
58.0
 30
0.0
 10
72.0
 20
58.0
 30
0.0
 10
68.68629150119978
 20
58.0
 30
0.0
 10
66.0
 20
60.68629150119978
 30
0.0
 10
66.0
 20
64.0
 30
0.0
 10
66.0
 20
67.31370849880022
 30
0.0
 10
68.68629150119978
 20
70.0
 30
0.0
 10
72.0
 20
70.0
 30
0.0
 10
75.31370849880022
 20
70.0
 30
0.0
 10
78.0
 20
67.31370849880022
 30
0.0
 10
78.0
 20
64.0
 30
0.0
  0
HATCH
  5
100
330
FB
100
AcDbEntity
  8
Nebulae
 62
   123
420
  8374194
100
AcDbHatch
 10
0.0
 20
0.0
 30
0.0
210
0.0
220
0.0
230
1.0
  2
SOLID
 70
     1
 71
     0
 91
        1
 92
        1
 93
        1
 72
     4
 94
        3
 73
     0
 74
     1
 95
       17
 96
       13
 40
0.0
 40
0.0
 40
0.0
 40
0.0
 40
1.0
 40
1.0
 40
1.0
 40
2.0
 40
2.0
 40
2.0
 40
3.0
 40
3.0
 40
3.0
 40
4.0
 40
4.0
 40
4.0
 40
4.0
 10
78.0
 20
64.0
 10
78.0
 20
60.68629150119978
 10
75.31370849880022
 20
58.0
 10
72.0
 20
58.0
 10
68.68629150119978
 20
58.0
 10
66.0
 20
60.68629150119978
 10
66.0
 20
64.0
 10
66.0
 20
67.31370849880022
 10
68.68629150119978
 20
70.0
 10
72.0
 20
70.0
 10
75.31370849880022
 20
70.0
 10
78.0
 20
67.31370849880022
 10
78.0
 20
64.0
 97
        0
 97
        0
 75
     2
 76
     1
 98
        0
  0
SPLINE
  5
101
330
FB
100
AcDbEntity
  8
Nebulae
 62
   253
420
  9874336
370
     9
100
AcDbSpline
210
0.0
220
0.0
230
1.0
 70
    11
 71
     3
 72
    17
 73
    13
 74
     0
 42
0.0000000001
 43
0.0000000001
 12
1.0
 22
0.0
 32
0.0
 13
1.0
 23
0.0
 33
0.0
 40
0.0
 40
0.0
 40
0.0
 40
0.0
 40
1.0
 40
1.0
 40
1.0
 40
2.0
 40
2.0
 40
2.0
 40
3.0
 40
3.0
 40
3.0
 40
4.0
 40
4.0
 40
4.0
 40
4.0
 10
83.0
 20
52.0
 30
0.0
 10
83.0
 20
47.02943725180012
 30
0.0
 10
78.97056274819988
 20
43.0
 30
0.0
 10
74.0
 20
43.0
 30
0.0
 10
69.02943725180012
 20
43.0
 30
0.0
 10
65.0
 20
47.02943725180012
 30
0.0
 10
65.0
 20
52.0
 30
0.0
 10
65.0
 20
56.97056274819988
 30
0.0
 10
69.02943725180012
 20
61.0
 30
0.0
 10
74.0
 20
61.0
 30
0.0
 10
78.97056274819988
 20
61.0
 30
0.0
 10
83.0
 20
56.97056274819988
 30
0.0
 10
83.0
 20
52.0
 30
0.0
  0
HATCH
  5
102
330
FB
100
AcDbEntity
  8
Nebulae
 62
   123
420
  8374194
100
AcDbHatch
 10
0.0
 20
0.0
 30
0.0
210
0.0
220
0.0
230
1.0
  2
SOLID
 70
     1
 71
     0
 91
        1
 92
        1
 93
        1
 72
     4
 94
        3
 73
     0
 74
     1
 95
       17
 96
       13
 40
0.0
 40
0.0
 40
0.0
 40
0.0
 40
1.0
 40
1.0
 40
1.0
 40
2.0
 40
2.0
 40
2.0
 40
3.0
 40
3.0
 40
3.0
 40
4.0
 40
4.0
 40
4.0
 40
4.0
 10
83.0
 20
52.0
 10
83.0
 20
47.02943725180012
 10
78.97056274819988
 20
43.0
 10
74.0
 20
43.0
 10
69.02943725180012
 20
43.0
 10
65.0
 20
47.02943725180012
 10
65.0
 20
52.0
 10
65.0
 20
56.97056274819988
 10
69.02943725180012
 20
61.0
 10
74.0
 20
61.0
 10
78.97056274819988
 20
61.0
 10
83.0
 20
56.97056274819988
 10
83.0
 20
52.0
 97
        0
 97
        0
 75
     2
 76
     1
 98
        0
  0
ENDBLK
  5
FE
330
FB
100
AcDbEntity
  8
0
100
AcDbBlockEnd
  0
BLOCK
  5
105
330
103
100
AcDbEntity
  8
0
100
AcDbBlockBegin
  2
block 18
 70
     0
 10
0.0
 20
0.0
 30
0.0
  3
block 18
  1

  0
SPLINE
  5
107
330
103
100
AcDbEntity
  8
Nebulae
 62
   253
420
  9874336
370
     9
100
AcDbSpline
210
0.0
220
0.0
230
1.0
 70
    11
 71
     3
 72
    17
 73
    13
 74
     0
 42
0.0000000001
 43
0.0000000001
 12
1.0
 22
0.0
 32
0.0
 13
1.0
 23
0.0
 33
0.0
 40
0.0
 40
0.0
 40
0.0
 40
0.0
 40
1.0
 40
1.0
 40
1.0
 40
2.0
 40
2.0
 40
2.0
 40
3.0
 40
3.0
 40
3.0
 40
4.0
 40
4.0
 40
4.0
 40
4.0
 10
134.0
 20
48.0
 30
0.0
 10
134.0
 20
46.34314575059943
 30
0.0
 10
132.6568542494006
 20
45.0
 30
0.0
 10
131.0
 20
45.0
 30
0.0
 10
129.3431457505994
 20
45.0
 30
0.0
 10
128.0
 20
46.34314575059943
 30
0.0
 10
128.0
 20
48.0
 30
0.0
 10
128.0
 20
49.65685424940057
 30
0.0
 10
129.3431457505994
 20
51.0
 30
0.0
 10
131.0
 20
51.0
 30
0.0
 10
132.6568542494006
 20
51.0
 30
0.0
 10
134.0
 20
49.65685424940057
 30
0.0
 10
134.0
 20
48.0
 30
0.0
  0
HATCH
  5
108
330
103
100
AcDbEntity
  8
Nebulae
 62
   123
420
  8374194
100
AcDbHatch
 10
0.0
 20
0.0
 30
0.0
210
0.0
220
0.0
230
1.0
  2
SOLID
 70
     1
 71
     0
 91
        1
 92
        1
 93
        1
 72
     4
 94
        3
 73
     0
 74
     1
 95
       17
 96
       13
 40
0.0
 40
0.0
 40
0.0
 40
0.0
 40
1.0
 40
1.0
 40
1.0
 40
2.0
 40
2.0
 40
2.0
 40
3.0
 40
3.0
 40
3.0
 40
4.0
 40
4.0
 40
4.0
 40
4.0
 10
134.0
 20
48.0
 10
134.0
 20
46.34314575059943
 10
132.6568542494006
 20
45.0
 10
131.0
 20
45.0
 10
129.3431457505994
 20
45.0
 10
128.0
 20
46.34314575059943
 10
128.0
 20
48.0
 10
128.0
 20
49.65685424940057
 10
129.3431457505994
 20
51.0
 10
131.0
 20
51.0
 10
132.6568542494006
 20
51.0
 10
134.0
 20
49.65685424940057
 10
134.0
 20
48.0
 97
        0
 97
        0
 75
     2
 76
     1
 98
        0
  0
SPLINE
  5
109
330
103
100
AcDbEntity
  8
Nebulae
 62
   253
420
  9874336
370
     9
100
AcDbSpline
210
0.0
220
0.0
230
1.0
 70
    11
 71
     3
 72
    17
 73
    13
 74
     0
 42
0.0000000001
 43
0.0000000001
 12
1.0
 22
0.0
 32
0.0
 13
1.0
 23
0.0
 33
0.0
 40
0.0
 40
0.0
 40
0.0
 40
0.0
 40
1.0
 40
1.0
 40
1.0
 40
2.0
 40
2.0
 40
2.0
 40
3.0
 40
3.0
 40
3.0
 40
4.0
 40
4.0
 40
4.0
 40
4.0
 10
135.0
 20
44.0
 30
0.0
 10
135.0
 20
42.89543050039993
 30
0.0
 10
134.1045694996001
 20
42.0
 30
0.0
 10
133.0
 20
42.0
 30
0.0
 10
131.8954305003999
 20
42.0
 30
0.0
 10
131.0
 20
42.89543050039993
 30
0.0
 10
131.0
 20
44.0
 30
0.0
 10
131.0
 20
45.10456949960007
 30
0.0
 10
131.8954305003999
 20
46.0
 30
0.0
 10
133.0
 20
46.0
 30
0.0
 10
134.1045694996001
 20
46.0
 30
0.0
 10
135.0
 20
45.10456949960007
 30
0.0
 10
135.0
 20
44.0
 30
0.0
  0
HATCH
  5
10A
330
103
100
AcDbEntity
  8
Nebulae
 62
   123
420
  8374194
100
AcDbHatch
 10
0.0
 20
0.0
 30
0.0
210
0.0
220
0.0
230
1.0
  2
SOLID
 70
     1
 71
     0
 91
        1
 92
        1
 93
        1
 72
     4
 94
        3
 73
     0
 74
     1
 95
       17
 96
       13
 40
0.0
 40
0.0
 40
0.0
 40
0.0
 40
1.0
 40
1.0
 40
1.0
 40
2.0
 40
2.0
 40
2.0
 40
3.0
 40
3.0
 40
3.0
 40
4.0
 40
4.0
 40
4.0
 40
4.0
 10
135.0
 20
44.0
 10
135.0
 20
42.89543050039993
 10
134.1045694996001
 20
42.0
 10
133.0
 20
42.0
 10
131.8954305003999
 20
42.0
 10
131.0
 20
42.89543050039993
 10
131.0
 20
44.0
 10
131.0
 20
45.10456949960007
 10
131.8954305003999
 20
46.0
 10
133.0
 20
46.0
 10
134.1045694996001
 20
46.0
 10
135.0
 20
45.10456949960007
 10
135.0
 20
44.0
 97
        0
 97
        0
 75
     2
 76
     1
 98
        0
  0
ENDBLK
  5
106
330
103
100
AcDbEntity
  8
0
100
AcDbBlockEnd
  0
BLOCK
  5
113
330
111
100
AcDbEntity
  8
0
100
AcDbBlockBegin
  2
block 19
 70
     0
 10
0.0
 20
0.0
 30
0.0
  3
block 19
  1

  0
SPLINE
  5
115
330
111
100
AcDbEntity
  8
Nebulae
 62
   253
420
  9874336
370
     9
100
AcDbSpline
210
0.0
220
0.0
230
1.0
 70
    11
 71
     3
 72
    17
 73
    13
 74
     0
 42
0.0000000001
 43
0.0000000001
 12
1.0
 22
0.0
 32
0.0
 13
1.0
 23
0.0
 33
0.0
 40
0.0
 40
0.0
 40
0.0
 40
0.0
 40
1.0
 40
1.0
 40
1.0
 40
2.0
 40
2.0
 40
2.0
 40
3.0
 40
3.0
 40
3.0
 40
4.0
 40
4.0
 40
4.0
 40
4.0
 10
191.0
 20
30.0
 30
0.0
 10
191.0
 20
25.02943725180012
 30
0.0
 10
186.9705627481999
 20
21.0
 30
0.0
 10
182.0
 20
21.0
 30
0.0
 10
177.0294372518001
 20
21.0
 30
0.0
 10
173.0
 20
25.02943725180012
 30
0.0
 10
173.0
 20
30.0
 30
0.0
 10
173.0
 20
34.97056274819988
 30
0.0
 10
177.0294372518001
 20
39.0
 30
0.0
 10
182.0
 20
39.0
 30
0.0
 10
186.9705627481999
 20
39.0
 30
0.0
 10
191.0
 20
34.97056274819988
 30
0.0
 10
191.0
 20
30.0
 30
0.0
  0
HATCH
  5
116
330
111
100
AcDbEntity
  8
Nebulae
 62
   123
420
  8374194
100
AcDbHatch
 10
0.0
 20
0.0
 30
0.0
210
0.0
220
0.0
230
1.0
  2
SOLID
 70
     1
 71
     0
 91
        1
 92
        1
 93
        1
 72
     4
 94
        3
 73
     0
 74
     1
 95
       17
 96
       13
 40
0.0
 40
0.0
 40
0.0
 40
0.0
 40
1.0
 40
1.0
 40
1.0
 40
2.0
 40
2.0
 40
2.0
 40
3.0
 40
3.0
 40
3.0
 40
4.0
 40
4.0
 40
4.0
 40
4.0
 10
191.0
 20
30.0
 10
191.0
 20
25.02943725180012
 10
186.9705627481999
 20
21.0
 10
182.0
 20
21.0
 10
177.0294372518001
 20
21.0
 10
173.0
 20
25.02943725180012
 10
173.0
 20
30.0
 10
173.0
 20
34.97056274819988
 10
177.0294372518001
 20
39.0
 10
182.0
 20
39.0
 10
186.9705627481999
 20
39.0
 10
191.0
 20
34.97056274819988
 10
191.0
 20
30.0
 97
        0
 97
        0
 75
     2
 76
     1
 98
        0
  0
SPLINE
  5
117
330
111
100
AcDbEntity
  8
Nebulae
 62
   253
420
  9874336
370
     9
100
AcDbSpline
210
0.0
220
0.0
230
1.0
 70
    11
 71
     3
 72
    17
 73
    13
 74
     0
 42
0.0000000001
 43
0.0000000001
 12
1.0
 22
0.0
 32
0.0
 13
1.0
 23
0.0
 33
0.0
 40
0.0
 40
0.0
 40
0.0
 40
0.0
 40
1.0
 40
1.0
 40
1.0
 40
2.0
 40
2.0
 40
2.0
 40
3.0
 40
3.0
 40
3.0
 40
4.0
 40
4.0
 40
4.0
 40
4.0
 10
192.0
 20
22.0
 30
0.0
 10
192.0
 20
19.23857625100027
 30
0.0
 10
189.7614237489997
 20
17.0
 30
0.0
 10
187.0
 20
17.0
 30
0.0
 10
184.2385762510003
 20
17.0
 30
0.0
 10
182.0
 20
19.23857625100027
 30
0.0
 10
182.0
 20
22.0
 30
0.0
 10
182.0
 20
24.76142374899973
 30
0.0
 10
184.2385762510003
 20
27.0
 30
0.0
 10
187.0
 20
27.0
 30
0.0
 10
189.7614237489997
 20
27.0
 30
0.0
 10
192.0
 20
24.76142374899973
 30
0.0
 10
192.0
 20
22.0
 30
0.0
  0
HATCH
  5
118
330
111
100
AcDbEntity
  8
Nebulae
 62
   123
420
  8374194
100
AcDbHatch
 10
0.0
 20
0.0
 30
0.0
210
0.0
220
0.0
230
1.0
  2
SOLID
 70
     1
 71
     0
 91
        1
 92
        1
 93
        1
 72
     4
 94
        3
 73
     0
 74
     1
 95
       17
 96
       13
 40
0.0
 40
0.0
 40
0.0
 40
0.0
 40
1.0
 40
1.0
 40
1.0
 40
2.0
 40
2.0
 40
2.0
 40
3.0
 40
3.0
 40
3.0
 40
4.0
 40
4.0
 40
4.0
 40
4.0
 10
192.0
 20
22.0
 10
192.0
 20
19.23857625100027
 10
189.7614237489997
 20
17.0
 10
187.0
 20
17.0
 10
184.2385762510003
 20
17.0
 10
182.0
 20
19.23857625100027
 10
182.0
 20
22.0
 10
182.0
 20
24.76142374899973
 10
184.2385762510003
 20
27.0
 10
187.0
 20
27.0
 10
189.7614237489997
 20
27.0
 10
192.0
 20
24.76142374899973
 10
192.0
 20
22.0
 97
        0
 97
        0
 75
     2
 76
     1
 98
        0
  0
ENDBLK
  5
114
330
111
100
AcDbEntity
  8
0
100
AcDbBlockEnd
  0
BLOCK
  5
11D
330
11B
100
AcDbEntity
  8
0
100
AcDbBlockBegin
  2
block 20
 70
     0
 10
0.0
 20
0.0
 30
0.0
  3
block 20
  1

  0
SPLINE
  5
11F
330
11B
100
AcDbEntity
  8
Nebulae
 62
   253
420
  9874336
370
     9
100
AcDbSpline
210
0.0
220
0.0
230
1.0
 70
    11
 71
     3
 72
    17
 73
    13
 74
     0
 42
0.0000000001
 43
0.0000000001
 12
1.0
 22
0.0
 32
0.0
 13
1.0
 23
0.0
 33
0.0
 40
0.0
 40
0.0
 40
0.0
 40
0.0
 40
1.0
 40
1.0
 40
1.0
 40
2.0
 40
2.0
 40
2.0
 40
3.0
 40
3.0
 40
3.0
 40
4.0
 40
4.0
 40
4.0
 40
4.0
 10
18.0
 20
28.0
 30
0.0
 10
18.0
 20
25.79086100079985
 30
0.0
 10
16.20913899920015
 20
24.0
 30
0.0
 10
14.0
 20
24.0
 30
0.0
 10
11.79086100079985
 20
24.0
 30
0.0
 10
10.0
 20
25.79086100079985
 30
0.0
 10
10.0
 20
28.0
 30
0.0
 10
10.0
 20
30.20913899920015
 30
0.0
 10
11.79086100079985
 20
32.0
 30
0.0
 10
14.0
 20
32.0
 30
0.0
 10
16.20913899920015
 20
32.0
 30
0.0
 10
18.0
 20
30.20913899920015
 30
0.0
 10
18.0
 20
28.0
 30
0.0
  0
HATCH
  5
120
330
11B
100
AcDbEntity
  8
Nebulae
 62
   123
420
  8374194
100
AcDbHatch
 10
0.0
 20
0.0
 30
0.0
210
0.0
220
0.0
230
1.0
  2
SOLID
 70
     1
 71
     0
 91
        1
 92
        1
 93
        1
 72
     4
 94
        3
 73
     0
 74
     1
 95
       17
 96
       13
 40
0.0
 40
0.0
 40
0.0
 40
0.0
 40
1.0
 40
1.0
 40
1.0
 40
2.0
 40
2.0
 40
2.0
 40
3.0
 40
3.0
 40
3.0
 40
4.0
 40
4.0
 40
4.0
 40
4.0
 10
18.0
 20
28.0
 10
18.0
 20
25.79086100079985
 10
16.20913899920015
 20
24.0
 10
14.0
 20
24.0
 10
11.79086100079985
 20
24.0
 10
10.0
 20
25.79086100079985
 10
10.0
 20
28.0
 10
10.0
 20
30.20913899920015
 10
11.79086100079985
 20
32.0
 10
14.0
 20
32.0
 10
16.20913899920015
 20
32.0
 10
18.0
 20
30.20913899920015
 10
18.0
 20
28.0
 97
        0
 97
        0
 75
     2
 76
     1
 98
        0
  0
SPLINE
  5
121
330
11B
100
AcDbEntity
  8
Nebulae
 62
   253
420
  9874336
370
     9
100
AcDbSpline
210
0.0
220
0.0
230
1.0
 70
    11
 71
     3
 72
    17
 73
    13
 74
     0
 42
0.0000000001
 43
0.0000000001
 12
1.0
 22
0.0
 32
0.0
 13
1.0
 23
0.0
 33
0.0
 40
0.0
 40
0.0
 40
0.0
 40
0.0
 40
1.0
 40
1.0
 40
1.0
 40
2.0
 40
2.0
 40
2.0
 40
3.0
 40
3.0
 40
3.0
 40
4.0
 40
4.0
 40
4.0
 40
4.0
 10
15.0
 20
23.0
 30
0.0
 10
15.0
 20
19.68629150119978
 30
0.0
 10
12.31370849880022
 20
17.0
 30
0.0
 10
9.0
 20
17.0
 30
0.0
 10
5.686291501199776
 20
17.0
 30
0.0
 10
3.0
 20
19.68629150119978
 30
0.0
 10
3.0
 20
23.0
 30
0.0
 10
3.0
 20
26.31370849880022
 30
0.0
 10
5.686291501199776
 20
29.0
 30
0.0
 10
9.0
 20
29.0
 30
0.0
 10
12.31370849880022
 20
29.0
 30
0.0
 10
15.0
 20
26.31370849880022
 30
0.0
 10
15.0
 20
23.0
 30
0.0
  0
HATCH
  5
122
330
11B
100
AcDbEntity
  8
Nebulae
 62
   123
420
  8374194
100
AcDbHatch
 10
0.0
 20
0.0
 30
0.0
210
0.0
220
0.0
230
1.0
  2
SOLID
 70
     1
 71
     0
 91
        1
 92
        1
 93
        1
 72
     4
 94
        3
 73
     0
 74
     1
 95
       17
 96
       13
 40
0.0
 40
0.0
 40
0.0
 40
0.0
 40
1.0
 40
1.0
 40
1.0
 40
2.0
 40
2.0
 40
2.0
 40
3.0
 40
3.0
 40
3.0
 40
4.0
 40
4.0
 40
4.0
 40
4.0
 10
15.0
 20
23.0
 10
15.0
 20
19.68629150119978
 10
12.31370849880022
 20
17.0
 10
9.0
 20
17.0
 10
5.686291501199776
 20
17.0
 10
3.0
 20
19.68629150119978
 10
3.0
 20
23.0
 10
3.0
 20
26.31370849880022
 10
5.686291501199776
 20
29.0
 10
9.0
 20
29.0
 10
12.31370849880022
 20
29.0
 10
15.0
 20
26.31370849880022
 10
15.0
 20
23.0
 97
        0
 97
        0
 75
     2
 76
     1
 98
        0
  0
SPLINE
  5
123
330
11B
100
AcDbEntity
  8
Nebulae
 62
   253
420
  9874336
370
     9
100
AcDbSpline
210
0.0
220
0.0
230
1.0
 70
    11
 71
     3
 72
    17
 73
    13
 74
     0
 42
0.0000000001
 43
0.0000000001
 12
1.0
 22
0.0
 32
0.0
 13
1.0
 23
0.0
 33
0.0
 40
0.0
 40
0.0
 40
0.0
 40
0.0
 40
1.0
 40
1.0
 40
1.0
 40
2.0
 40
2.0
 40
2.0
 40
3.0
 40
3.0
 40
3.0
 40
4.0
 40
4.0
 40
4.0
 40
4.0
 10
18.0
 20
16.0
 30
0.0
 10
18.0
 20
12.13400675140019
 30
0.0
 10
14.86599324859981
 20
9.0
 30
0.0
 10
11.0
 20
9.0
 30
0.0
 10
7.134006751400193
 20
9.0
 30
0.0
 10
4.0
 20
12.13400675140019
 30
0.0
 10
4.0
 20
16.0
 30
0.0
 10
4.0
 20
19.86599324859981
 30
0.0
 10
7.134006751400193
 20
23.0
 30
0.0
 10
11.0
 20
23.0
 30
0.0
 10
14.86599324859981
 20
23.0
 30
0.0
 10
18.0
 20
19.86599324859981
 30
0.0
 10
18.0
 20
16.0
 30
0.0
  0
HATCH
  5
124
330
11B
100
AcDbEntity
  8
Nebulae
 62
   123
420
  8374194
100
AcDbHatch
 10
0.0
 20
0.0
 30
0.0
210
0.0
220
0.0
230
1.0
  2
SOLID
 70
     1
 71
     0
 91
        1
 92
        1
 93
        1
 72
     4
 94
        3
 73
     0
 74
     1
 95
       17
 96
       13
 40
0.0
 40
0.0
 40
0.0
 40
0.0
 40
1.0
 40
1.0
 40
1.0
 40
2.0
 40
2.0
 40
2.0
 40
3.0
 40
3.0
 40
3.0
 40
4.0
 40
4.0
 40
4.0
 40
4.0
 10
18.0
 20
16.0
 10
18.0
 20
12.13400675140019
 10
14.86599324859981
 20
9.0
 10
11.0
 20
9.0
 10
7.134006751400193
 20
9.0
 10
4.0
 20
12.13400675140019
 10
4.0
 20
16.0
 10
4.0
 20
19.86599324859981
 10
7.134006751400193
 20
23.0
 10
11.0
 20
23.0
 10
14.86599324859981
 20
23.0
 10
18.0
 20
19.86599324859981
 10
18.0
 20
16.0
 97
        0
 97
        0
 75
     2
 76
     1
 98
        0
  0
SPLINE
  5
125
330
11B
100
AcDbEntity
  8
Nebulae
 62
   253
420
  9874336
370
     9
100
AcDbSpline
210
0.0
220
0.0
230
1.0
 70
    11
 71
     3
 72
    17
 73
    13
 74
     0
 42
0.0000000001
 43
0.0000000001
 12
1.0
 22
0.0
 32
0.0
 13
1.0
 23
0.0
 33
0.0
 40
0.0
 40
0.0
 40
0.0
 40
0.0
 40
1.0
 40
1.0
 40
1.0
 40
2.0
 40
2.0
 40
2.0
 40
3.0
 40
3.0
 40
3.0
 40
4.0
 40
4.0
 40
4.0
 40
4.0
 10
10.0
 20
12.0
 30
0.0
 10
10.0
 20
9.79086100079985
 30
0.0
 10
8.20913899920015
 20
8.0
 30
0.0
 10
6.0
 20
8.0
 30
0.0
 10
3.79086100079985
 20
8.0
 30
0.0
 10
2.0
 20
9.79086100079985
 30
0.0
 10
2.0
 20
12.0
 30
0.0
 10
2.0
 20
14.20913899920015
 30
0.0
 10
3.79086100079985
 20
16.0
 30
0.0
 10
6.0
 20
16.0
 30
0.0
 10
8.20913899920015
 20
16.0
 30
0.0
 10
10.0
 20
14.20913899920015
 30
0.0
 10
10.0
 20
12.0
 30
0.0
  0
HATCH
  5
126
330
11B
100
AcDbEntity
  8
Nebulae
 62
   123
420
  8374194
100
AcDbHatch
 10
0.0
 20
0.0
 30
0.0
210
0.0
220
0.0
230
1.0
  2
SOLID
 70
     1
 71
     0
 91
        1
 92
        1
 93
        1
 72
     4
 94
        3
 73
     0
 74
     1
 95
       17
 96
       13
 40
0.0
 40
0.0
 40
0.0
 40
0.0
 40
1.0
 40
1.0
 40
1.0
 40
2.0
 40
2.0
 40
2.0
 40
3.0
 40
3.0
 40
3.0
 40
4.0
 40
4.0
 40
4.0
 40
4.0
 10
10.0
 20
12.0
 10
10.0
 20
9.79086100079985
 10
8.20913899920015
 20
8.0
 10
6.0
 20
8.0
 10
3.79086100079985
 20
8.0
 10
2.0
 20
9.79086100079985
 10
2.0
 20
12.0
 10
2.0
 20
14.20913899920015
 10
3.79086100079985
 20
16.0
 10
6.0
 20
16.0
 10
8.20913899920015
 20
16.0
 10
10.0
 20
14.20913899920015
 10
10.0
 20
12.0
 97
        0
 97
        0
 75
     2
 76
     1
 98
        0
  0
ENDBLK
  5
11E
330
11B
100
AcDbEntity
  8
0
100
AcDbBlockEnd
  0
BLOCK
  5
129
330
127
100
AcDbEntity
  8
0
100
AcDbBlockBegin
  2
block 21
 70
     0
 10
0.0
 20
0.0
 30
0.0
  3
block 21
  1

  0
SPLINE
  5
12B
330
127
100
AcDbEntity
  8
Nebulae
 62
   253
420
  9874336
370
     9
100
AcDbSpline
210
0.0
220
0.0
230
1.0
 70
    11
 71
     3
 72
    17
 73
    13
 74
     0
 42
0.0000000001
 43
0.0000000001
 12
1.0
 22
0.0
 32
0.0
 13
1.0
 23
0.0
 33
0.0
 40
0.0
 40
0.0
 40
0.0
 40
0.0
 40
1.0
 40
1.0
 40
1.0
 40
2.0
 40
2.0
 40
2.0
 40
3.0
 40
3.0
 40
3.0
 40
4.0
 40
4.0
 40
4.0
 40
4.0
 10
40.0
 20
2.0
 30
0.0
 10
40.0
 20
-2.418277998400299
 30
0.0
 10
36.4182779984003
 20
-6.0
 30
0.0
 10
32.0
 20
-6.0
 30
0.0
 10
27.5817220015997
 20
-6.0
 30
0.0
 10
24.0
 20
-2.418277998400299
 30
0.0
 10
24.0
 20
2.0
 30
0.0
 10
24.0
 20
6.418277998400299
 30
0.0
 10
27.5817220015997
 20
10.0
 30
0.0
 10
32.0
 20
10.0
 30
0.0
 10
36.4182779984003
 20
10.0
 30
0.0
 10
40.0
 20
6.418277998400299
 30
0.0
 10
40.0
 20
2.0
 30
0.0
  0
HATCH
  5
12C
330
127
100
AcDbEntity
  8
Nebulae
 62
   123
420
  8374194
100
AcDbHatch
 10
0.0
 20
0.0
 30
0.0
210
0.0
220
0.0
230
1.0
  2
SOLID
 70
     1
 71
     0
 91
        1
 92
        1
 93
        1
 72
     4
 94
        3
 73
     0
 74
     1
 95
       17
 96
       13
 40
0.0
 40
0.0
 40
0.0
 40
0.0
 40
1.0
 40
1.0
 40
1.0
 40
2.0
 40
2.0
 40
2.0
 40
3.0
 40
3.0
 40
3.0
 40
4.0
 40
4.0
 40
4.0
 40
4.0
 10
40.0
 20
2.0
 10
40.0
 20
-2.418277998400299
 10
36.4182779984003
 20
-6.0
 10
32.0
 20
-6.0
 10
27.5817220015997
 20
-6.0
 10
24.0
 20
-2.418277998400299
 10
24.0
 20
2.0
 10
24.0
 20
6.418277998400299
 10
27.5817220015997
 20
10.0
 10
32.0
 20
10.0
 10
36.4182779984003
 20
10.0
 10
40.0
 20
6.418277998400299
 10
40.0
 20
2.0
 97
        0
 97
        0
 75
     2
 76
     1
 98
        0
  0
SPLINE
  5
12D
330
127
100
AcDbEntity
  8
Nebulae
 62
   253
420
  9874336
370
     9
100
AcDbSpline
210
0.0
220
0.0
230
1.0
 70
    11
 71
     3
 72
    17
 73
    13
 74
     0
 42
0.0000000001
 43
0.0000000001
 12
1.0
 22
0.0
 32
0.0
 13
1.0
 23
0.0
 33
0.0
 40
0.0
 40
0.0
 40
0.0
 40
0.0
 40
1.0
 40
1.0
 40
1.0
 40
2.0
 40
2.0
 40
2.0
 40
3.0
 40
3.0
 40
3.0
 40
4.0
 40
4.0
 40
4.0
 40
4.0
 10
27.0
 20
2.0
 30
0.0
 10
27.0
 20
-0.2091389992001496
 30
0.0
 10
25.20913899920015
 20
-2.0
 30
0.0
 10
23.0
 20
-2.0
 30
0.0
 10
20.79086100079985
 20
-2.0
 30
0.0
 10
19.0
 20
-0.2091389992001496
 30
0.0
 10
19.0
 20
2.0
 30
0.0
 10
19.0
 20
4.20913899920015
 30
0.0
 10
20.79086100079985
 20
6.0
 30
0.0
 10
23.0
 20
6.0
 30
0.0
 10
25.20913899920015
 20
6.0
 30
0.0
 10
27.0
 20
4.20913899920015
 30
0.0
 10
27.0
 20
2.0
 30
0.0
  0
HATCH
  5
12E
330
127
100
AcDbEntity
  8
Nebulae
 62
   123
420
  8374194
100
AcDbHatch
 10
0.0
 20
0.0
 30
0.0
210
0.0
220
0.0
230
1.0
  2
SOLID
 70
     1
 71
     0
 91
        1
 92
        1
 93
        1
 72
     4
 94
        3
 73
     0
 74
     1
 95
       17
 96
       13
 40
0.0
 40
0.0
 40
0.0
 40
0.0
 40
1.0
 40
1.0
 40
1.0
 40
2.0
 40
2.0
 40
2.0
 40
3.0
 40
3.0
 40
3.0
 40
4.0
 40
4.0
 40
4.0
 40
4.0
 10
27.0
 20
2.0
 10
27.0
 20
-0.2091389992001496
 10
25.20913899920015
 20
-2.0
 10
23.0
 20
-2.0
 10
20.79086100079985
 20
-2.0
 10
19.0
 20
-0.2091389992001496
 10
19.0
 20
2.0
 10
19.0
 20
4.20913899920015
 10
20.79086100079985
 20
6.0
 10
23.0
 20
6.0
 10
25.20913899920015
 20
6.0
 10
27.0
 20
4.20913899920015
 10
27.0
 20
2.0
 97
        0
 97
        0
 75
     2
 76
     1
 98
        0
  0
ENDBLK
  5
12A
330
127
100
AcDbEntity
  8
0
100
AcDbBlockEnd
  0
ENDSEC
  0
SECTION
  2
ENTITIES
  0
INSERT
  5
54
330
1F
100
AcDbEntity
  8
Nebulae
100
AcDbBlockReference
  2
block 2
 10
0.0
 20
0.0
 30
0.0
  0
ENDSEC
  0
SECTION
  2
OBJECTS
  0
DICTIONARY
  5
C
330
0
100
AcDbDictionary
281
     1
  3
ACAD_GROUP
350
D
  3
ACAD_LAYOUT
350
1A
  3
ACAD_MATERIAL
350
3B
  3
ACAD_MLEADERSTYLE
350
134
  3
ACAD_MLINESTYLE
350
17
  3
ACAD_PLOTSETTINGS
350
19
  3
ACAD_PLOTSTYLENAME
350
E
  3
ACAD_TABLESTYLE
350
133
  3
ACAD_VISUALSTYLE
350
2A
  0
SUN
  5
3F
330
29
100
AcDbSun
 90
        1
290
     0
 63
     7
421
 16777215
 40
1.0
291
     1
 91
  2455826
 92
 54000000
292
     0
 70
     2
 71
   256
280
     1
  0
DICTIONARY
  5
D
102
{ACAD_REACTORS
330
C
102
}
330
C
100
AcDbDictionary
281
     1
  0
DICTIONARY
  5
1A
102
{ACAD_REACTORS
330
C
102
}
330
C
100
AcDbDictionary
281
     1
  3
Layout1
350
1E
  3
Layout2
350
26
  3
Model
350
22
  0
DICTIONARY
  5
3B
102
{ACAD_REACTORS
330
C
102
}
330
C
100
AcDbDictionary
281
     1
  3
ByBlock
350
3D
  3
ByLayer
350
3C
  3
Global
350
3E
  0
DICTIONARY
  5
134
102
{ACAD_REACTORS
330
C
102
}
330
C
100
AcDbDictionary
281
     1
  0
DICTIONARY
  5
17
102
{ACAD_REACTORS
330
C
102
}
330
C
100
AcDbDictionary
281
     1
  3
Standard
350
18
  0
DICTIONARY
  5
19
102
{ACAD_REACTORS
330
C
102
}
330
C
100
AcDbDictionary
281
     1
  0
ACDBDICTIONARYWDFLT
  5
E
102
{ACAD_REACTORS
330
C
102
}
330
C
100
AcDbDictionary
281
     1
  3
Normal
350
F
100
AcDbDictionaryWithDefault
340
F
  0
DICTIONARY
  5
133
102
{ACAD_REACTORS
330
C
102
}
330
C
100
AcDbDictionary
281
     1
  0
DICTIONARY
  5
2A
102
{ACAD_REACTORS
330
C
102
}
330
C
100
AcDbDictionary
281
     1
  3
2dWireframe
350
2F
  3
3D Hidden
350
31
  3
3dWireframe
350
30
  3
Basic
350
32
  3
Brighten
350
36
  3
ColorChange
350
3A
  3
Conceptual
350
34
  3
Dim
350
35
  3
Facepattern
350
39
  3
Flat
350
2B
  3
FlatWithEdges
350
2C
  3
Gouraud
350
2D
  3
GouraudWithEdges
350
2E
  3
Linepattern
350
38
  3
Realistic
350
33
  3
Thicken
350
37
  0
LAYOUT
  5
1E
102
{ACAD_REACTORS
330
1A
102
}
330
1A
100
AcDbPlotSettings
  1

  2
none_device
  4

  6

 40
0.0
 41
0.0
 42
0.0
 43
0.0
 44
0.0
 45
0.0
 46
0.0
 47
0.0
 48
0.0
 49
0.0
140
0.0
141
0.0
142
1.0
143
1.0
 70
   688
 72
     0
 73
     0
 74
     5
  7

 75
    16
 76
     0
 77
     2
 78
   300
147
1.0
148
0.0
149
0.0
100
AcDbLayout
  1
Layout1
 70
     1
 71
     1
 10
0.0
 20
0.0
 11
12.0
 21
9.0
 12
0.0
 22
0.0
 32
0.0
 14
1.000000000000000E+20
 24
1.000000000000000E+20
 34
1.000000000000000E+20
 15
-1.000000000000000E+20
 25
-1.000000000000000E+20
 35
-1.000000000000000E+20
146
0.0
 13
0.0
 23
0.0
 33
0.0
 16
1.0
 26
0.0
 36
0.0
 17
0.0
 27
1.0
 37
0.0
 76
     0
330
1B
  0
LAYOUT
  5
26
102
{ACAD_REACTORS
330
1A
102
}
330
1A
100
AcDbPlotSettings
  1

  2
none_device
  4

  6

 40
0.0
 41
0.0
 42
0.0
 43
0.0
 44
0.0
 45
0.0
 46
0.0
 47
0.0
 48
0.0
 49
0.0
140
0.0
141
0.0
142
1.0
143
1.0
 70
   688
 72
     0
 73
     0
 74
     5
  7

 75
    16
 76
     0
 77
     2
 78
   300
147
1.0
148
0.0
149
0.0
100
AcDbLayout
  1
Layout2
 70
     1
 71
     2
 10
0.0
 20
0.0
 11
0.0
 21
0.0
 12
0.0
 22
0.0
 32
0.0
 14
0.0
 24
0.0
 34
0.0
 15
0.0
 25
0.0
 35
0.0
146
0.0
 13
0.0
 23
0.0
 33
0.0
 16
1.0
 26
0.0
 36
0.0
 17
0.0
 27
1.0
 37
0.0
 76
     0
330
23
  0
LAYOUT
  5
22
102
{ACAD_REACTORS
330
1A
102
}
330
1A
100
AcDbPlotSettings
  1

  2
none_device
  4

  6

 40
0.0
 41
0.0
 42
0.0
 43
0.0
 44
0.0
 45
0.0
 46
0.0
 47
0.0
 48
0.0
 49
0.0
140
0.0
141
0.0
142
1.0
143
1.0
 70
  1712
 72
     0
 73
     0
 74
     0
  7

 75
     0
 76
     0
 77
     2
 78
   300
147
1.0
148
0.0
149
0.0
100
AcDbLayout
  1
Model
 70
     1
 71
     0
 10
0.0
 20
0.0
 11
12.0
 21
9.0
 12
0.0
 22
0.0
 32
0.0
 14
1.000000000000000E+20
 24
1.000000000000000E+20
 34
1.000000000000000E+20
 15
-1.000000000000000E+20
 25
-1.000000000000000E+20
 35
-1.000000000000000E+20
146
0.0
 13
0.0
 23
0.0
 33
0.0
 16
1.0
 26
0.0
 36
0.0
 17
0.0
 27
1.0
 37
0.0
 76
     0
330
1F
331
29
  0
MATERIAL
  5
3D
102
{ACAD_REACTORS
330
3B
102
}
330
3B
100
AcDbMaterial
  1
ByBlock
 72
     1
 94
      127
  0
MATERIAL
  5
3C
102
{ACAD_REACTORS
330
3B
102
}
330
3B
100
AcDbMaterial
  1
ByLayer
 72
     1
 94
      127
  0
MATERIAL
  5
3E
102
{ACAD_REACTORS
330
3B
102
}
330
3B
100
AcDbMaterial
  1
Global
 72
     1
 94
      127
  0
MLINESTYLE
  5
18
102
{ACAD_REACTORS
330
17
102
}
330
17
100
AcDbMlineStyle
  2
Standard
 70
     0
  3

 62
   256
 51
90.0
 52
90.0
 71
     2
 49
0.5
 62
   256
  6
BYLAYER
 49
-0.5
 62
   256
  6
BYLAYER
  0
ACDBPLACEHOLDER
  5
F
102
{ACAD_REACTORS
330
E
102
}
330
E
  0
VISUALSTYLE
  5
2F
102
{ACAD_REACTORS
330
2A
102
}
330
2A
100
AcDbVisualStyle
  2
2dWireframe
 70
     4
177
     2
291
     0
 71
     0
176
     1
 72
     2
176
     1
 73
     0
176
     1
 90
        0
176
     1
 40
-0.6
176
     1
 41
-30.0
176
     1
 62
     5
 63
     7
421
 16777215
176
     1
 74
     1
176
     1
 91
        4
176
     1
 64
     7
176
     1
 65
   257
176
     1
 75
     1
176
     1
175
     1
176
     1
 42
1.0
176
     1
 92
        0
176
     1
 66
   257
176
     1
 43
1.0
176
     1
 76
     1
176
     1
 77
     6
176
     1
 78
     2
176
     1
 67
     7
176
     1
 79
     5
176
     1
170
     0
176
     1
171
     0
176
     1
290
     0
176
     1
 93
        1
176
     1
 44
0.0
176
     1
173
     0
176
     1
  0
VISUALSTYLE
  5
31
102
{ACAD_REACTORS
330
2A
102
}
330
2A
100
AcDbVisualStyle
  2
3D Hidden
 70
     6
177
     2
291
     0
 71
     1
176
     1
 72
     2
176
     1
 73
     2
176
     1
 90
        0
176
     1
 40
-0.6
176
     1
 41
-30.0
176
     1
 62
     5
 63
     7
421
 16777215
176
     1
 74
     2
176
     1
 91
        2
176
     1
 64
     7
176
     1
 65
   257
176
     1
 75
     2
176
     1
175
     1
176
     1
 42
40.0
176
     1
 92
        0
176
     1
 66
   257
176
     1
 43
1.0
176
     1
 76
     1
176
     1
 77
     6
176
     1
 78
     2
176
     1
 67
     7
176
     1
 79
     3
176
     1
170
     0
176
     1
171
     0
176
     1
290
     0
176
     1
 93
        1
176
     1
 44
0.0
176
     1
173
     0
176
     1
  0
VISUALSTYLE
  5
30
102
{ACAD_REACTORS
330
2A
102
}
330
2A
100
AcDbVisualStyle
  2
3dWireframe
 70
     5
177
     2
291
     0
 71
     0
176
     1
 72
     2
176
     1
 73
     0
176
     1
 90
        0
176
     1
 40
-0.6
176
     1
 41
-30.0
176
     1
 62
     5
 63
     7
421
 16777215
176
     1
 74
     1
176
     1
 91
        4
176
     1
 64
     7
176
     1
 65
   257
176
     1
 75
     1
176
     1
175
     1
176
     1
 42
1.0
176
     1
 92
        0
176
     1
 66
   257
176
     1
 43
1.0
176
     1
 76
     1
176
     1
 77
     6
176
     1
 78
     2
176
     1
 67
     7
176
     1
 79
     5
176
     1
170
     0
176
     1
171
     0
176
     1
290
     0
176
     1
 93
        1
176
     1
 44
0.0
176
     1
173
     0
176
     1
  0
VISUALSTYLE
  5
32
102
{ACAD_REACTORS
330
2A
102
}
330
2A
100
AcDbVisualStyle
  2
Basic
 70
     7
177
     2
291
     1
 71
     1
176
     1
 72
     0
176
     1
 73
     1
176
     1
 90
        0
176
     1
 40
-0.6
176
     1
 41
-30.0
176
     1
 62
     5
 63
     7
421
 16777215
176
     1
 74
     0
176
     1
 91
        4
176
     1
 64
     7
176
     1
 65
   257
176
     1
 75
     1
176
     1
175
     1
176
     1
 42
1.0
176
     1
 92
        8
176
     1
 66
     7
176
     1
 43
1.0
176
     1
 76
     1
176
     1
 77
     6
176
     1
 78
     2
176
     1
 67
     7
176
     1
 79
     5
176
     1
170
     0
176
     1
171
     0
176
     1
290
     0
176
     1
 93
        1
176
     1
 44
0.0
176
     1
173
     0
176
     1
  0
VISUALSTYLE
  5
36
102
{ACAD_REACTORS
330
2A
102
}
330
2A
100
AcDbVisualStyle
  2
Brighten
 70
    12
177
     2
291
     1
 71
     2
176
     1
 72
     2
176
     1
 73
     0
176
     1
 90
        0
176
     1
 40
-0.6
176
     1
 41
-30.0
176
     1
 62
     5
 63
     7
421
 16777215
176
     1
 74
     1
176
     1
 91
        4
176
     1
 64
     7
176
     1
 65
   257
176
     1
 75
     1
176
     1
175
     1
176
     1
 42
1.0
176
     1
 92
        8
176
     1
 66
     7
176
     1
 43
1.0
176
     1
 76
     1
176
     1
 77
     6
176
     1
 78
     2
176
     1
 67
     7
176
     1
 79
     5
176
     1
170
     0
176
     1
171
     0
176
     1
290
     0
176
     1
 93
        1
176
     1
 44
50.0
176
     1
173
     0
176
     1
  0
VISUALSTYLE
  5
3A
102
{ACAD_REACTORS
330
2A
102
}
330
2A
100
AcDbVisualStyle
  2
ColorChange
 70
    16
177
     2
291
     1
 71
     2
176
     1
 72
     2
176
     1
 73
     3
176
     1
 90
        0
176
     1
 40
-0.6
176
     1
 41
-30.0
176
     1
 62
     5
 63
     8
421
  8421504
176
     1
 74
     1
176
     1
 91
        4
176
     1
 64
     7
176
     1
 65
   257
176
     1
 75
     1
176
     1
175
     1
176
     1
 42
1.0
176
     1
 92
        8
176
     1
 66
     8
424
  8421504
176
     1
 43
1.0
176
     1
 76
     1
176
     1
 77
     6
176
     1
 78
     2
176
     1
 67
     7
176
     1
 79
     5
176
     1
170
     0
176
     1
171
     0
176
     1
290
     0
176
     1
 93
        1
176
     1
 44
0.0
176
     1
173
     0
176
     1
  0
VISUALSTYLE
  5
34
102
{ACAD_REACTORS
330
2A
102
}
330
2A
100
AcDbVisualStyle
  2
Conceptual
 70
     9
177
     2
291
     0
 71
     3
176
     1
 72
     2
176
     1
 73
     0
176
     1
 90
        0
176
     1
 40
-0.6
176
     1
 41
-30.0
176
     1
 62
     5
 63
     7
421
 16777215
176
     1
 74
     2
176
     1
 91
        2
176
     1
 64
     7
176
     1
 65
   257
176
     1
 75
     1
176
     1
175
     1
176
     1
 42
40.0
176
     1
 92
        8
176
     1
 66
     7
176
     1
 43
1.0
176
     1
 76
     1
176
     1
 77
     6
176
     1
 78
     2
176
     1
 67
     7
176
     1
 79
     3
176
     1
170
     0
176
     1
171
     0
176
     1
290
     0
176
     1
 93
        1
176
     1
 44
0.0
176
     1
173
     0
176
     1
  0
VISUALSTYLE
  5
35
102
{ACAD_REACTORS
330
2A
102
}
330
2A
100
AcDbVisualStyle
  2
Dim
 70
    11
177
     2
291
     1
 71
     2
176
     1
 72
     2
176
     1
 73
     0
176
     1
 90
        0
176
     1
 40
-0.6
176
     1
 41
-30.0
176
     1
 62
     5
 63
     7
421
 16777215
176
     1
 74
     1
176
     1
 91
        4
176
     1
 64
     7
176
     1
 65
   257
176
     1
 75
     1
176
     1
175
     1
176
     1
 42
1.0
176
     1
 92
        8
176
     1
 66
     7
176
     1
 43
1.0
176
     1
 76
     1
176
     1
 77
     6
176
     1
 78
     2
176
     1
 67
     7
176
     1
 79
     5
176
     1
170
     0
176
     1
171
     0
176
     1
290
     0
176
     1
 93
        1
176
     1
 44
-50.0
176
     1
173
     0
176
     1
  0
VISUALSTYLE
  5
39
102
{ACAD_REACTORS
330
2A
102
}
330
2A
100
AcDbVisualStyle
  2
Facepattern
 70
    15
177
     2
291
     1
 71
     2
176
     1
 72
     2
176
     1
 73
     0
176
     1
 90
        0
176
     1
 40
-0.6
176
     1
 41
-30.0
176
     1
 62
     5
 63
     7
421
 16777215
176
     1
 74
     1
176
     1
 91
        4
176
     1
 64
     7
176
     1
 65
   257
176
     1
 75
     1
176
     1
175
     1
176
     1
 42
1.0
176
     1
 92
        8
176
     1
 66
     7
176
     1
 43
1.0
176
     1
 76
     1
176
     1
 77
     6
176
     1
 78
     2
176
     1
 67
     7
176
     1
 79
     5
176
     1
170
     0
176
     1
171
     0
176
     1
290
     0
176
     1
 93
        1
176
     1
 44
0.0
176
     1
173
     0
176
     1
  0
VISUALSTYLE
  5
2B
102
{ACAD_REACTORS
330
2A
102
}
330
2A
100
AcDbVisualStyle
  2
Flat
 70
     0
177
     2
291
     1
 71
     2
176
     1
 72
     1
176
     1
 73
     1
176
     1
 90
        2
176
     1
 40
-0.6
176
     1
 41
30.0
176
     1
 62
     5
 63
     7
421
 16777215
176
     1
 74
     0
176
     1
 91
        4
176
     1
 64
     7
176
     1
 65
   257
176
     1
 75
     1
176
     1
175
     1
176
     1
 42
1.0
176
     1
 92
        8
176
     1
 66
     7
176
     1
 43
1.0
176
     1
 76
     1
176
     1
 77
     6
176
     1
 78
     2
176
     1
 67
     7
176
     1
 79
     5
176
     1
170
     0
176
     1
171
     0
176
     1
290
     0
176
     1
 93
       13
176
     1
 44
0.0
176
     1
173
     0
176
     1
  0
VISUALSTYLE
  5
2C
102
{ACAD_REACTORS
330
2A
102
}
330
2A
100
AcDbVisualStyle
  2
FlatWithEdges
 70
     1
177
     2
291
     1
 71
     2
176
     1
 72
     1
176
     1
 73
     1
176
     1
 90
        2
176
     1
 40
-0.6
176
     1
 41
30.0
176
     1
 62
     5
 63
     7
421
 16777215
176
     1
 74
     1
176
     1
 91
        4
176
     1
 64
     7
176
     1
 65
   257
176
     1
 75
     1
176
     1
175
     1
176
     1
 42
1.0
176
     1
 92
        0
176
     1
 66
   257
176
     1
 43
1.0
176
     1
 76
     1
176
     1
 77
     6
176
     1
 78
     2
176
     1
 67
     7
176
     1
 79
     5
176
     1
170
     0
176
     1
171
     0
176
     1
290
     0
176
     1
 93
       13
176
     1
 44
0.0
176
     1
173
     0
176
     1
  0
VISUALSTYLE
  5
2D
102
{ACAD_REACTORS
330
2A
102
}
330
2A
100
AcDbVisualStyle
  2
Gouraud
 70
     2
177
     2
291
     1
 71
     2
176
     1
 72
     2
176
     1
 73
     1
176
     1
 90
        2
176
     1
 40
-0.6
176
     1
 41
30.0
176
     1
 62
     5
 63
     7
421
 16777215
176
     1
 74
     0
176
     1
 91
        4
176
     1
 64
     7
176
     1
 65
   257
176
     1
 75
     1
176
     1
175
     1
176
     1
 42
1.0
176
     1
 92
        0
176
     1
 66
     7
176
     1
 43
1.0
176
     1
 76
     1
176
     1
 77
     6
176
     1
 78
     2
176
     1
 67
     7
176
     1
 79
     5
176
     1
170
     0
176
     1
171
     0
176
     1
290
     0
176
     1
 93
       13
176
     1
 44
0.0
176
     1
173
     0
176
     1
  0
VISUALSTYLE
  5
2E
102
{ACAD_REACTORS
330
2A
102
}
330
2A
100
AcDbVisualStyle
  2
GouraudWithEdges
 70
     3
177
     2
291
     1
 71
     2
176
     1
 72
     2
176
     1
 73
     1
176
     1
 90
        2
176
     1
 40
-0.6
176
     1
 41
30.0
176
     1
 62
     5
 63
     7
421
 16777215
176
     1
 74
     1
176
     1
 91
        4
176
     1
 64
     7
176
     1
 65
   257
176
     1
 75
     1
176
     1
175
     1
176
     1
 42
1.0
176
     1
 92
        0
176
     1
 66
   257
176
     1
 43
1.0
176
     1
 76
     1
176
     1
 77
     6
176
     1
 78
     2
176
     1
 67
     7
176
     1
 79
     5
176
     1
170
     0
176
     1
171
     0
176
     1
290
     0
176
     1
 93
       13
176
     1
 44
0.0
176
     1
173
     0
176
     1
  0
VISUALSTYLE
  5
38
102
{ACAD_REACTORS
330
2A
102
}
330
2A
100
AcDbVisualStyle
  2
Linepattern
 70
    14
177
     2
291
     1
 71
     2
176
     1
 72
     2
176
     1
 73
     0
176
     1
 90
        0
176
     1
 40
-0.6
176
     1
 41
-30.0
176
     1
 62
     5
 63
     7
421
 16777215
176
     1
 74
     1
176
     1
 91
        4
176
     1
 64
     7
176
     1
 65
   257
176
     1
 75
     7
176
     1
175
     7
176
     1
 42
1.0
176
     1
 92
        8
176
     1
 66
     7
176
     1
 43
1.0
176
     1
 76
     1
176
     1
 77
     6
176
     1
 78
     2
176
     1
 67
     7
176
     1
 79
     5
176
     1
170
     0
176
     1
171
     0
176
     1
290
     0
176
     1
 93
        1
176
     1
 44
0.0
176
     1
173
     0
176
     1
  0
VISUALSTYLE
  5
33
102
{ACAD_REACTORS
330
2A
102
}
330
2A
100
AcDbVisualStyle
  2
Realistic
 70
     8
177
     2
291
     0
 71
     2
176
     1
 72
     2
176
     1
 73
     0
176
     1
 90
        0
176
     1
 40
-0.6
176
     1
 41
-30.0
176
     1
 62
     5
 63
     7
421
 16777215
176
     1
 74
     1
176
     1
 91
        0
176
     1
 64
     7
176
     1
 65
   257
176
     1
 75
     1
176
     1
175
     1
176
     1
 42
1.0
176
     1
 92
        8
176
     1
 66
     8
424
  7895160
176
     1
 43
1.0
176
     1
 76
     1
176
     1
 77
     6
176
     1
 78
     2
176
     1
 67
     7
176
     1
 79
     5
176
     1
170
     0
176
     1
171
     0
176
     1
290
     0
176
     1
 93
       13
176
     1
 44
0.0
176
     1
173
     0
176
     1
  0
VISUALSTYLE
  5
37
102
{ACAD_REACTORS
330
2A
102
}
330
2A
100
AcDbVisualStyle
  2
Thicken
 70
    13
177
     2
291
     1
 71
     2
176
     1
 72
     2
176
     1
 73
     0
176
     1
 90
        0
176
     1
 40
-0.6
176
     1
 41
-30.0
176
     1
 62
     5
 63
     7
421
 16777215
176
     1
 74
     1
176
     1
 91
        4
176
     1
 64
     7
176
     1
 65
   257
176
     1
 75
     1
176
     1
175
     1
176
     1
 42
1.0
176
     1
 92
       12
176
     1
 66
     7
176
     1
 43
1.0
176
     1
 76
     1
176
     1
 77
     6
176
     1
 78
     2
176
     1
 67
     7
176
     1
 79
     5
176
     1
170
     0
176
     1
171
     0
176
     1
290
     0
176
     1
 93
        1
176
     1
 44
0.0
176
     1
173
     0
176
     1
  0
ENDSEC
  0
EOF
